G04 #@! TF.GenerationSoftware,KiCad,Pcbnew,9.0.2*
G04 #@! TF.CreationDate,2026-01-02T17:49:50+00:00*
G04 #@! TF.ProjectId,MegaCD-Connect BD Remake,4d656761-4344-42d4-936f-6e6e65637420,rev?*
G04 #@! TF.SameCoordinates,Original*
G04 #@! TF.FileFunction,Legend,Bot*
G04 #@! TF.FilePolarity,Positive*
%FSLAX46Y46*%
G04 Gerber Fmt 4.6, Leading zero omitted, Abs format (unit mm)*
G04 Created by KiCad (PCBNEW 9.0.2) date 2026-01-02 17:49:50*
%MOMM*%
%LPD*%
G01*
G04 APERTURE LIST*
G04 Aperture macros list*
%AMRoundRect*
0 Rectangle with rounded corners*
0 $1 Rounding radius*
0 $2 $3 $4 $5 $6 $7 $8 $9 X,Y pos of 4 corners*
0 Add a 4 corners polygon primitive as box body*
4,1,4,$2,$3,$4,$5,$6,$7,$8,$9,$2,$3,0*
0 Add four circle primitives for the rounded corners*
1,1,$1+$1,$2,$3*
1,1,$1+$1,$4,$5*
1,1,$1+$1,$6,$7*
1,1,$1+$1,$8,$9*
0 Add four rect primitives between the rounded corners*
20,1,$1+$1,$2,$3,$4,$5,0*
20,1,$1+$1,$4,$5,$6,$7,0*
20,1,$1+$1,$6,$7,$8,$9,0*
20,1,$1+$1,$8,$9,$2,$3,0*%
G04 Aperture macros list end*
%ADD10C,0.150000*%
%ADD11C,0.120000*%
%ADD12RoundRect,0.250000X-0.325000X-0.650000X0.325000X-0.650000X0.325000X0.650000X-0.325000X0.650000X0*%
%ADD13RoundRect,0.250000X0.550000X-0.950000X0.550000X0.950000X-0.550000X0.950000X-0.550000X-0.950000X0*%
%ADD14O,1.600000X2.400000*%
%ADD15R,1.700000X1.700000*%
%ADD16O,1.700000X1.700000*%
%ADD17C,1.700000*%
%ADD18R,1.600000X1.600000*%
%ADD19C,1.600000*%
G04 APERTURE END LIST*
D10*
X167328857Y-77253875D02*
X167328857Y-76253875D01*
X167328857Y-76253875D02*
X166995524Y-76968160D01*
X166995524Y-76968160D02*
X166662191Y-76253875D01*
X166662191Y-76253875D02*
X166662191Y-77253875D01*
X165805048Y-77206256D02*
X165900286Y-77253875D01*
X165900286Y-77253875D02*
X166090762Y-77253875D01*
X166090762Y-77253875D02*
X166186000Y-77206256D01*
X166186000Y-77206256D02*
X166233619Y-77111017D01*
X166233619Y-77111017D02*
X166233619Y-76730065D01*
X166233619Y-76730065D02*
X166186000Y-76634827D01*
X166186000Y-76634827D02*
X166090762Y-76587208D01*
X166090762Y-76587208D02*
X165900286Y-76587208D01*
X165900286Y-76587208D02*
X165805048Y-76634827D01*
X165805048Y-76634827D02*
X165757429Y-76730065D01*
X165757429Y-76730065D02*
X165757429Y-76825303D01*
X165757429Y-76825303D02*
X166233619Y-76920541D01*
X164900286Y-76587208D02*
X164900286Y-77396732D01*
X164900286Y-77396732D02*
X164947905Y-77491970D01*
X164947905Y-77491970D02*
X164995524Y-77539589D01*
X164995524Y-77539589D02*
X165090762Y-77587208D01*
X165090762Y-77587208D02*
X165233619Y-77587208D01*
X165233619Y-77587208D02*
X165328857Y-77539589D01*
X164900286Y-77206256D02*
X164995524Y-77253875D01*
X164995524Y-77253875D02*
X165186000Y-77253875D01*
X165186000Y-77253875D02*
X165281238Y-77206256D01*
X165281238Y-77206256D02*
X165328857Y-77158636D01*
X165328857Y-77158636D02*
X165376476Y-77063398D01*
X165376476Y-77063398D02*
X165376476Y-76777684D01*
X165376476Y-76777684D02*
X165328857Y-76682446D01*
X165328857Y-76682446D02*
X165281238Y-76634827D01*
X165281238Y-76634827D02*
X165186000Y-76587208D01*
X165186000Y-76587208D02*
X164995524Y-76587208D01*
X164995524Y-76587208D02*
X164900286Y-76634827D01*
X163995524Y-77253875D02*
X163995524Y-76730065D01*
X163995524Y-76730065D02*
X164043143Y-76634827D01*
X164043143Y-76634827D02*
X164138381Y-76587208D01*
X164138381Y-76587208D02*
X164328857Y-76587208D01*
X164328857Y-76587208D02*
X164424095Y-76634827D01*
X163995524Y-77206256D02*
X164090762Y-77253875D01*
X164090762Y-77253875D02*
X164328857Y-77253875D01*
X164328857Y-77253875D02*
X164424095Y-77206256D01*
X164424095Y-77206256D02*
X164471714Y-77111017D01*
X164471714Y-77111017D02*
X164471714Y-77015779D01*
X164471714Y-77015779D02*
X164424095Y-76920541D01*
X164424095Y-76920541D02*
X164328857Y-76872922D01*
X164328857Y-76872922D02*
X164090762Y-76872922D01*
X164090762Y-76872922D02*
X163995524Y-76825303D01*
X162947905Y-77158636D02*
X162995524Y-77206256D01*
X162995524Y-77206256D02*
X163138381Y-77253875D01*
X163138381Y-77253875D02*
X163233619Y-77253875D01*
X163233619Y-77253875D02*
X163376476Y-77206256D01*
X163376476Y-77206256D02*
X163471714Y-77111017D01*
X163471714Y-77111017D02*
X163519333Y-77015779D01*
X163519333Y-77015779D02*
X163566952Y-76825303D01*
X163566952Y-76825303D02*
X163566952Y-76682446D01*
X163566952Y-76682446D02*
X163519333Y-76491970D01*
X163519333Y-76491970D02*
X163471714Y-76396732D01*
X163471714Y-76396732D02*
X163376476Y-76301494D01*
X163376476Y-76301494D02*
X163233619Y-76253875D01*
X163233619Y-76253875D02*
X163138381Y-76253875D01*
X163138381Y-76253875D02*
X162995524Y-76301494D01*
X162995524Y-76301494D02*
X162947905Y-76349113D01*
X162519333Y-77253875D02*
X162519333Y-76253875D01*
X162519333Y-76253875D02*
X162281238Y-76253875D01*
X162281238Y-76253875D02*
X162138381Y-76301494D01*
X162138381Y-76301494D02*
X162043143Y-76396732D01*
X162043143Y-76396732D02*
X161995524Y-76491970D01*
X161995524Y-76491970D02*
X161947905Y-76682446D01*
X161947905Y-76682446D02*
X161947905Y-76825303D01*
X161947905Y-76825303D02*
X161995524Y-77015779D01*
X161995524Y-77015779D02*
X162043143Y-77111017D01*
X162043143Y-77111017D02*
X162138381Y-77206256D01*
X162138381Y-77206256D02*
X162281238Y-77253875D01*
X162281238Y-77253875D02*
X162519333Y-77253875D01*
X160852666Y-76587208D02*
X160614571Y-77253875D01*
X160614571Y-77253875D02*
X160376476Y-76587208D01*
X160043142Y-76349113D02*
X159995523Y-76301494D01*
X159995523Y-76301494D02*
X159900285Y-76253875D01*
X159900285Y-76253875D02*
X159662190Y-76253875D01*
X159662190Y-76253875D02*
X159566952Y-76301494D01*
X159566952Y-76301494D02*
X159519333Y-76349113D01*
X159519333Y-76349113D02*
X159471714Y-76444351D01*
X159471714Y-76444351D02*
X159471714Y-76539589D01*
X159471714Y-76539589D02*
X159519333Y-76682446D01*
X159519333Y-76682446D02*
X160090761Y-77253875D01*
X160090761Y-77253875D02*
X159471714Y-77253875D01*
X159043142Y-77158636D02*
X158995523Y-77206256D01*
X158995523Y-77206256D02*
X159043142Y-77253875D01*
X159043142Y-77253875D02*
X159090761Y-77206256D01*
X159090761Y-77206256D02*
X159043142Y-77158636D01*
X159043142Y-77158636D02*
X159043142Y-77253875D01*
X158662190Y-76253875D02*
X158043143Y-76253875D01*
X158043143Y-76253875D02*
X158376476Y-76634827D01*
X158376476Y-76634827D02*
X158233619Y-76634827D01*
X158233619Y-76634827D02*
X158138381Y-76682446D01*
X158138381Y-76682446D02*
X158090762Y-76730065D01*
X158090762Y-76730065D02*
X158043143Y-76825303D01*
X158043143Y-76825303D02*
X158043143Y-77063398D01*
X158043143Y-77063398D02*
X158090762Y-77158636D01*
X158090762Y-77158636D02*
X158138381Y-77206256D01*
X158138381Y-77206256D02*
X158233619Y-77253875D01*
X158233619Y-77253875D02*
X158519333Y-77253875D01*
X158519333Y-77253875D02*
X158614571Y-77206256D01*
X158614571Y-77206256D02*
X158662190Y-77158636D01*
X156281238Y-77158636D02*
X156328857Y-77206256D01*
X156328857Y-77206256D02*
X156471714Y-77253875D01*
X156471714Y-77253875D02*
X156566952Y-77253875D01*
X156566952Y-77253875D02*
X156709809Y-77206256D01*
X156709809Y-77206256D02*
X156805047Y-77111017D01*
X156805047Y-77111017D02*
X156852666Y-77015779D01*
X156852666Y-77015779D02*
X156900285Y-76825303D01*
X156900285Y-76825303D02*
X156900285Y-76682446D01*
X156900285Y-76682446D02*
X156852666Y-76491970D01*
X156852666Y-76491970D02*
X156805047Y-76396732D01*
X156805047Y-76396732D02*
X156709809Y-76301494D01*
X156709809Y-76301494D02*
X156566952Y-76253875D01*
X156566952Y-76253875D02*
X156471714Y-76253875D01*
X156471714Y-76253875D02*
X156328857Y-76301494D01*
X156328857Y-76301494D02*
X156281238Y-76349113D01*
X155709809Y-77253875D02*
X155805047Y-77206256D01*
X155805047Y-77206256D02*
X155852666Y-77158636D01*
X155852666Y-77158636D02*
X155900285Y-77063398D01*
X155900285Y-77063398D02*
X155900285Y-76777684D01*
X155900285Y-76777684D02*
X155852666Y-76682446D01*
X155852666Y-76682446D02*
X155805047Y-76634827D01*
X155805047Y-76634827D02*
X155709809Y-76587208D01*
X155709809Y-76587208D02*
X155566952Y-76587208D01*
X155566952Y-76587208D02*
X155471714Y-76634827D01*
X155471714Y-76634827D02*
X155424095Y-76682446D01*
X155424095Y-76682446D02*
X155376476Y-76777684D01*
X155376476Y-76777684D02*
X155376476Y-77063398D01*
X155376476Y-77063398D02*
X155424095Y-77158636D01*
X155424095Y-77158636D02*
X155471714Y-77206256D01*
X155471714Y-77206256D02*
X155566952Y-77253875D01*
X155566952Y-77253875D02*
X155709809Y-77253875D01*
X154947904Y-76587208D02*
X154947904Y-77253875D01*
X154947904Y-76682446D02*
X154900285Y-76634827D01*
X154900285Y-76634827D02*
X154805047Y-76587208D01*
X154805047Y-76587208D02*
X154662190Y-76587208D01*
X154662190Y-76587208D02*
X154566952Y-76634827D01*
X154566952Y-76634827D02*
X154519333Y-76730065D01*
X154519333Y-76730065D02*
X154519333Y-77253875D01*
X154043142Y-76587208D02*
X154043142Y-77253875D01*
X154043142Y-76682446D02*
X153995523Y-76634827D01*
X153995523Y-76634827D02*
X153900285Y-76587208D01*
X153900285Y-76587208D02*
X153757428Y-76587208D01*
X153757428Y-76587208D02*
X153662190Y-76634827D01*
X153662190Y-76634827D02*
X153614571Y-76730065D01*
X153614571Y-76730065D02*
X153614571Y-77253875D01*
X152757428Y-77206256D02*
X152852666Y-77253875D01*
X152852666Y-77253875D02*
X153043142Y-77253875D01*
X153043142Y-77253875D02*
X153138380Y-77206256D01*
X153138380Y-77206256D02*
X153185999Y-77111017D01*
X153185999Y-77111017D02*
X153185999Y-76730065D01*
X153185999Y-76730065D02*
X153138380Y-76634827D01*
X153138380Y-76634827D02*
X153043142Y-76587208D01*
X153043142Y-76587208D02*
X152852666Y-76587208D01*
X152852666Y-76587208D02*
X152757428Y-76634827D01*
X152757428Y-76634827D02*
X152709809Y-76730065D01*
X152709809Y-76730065D02*
X152709809Y-76825303D01*
X152709809Y-76825303D02*
X153185999Y-76920541D01*
X151852666Y-77206256D02*
X151947904Y-77253875D01*
X151947904Y-77253875D02*
X152138380Y-77253875D01*
X152138380Y-77253875D02*
X152233618Y-77206256D01*
X152233618Y-77206256D02*
X152281237Y-77158636D01*
X152281237Y-77158636D02*
X152328856Y-77063398D01*
X152328856Y-77063398D02*
X152328856Y-76777684D01*
X152328856Y-76777684D02*
X152281237Y-76682446D01*
X152281237Y-76682446D02*
X152233618Y-76634827D01*
X152233618Y-76634827D02*
X152138380Y-76587208D01*
X152138380Y-76587208D02*
X151947904Y-76587208D01*
X151947904Y-76587208D02*
X151852666Y-76634827D01*
X151566951Y-76587208D02*
X151185999Y-76587208D01*
X151424094Y-76253875D02*
X151424094Y-77111017D01*
X151424094Y-77111017D02*
X151376475Y-77206256D01*
X151376475Y-77206256D02*
X151281237Y-77253875D01*
X151281237Y-77253875D02*
X151185999Y-77253875D01*
X149757427Y-76730065D02*
X149614570Y-76777684D01*
X149614570Y-76777684D02*
X149566951Y-76825303D01*
X149566951Y-76825303D02*
X149519332Y-76920541D01*
X149519332Y-76920541D02*
X149519332Y-77063398D01*
X149519332Y-77063398D02*
X149566951Y-77158636D01*
X149566951Y-77158636D02*
X149614570Y-77206256D01*
X149614570Y-77206256D02*
X149709808Y-77253875D01*
X149709808Y-77253875D02*
X150090760Y-77253875D01*
X150090760Y-77253875D02*
X150090760Y-76253875D01*
X150090760Y-76253875D02*
X149757427Y-76253875D01*
X149757427Y-76253875D02*
X149662189Y-76301494D01*
X149662189Y-76301494D02*
X149614570Y-76349113D01*
X149614570Y-76349113D02*
X149566951Y-76444351D01*
X149566951Y-76444351D02*
X149566951Y-76539589D01*
X149566951Y-76539589D02*
X149614570Y-76634827D01*
X149614570Y-76634827D02*
X149662189Y-76682446D01*
X149662189Y-76682446D02*
X149757427Y-76730065D01*
X149757427Y-76730065D02*
X150090760Y-76730065D01*
X149090760Y-77253875D02*
X149090760Y-76253875D01*
X149090760Y-76253875D02*
X148852665Y-76253875D01*
X148852665Y-76253875D02*
X148709808Y-76301494D01*
X148709808Y-76301494D02*
X148614570Y-76396732D01*
X148614570Y-76396732D02*
X148566951Y-76491970D01*
X148566951Y-76491970D02*
X148519332Y-76682446D01*
X148519332Y-76682446D02*
X148519332Y-76825303D01*
X148519332Y-76825303D02*
X148566951Y-77015779D01*
X148566951Y-77015779D02*
X148614570Y-77111017D01*
X148614570Y-77111017D02*
X148709808Y-77206256D01*
X148709808Y-77206256D02*
X148852665Y-77253875D01*
X148852665Y-77253875D02*
X149090760Y-77253875D01*
X146757427Y-77253875D02*
X147090760Y-76777684D01*
X147328855Y-77253875D02*
X147328855Y-76253875D01*
X147328855Y-76253875D02*
X146947903Y-76253875D01*
X146947903Y-76253875D02*
X146852665Y-76301494D01*
X146852665Y-76301494D02*
X146805046Y-76349113D01*
X146805046Y-76349113D02*
X146757427Y-76444351D01*
X146757427Y-76444351D02*
X146757427Y-76587208D01*
X146757427Y-76587208D02*
X146805046Y-76682446D01*
X146805046Y-76682446D02*
X146852665Y-76730065D01*
X146852665Y-76730065D02*
X146947903Y-76777684D01*
X146947903Y-76777684D02*
X147328855Y-76777684D01*
X145947903Y-77206256D02*
X146043141Y-77253875D01*
X146043141Y-77253875D02*
X146233617Y-77253875D01*
X146233617Y-77253875D02*
X146328855Y-77206256D01*
X146328855Y-77206256D02*
X146376474Y-77111017D01*
X146376474Y-77111017D02*
X146376474Y-76730065D01*
X146376474Y-76730065D02*
X146328855Y-76634827D01*
X146328855Y-76634827D02*
X146233617Y-76587208D01*
X146233617Y-76587208D02*
X146043141Y-76587208D01*
X146043141Y-76587208D02*
X145947903Y-76634827D01*
X145947903Y-76634827D02*
X145900284Y-76730065D01*
X145900284Y-76730065D02*
X145900284Y-76825303D01*
X145900284Y-76825303D02*
X146376474Y-76920541D01*
X145471712Y-77253875D02*
X145471712Y-76587208D01*
X145471712Y-76682446D02*
X145424093Y-76634827D01*
X145424093Y-76634827D02*
X145328855Y-76587208D01*
X145328855Y-76587208D02*
X145185998Y-76587208D01*
X145185998Y-76587208D02*
X145090760Y-76634827D01*
X145090760Y-76634827D02*
X145043141Y-76730065D01*
X145043141Y-76730065D02*
X145043141Y-77253875D01*
X145043141Y-76730065D02*
X144995522Y-76634827D01*
X144995522Y-76634827D02*
X144900284Y-76587208D01*
X144900284Y-76587208D02*
X144757427Y-76587208D01*
X144757427Y-76587208D02*
X144662188Y-76634827D01*
X144662188Y-76634827D02*
X144614569Y-76730065D01*
X144614569Y-76730065D02*
X144614569Y-77253875D01*
X143709808Y-77253875D02*
X143709808Y-76730065D01*
X143709808Y-76730065D02*
X143757427Y-76634827D01*
X143757427Y-76634827D02*
X143852665Y-76587208D01*
X143852665Y-76587208D02*
X144043141Y-76587208D01*
X144043141Y-76587208D02*
X144138379Y-76634827D01*
X143709808Y-77206256D02*
X143805046Y-77253875D01*
X143805046Y-77253875D02*
X144043141Y-77253875D01*
X144043141Y-77253875D02*
X144138379Y-77206256D01*
X144138379Y-77206256D02*
X144185998Y-77111017D01*
X144185998Y-77111017D02*
X144185998Y-77015779D01*
X144185998Y-77015779D02*
X144138379Y-76920541D01*
X144138379Y-76920541D02*
X144043141Y-76872922D01*
X144043141Y-76872922D02*
X143805046Y-76872922D01*
X143805046Y-76872922D02*
X143709808Y-76825303D01*
X143233617Y-77253875D02*
X143233617Y-76253875D01*
X143138379Y-76872922D02*
X142852665Y-77253875D01*
X142852665Y-76587208D02*
X143233617Y-76968160D01*
X142043141Y-77206256D02*
X142138379Y-77253875D01*
X142138379Y-77253875D02*
X142328855Y-77253875D01*
X142328855Y-77253875D02*
X142424093Y-77206256D01*
X142424093Y-77206256D02*
X142471712Y-77111017D01*
X142471712Y-77111017D02*
X142471712Y-76730065D01*
X142471712Y-76730065D02*
X142424093Y-76634827D01*
X142424093Y-76634827D02*
X142328855Y-76587208D01*
X142328855Y-76587208D02*
X142138379Y-76587208D01*
X142138379Y-76587208D02*
X142043141Y-76634827D01*
X142043141Y-76634827D02*
X141995522Y-76730065D01*
X141995522Y-76730065D02*
X141995522Y-76825303D01*
X141995522Y-76825303D02*
X142471712Y-76920541D01*
X164614571Y-78863819D02*
X164614571Y-77863819D01*
X164614571Y-77863819D02*
X164281238Y-78578104D01*
X164281238Y-78578104D02*
X163947905Y-77863819D01*
X163947905Y-77863819D02*
X163947905Y-78863819D01*
X163043143Y-78863819D02*
X163043143Y-78340009D01*
X163043143Y-78340009D02*
X163090762Y-78244771D01*
X163090762Y-78244771D02*
X163186000Y-78197152D01*
X163186000Y-78197152D02*
X163376476Y-78197152D01*
X163376476Y-78197152D02*
X163471714Y-78244771D01*
X163043143Y-78816200D02*
X163138381Y-78863819D01*
X163138381Y-78863819D02*
X163376476Y-78863819D01*
X163376476Y-78863819D02*
X163471714Y-78816200D01*
X163471714Y-78816200D02*
X163519333Y-78720961D01*
X163519333Y-78720961D02*
X163519333Y-78625723D01*
X163519333Y-78625723D02*
X163471714Y-78530485D01*
X163471714Y-78530485D02*
X163376476Y-78482866D01*
X163376476Y-78482866D02*
X163138381Y-78482866D01*
X163138381Y-78482866D02*
X163043143Y-78435247D01*
X162138381Y-78863819D02*
X162138381Y-77863819D01*
X162138381Y-78816200D02*
X162233619Y-78863819D01*
X162233619Y-78863819D02*
X162424095Y-78863819D01*
X162424095Y-78863819D02*
X162519333Y-78816200D01*
X162519333Y-78816200D02*
X162566952Y-78768580D01*
X162566952Y-78768580D02*
X162614571Y-78673342D01*
X162614571Y-78673342D02*
X162614571Y-78387628D01*
X162614571Y-78387628D02*
X162566952Y-78292390D01*
X162566952Y-78292390D02*
X162519333Y-78244771D01*
X162519333Y-78244771D02*
X162424095Y-78197152D01*
X162424095Y-78197152D02*
X162233619Y-78197152D01*
X162233619Y-78197152D02*
X162138381Y-78244771D01*
X161281238Y-78816200D02*
X161376476Y-78863819D01*
X161376476Y-78863819D02*
X161566952Y-78863819D01*
X161566952Y-78863819D02*
X161662190Y-78816200D01*
X161662190Y-78816200D02*
X161709809Y-78720961D01*
X161709809Y-78720961D02*
X161709809Y-78340009D01*
X161709809Y-78340009D02*
X161662190Y-78244771D01*
X161662190Y-78244771D02*
X161566952Y-78197152D01*
X161566952Y-78197152D02*
X161376476Y-78197152D01*
X161376476Y-78197152D02*
X161281238Y-78244771D01*
X161281238Y-78244771D02*
X161233619Y-78340009D01*
X161233619Y-78340009D02*
X161233619Y-78435247D01*
X161233619Y-78435247D02*
X161709809Y-78530485D01*
X159709809Y-78340009D02*
X159566952Y-78387628D01*
X159566952Y-78387628D02*
X159519333Y-78435247D01*
X159519333Y-78435247D02*
X159471714Y-78530485D01*
X159471714Y-78530485D02*
X159471714Y-78673342D01*
X159471714Y-78673342D02*
X159519333Y-78768580D01*
X159519333Y-78768580D02*
X159566952Y-78816200D01*
X159566952Y-78816200D02*
X159662190Y-78863819D01*
X159662190Y-78863819D02*
X160043142Y-78863819D01*
X160043142Y-78863819D02*
X160043142Y-77863819D01*
X160043142Y-77863819D02*
X159709809Y-77863819D01*
X159709809Y-77863819D02*
X159614571Y-77911438D01*
X159614571Y-77911438D02*
X159566952Y-77959057D01*
X159566952Y-77959057D02*
X159519333Y-78054295D01*
X159519333Y-78054295D02*
X159519333Y-78149533D01*
X159519333Y-78149533D02*
X159566952Y-78244771D01*
X159566952Y-78244771D02*
X159614571Y-78292390D01*
X159614571Y-78292390D02*
X159709809Y-78340009D01*
X159709809Y-78340009D02*
X160043142Y-78340009D01*
X159138380Y-78197152D02*
X158900285Y-78863819D01*
X158662190Y-78197152D02*
X158900285Y-78863819D01*
X158900285Y-78863819D02*
X158995523Y-79101914D01*
X158995523Y-79101914D02*
X159043142Y-79149533D01*
X159043142Y-79149533D02*
X159138380Y-79197152D01*
X156947904Y-78768580D02*
X156995523Y-78816200D01*
X156995523Y-78816200D02*
X157138380Y-78863819D01*
X157138380Y-78863819D02*
X157233618Y-78863819D01*
X157233618Y-78863819D02*
X157376475Y-78816200D01*
X157376475Y-78816200D02*
X157471713Y-78720961D01*
X157471713Y-78720961D02*
X157519332Y-78625723D01*
X157519332Y-78625723D02*
X157566951Y-78435247D01*
X157566951Y-78435247D02*
X157566951Y-78292390D01*
X157566951Y-78292390D02*
X157519332Y-78101914D01*
X157519332Y-78101914D02*
X157471713Y-78006676D01*
X157471713Y-78006676D02*
X157376475Y-77911438D01*
X157376475Y-77911438D02*
X157233618Y-77863819D01*
X157233618Y-77863819D02*
X157138380Y-77863819D01*
X157138380Y-77863819D02*
X156995523Y-77911438D01*
X156995523Y-77911438D02*
X156947904Y-77959057D01*
X156519332Y-78863819D02*
X156519332Y-77863819D01*
X156090761Y-78863819D02*
X156090761Y-78340009D01*
X156090761Y-78340009D02*
X156138380Y-78244771D01*
X156138380Y-78244771D02*
X156233618Y-78197152D01*
X156233618Y-78197152D02*
X156376475Y-78197152D01*
X156376475Y-78197152D02*
X156471713Y-78244771D01*
X156471713Y-78244771D02*
X156519332Y-78292390D01*
X155614570Y-78863819D02*
X155614570Y-78197152D01*
X155614570Y-78387628D02*
X155566951Y-78292390D01*
X155566951Y-78292390D02*
X155519332Y-78244771D01*
X155519332Y-78244771D02*
X155424094Y-78197152D01*
X155424094Y-78197152D02*
X155328856Y-78197152D01*
X154995522Y-78863819D02*
X154995522Y-78197152D01*
X154995522Y-77863819D02*
X155043141Y-77911438D01*
X155043141Y-77911438D02*
X154995522Y-77959057D01*
X154995522Y-77959057D02*
X154947903Y-77911438D01*
X154947903Y-77911438D02*
X154995522Y-77863819D01*
X154995522Y-77863819D02*
X154995522Y-77959057D01*
X154566951Y-78816200D02*
X154471713Y-78863819D01*
X154471713Y-78863819D02*
X154281237Y-78863819D01*
X154281237Y-78863819D02*
X154185999Y-78816200D01*
X154185999Y-78816200D02*
X154138380Y-78720961D01*
X154138380Y-78720961D02*
X154138380Y-78673342D01*
X154138380Y-78673342D02*
X154185999Y-78578104D01*
X154185999Y-78578104D02*
X154281237Y-78530485D01*
X154281237Y-78530485D02*
X154424094Y-78530485D01*
X154424094Y-78530485D02*
X154519332Y-78482866D01*
X154519332Y-78482866D02*
X154566951Y-78387628D01*
X154566951Y-78387628D02*
X154566951Y-78340009D01*
X154566951Y-78340009D02*
X154519332Y-78244771D01*
X154519332Y-78244771D02*
X154424094Y-78197152D01*
X154424094Y-78197152D02*
X154281237Y-78197152D01*
X154281237Y-78197152D02*
X154185999Y-78244771D01*
X153757427Y-78816200D02*
X153662189Y-78863819D01*
X153662189Y-78863819D02*
X153471713Y-78863819D01*
X153471713Y-78863819D02*
X153376475Y-78816200D01*
X153376475Y-78816200D02*
X153328856Y-78720961D01*
X153328856Y-78720961D02*
X153328856Y-78673342D01*
X153328856Y-78673342D02*
X153376475Y-78578104D01*
X153376475Y-78578104D02*
X153471713Y-78530485D01*
X153471713Y-78530485D02*
X153614570Y-78530485D01*
X153614570Y-78530485D02*
X153709808Y-78482866D01*
X153709808Y-78482866D02*
X153757427Y-78387628D01*
X153757427Y-78387628D02*
X153757427Y-78340009D01*
X153757427Y-78340009D02*
X153709808Y-78244771D01*
X153709808Y-78244771D02*
X153614570Y-78197152D01*
X153614570Y-78197152D02*
X153471713Y-78197152D01*
X153471713Y-78197152D02*
X153376475Y-78244771D01*
X152995522Y-78197152D02*
X152757427Y-78863819D01*
X152519332Y-78197152D02*
X152757427Y-78863819D01*
X152757427Y-78863819D02*
X152852665Y-79101914D01*
X152852665Y-79101914D02*
X152900284Y-79149533D01*
X152900284Y-79149533D02*
X152995522Y-79197152D01*
X150757427Y-78387628D02*
X150805046Y-78340009D01*
X150805046Y-78340009D02*
X150900284Y-78292390D01*
X150900284Y-78292390D02*
X150995522Y-78292390D01*
X150995522Y-78292390D02*
X151090760Y-78340009D01*
X151090760Y-78340009D02*
X151138379Y-78387628D01*
X151138379Y-78387628D02*
X151185998Y-78482866D01*
X151185998Y-78482866D02*
X151185998Y-78578104D01*
X151185998Y-78578104D02*
X151138379Y-78673342D01*
X151138379Y-78673342D02*
X151090760Y-78720961D01*
X151090760Y-78720961D02*
X150995522Y-78768580D01*
X150995522Y-78768580D02*
X150900284Y-78768580D01*
X150900284Y-78768580D02*
X150805046Y-78720961D01*
X150805046Y-78720961D02*
X150757427Y-78673342D01*
X150757427Y-78292390D02*
X150757427Y-78673342D01*
X150757427Y-78673342D02*
X150709808Y-78720961D01*
X150709808Y-78720961D02*
X150662189Y-78720961D01*
X150662189Y-78720961D02*
X150566950Y-78673342D01*
X150566950Y-78673342D02*
X150519331Y-78578104D01*
X150519331Y-78578104D02*
X150519331Y-78340009D01*
X150519331Y-78340009D02*
X150614570Y-78197152D01*
X150614570Y-78197152D02*
X150757427Y-78101914D01*
X150757427Y-78101914D02*
X150947903Y-78054295D01*
X150947903Y-78054295D02*
X151138379Y-78101914D01*
X151138379Y-78101914D02*
X151281236Y-78197152D01*
X151281236Y-78197152D02*
X151376474Y-78340009D01*
X151376474Y-78340009D02*
X151424093Y-78530485D01*
X151424093Y-78530485D02*
X151376474Y-78720961D01*
X151376474Y-78720961D02*
X151281236Y-78863819D01*
X151281236Y-78863819D02*
X151138379Y-78959057D01*
X151138379Y-78959057D02*
X150947903Y-79006676D01*
X150947903Y-79006676D02*
X150757427Y-78959057D01*
X150757427Y-78959057D02*
X150614570Y-78863819D01*
X149662189Y-78816200D02*
X149757427Y-78863819D01*
X149757427Y-78863819D02*
X149947903Y-78863819D01*
X149947903Y-78863819D02*
X150043141Y-78816200D01*
X150043141Y-78816200D02*
X150090760Y-78768580D01*
X150090760Y-78768580D02*
X150138379Y-78673342D01*
X150138379Y-78673342D02*
X150138379Y-78387628D01*
X150138379Y-78387628D02*
X150090760Y-78292390D01*
X150090760Y-78292390D02*
X150043141Y-78244771D01*
X150043141Y-78244771D02*
X149947903Y-78197152D01*
X149947903Y-78197152D02*
X149757427Y-78197152D01*
X149757427Y-78197152D02*
X149662189Y-78244771D01*
X149233617Y-78863819D02*
X149233617Y-77863819D01*
X148805046Y-78863819D02*
X148805046Y-78340009D01*
X148805046Y-78340009D02*
X148852665Y-78244771D01*
X148852665Y-78244771D02*
X148947903Y-78197152D01*
X148947903Y-78197152D02*
X149090760Y-78197152D01*
X149090760Y-78197152D02*
X149185998Y-78244771D01*
X149185998Y-78244771D02*
X149233617Y-78292390D01*
X148328855Y-78863819D02*
X148328855Y-78197152D01*
X148328855Y-78387628D02*
X148281236Y-78292390D01*
X148281236Y-78292390D02*
X148233617Y-78244771D01*
X148233617Y-78244771D02*
X148138379Y-78197152D01*
X148138379Y-78197152D02*
X148043141Y-78197152D01*
X147709807Y-78863819D02*
X147709807Y-78197152D01*
X147709807Y-77863819D02*
X147757426Y-77911438D01*
X147757426Y-77911438D02*
X147709807Y-77959057D01*
X147709807Y-77959057D02*
X147662188Y-77911438D01*
X147662188Y-77911438D02*
X147709807Y-77863819D01*
X147709807Y-77863819D02*
X147709807Y-77959057D01*
X147281236Y-78816200D02*
X147185998Y-78863819D01*
X147185998Y-78863819D02*
X146995522Y-78863819D01*
X146995522Y-78863819D02*
X146900284Y-78816200D01*
X146900284Y-78816200D02*
X146852665Y-78720961D01*
X146852665Y-78720961D02*
X146852665Y-78673342D01*
X146852665Y-78673342D02*
X146900284Y-78578104D01*
X146900284Y-78578104D02*
X146995522Y-78530485D01*
X146995522Y-78530485D02*
X147138379Y-78530485D01*
X147138379Y-78530485D02*
X147233617Y-78482866D01*
X147233617Y-78482866D02*
X147281236Y-78387628D01*
X147281236Y-78387628D02*
X147281236Y-78340009D01*
X147281236Y-78340009D02*
X147233617Y-78244771D01*
X147233617Y-78244771D02*
X147138379Y-78197152D01*
X147138379Y-78197152D02*
X146995522Y-78197152D01*
X146995522Y-78197152D02*
X146900284Y-78244771D01*
X146662189Y-78959057D02*
X145900284Y-78959057D01*
X145662188Y-78197152D02*
X145662188Y-79054295D01*
X145662188Y-79054295D02*
X145709807Y-79149533D01*
X145709807Y-79149533D02*
X145805045Y-79197152D01*
X145805045Y-79197152D02*
X145852664Y-79197152D01*
X145662188Y-77863819D02*
X145709807Y-77911438D01*
X145709807Y-77911438D02*
X145662188Y-77959057D01*
X145662188Y-77959057D02*
X145614569Y-77911438D01*
X145614569Y-77911438D02*
X145662188Y-77863819D01*
X145662188Y-77863819D02*
X145662188Y-77959057D01*
X145185998Y-78863819D02*
X145185998Y-77863819D01*
X144757427Y-78863819D02*
X144757427Y-78340009D01*
X144757427Y-78340009D02*
X144805046Y-78244771D01*
X144805046Y-78244771D02*
X144900284Y-78197152D01*
X144900284Y-78197152D02*
X145043141Y-78197152D01*
X145043141Y-78197152D02*
X145138379Y-78244771D01*
X145138379Y-78244771D02*
X145185998Y-78292390D01*
X204702580Y-107136143D02*
X204750200Y-107093286D01*
X204750200Y-107093286D02*
X204797819Y-106964714D01*
X204797819Y-106964714D02*
X204797819Y-106879000D01*
X204797819Y-106879000D02*
X204750200Y-106750429D01*
X204750200Y-106750429D02*
X204654961Y-106664714D01*
X204654961Y-106664714D02*
X204559723Y-106621857D01*
X204559723Y-106621857D02*
X204369247Y-106579000D01*
X204369247Y-106579000D02*
X204226390Y-106579000D01*
X204226390Y-106579000D02*
X204035914Y-106621857D01*
X204035914Y-106621857D02*
X203940676Y-106664714D01*
X203940676Y-106664714D02*
X203845438Y-106750429D01*
X203845438Y-106750429D02*
X203797819Y-106879000D01*
X203797819Y-106879000D02*
X203797819Y-106964714D01*
X203797819Y-106964714D02*
X203845438Y-107093286D01*
X203845438Y-107093286D02*
X203893057Y-107136143D01*
X204797819Y-107521857D02*
X203797819Y-107521857D01*
X203797819Y-107521857D02*
X203797819Y-107736143D01*
X203797819Y-107736143D02*
X203845438Y-107864714D01*
X203845438Y-107864714D02*
X203940676Y-107950429D01*
X203940676Y-107950429D02*
X204035914Y-107993286D01*
X204035914Y-107993286D02*
X204226390Y-108036143D01*
X204226390Y-108036143D02*
X204369247Y-108036143D01*
X204369247Y-108036143D02*
X204559723Y-107993286D01*
X204559723Y-107993286D02*
X204654961Y-107950429D01*
X204654961Y-107950429D02*
X204750200Y-107864714D01*
X204750200Y-107864714D02*
X204797819Y-107736143D01*
X204797819Y-107736143D02*
X204797819Y-107521857D01*
X204274009Y-109107571D02*
X204274009Y-109407571D01*
X204797819Y-109536143D02*
X204797819Y-109107571D01*
X204797819Y-109107571D02*
X203797819Y-109107571D01*
X203797819Y-109107571D02*
X203797819Y-109536143D01*
X203797819Y-109836143D02*
X204797819Y-110436143D01*
X203797819Y-110436143D02*
X204797819Y-109836143D01*
X204797819Y-110779000D02*
X203797819Y-110779000D01*
X203797819Y-110779000D02*
X203797819Y-111121857D01*
X203797819Y-111121857D02*
X203845438Y-111207572D01*
X203845438Y-111207572D02*
X203893057Y-111250429D01*
X203893057Y-111250429D02*
X203988295Y-111293286D01*
X203988295Y-111293286D02*
X204131152Y-111293286D01*
X204131152Y-111293286D02*
X204226390Y-111250429D01*
X204226390Y-111250429D02*
X204274009Y-111207572D01*
X204274009Y-111207572D02*
X204321628Y-111121857D01*
X204321628Y-111121857D02*
X204321628Y-110779000D01*
X204512104Y-111636143D02*
X204512104Y-112064715D01*
X204797819Y-111550429D02*
X203797819Y-111850429D01*
X203797819Y-111850429D02*
X204797819Y-112150429D01*
X204797819Y-112450429D02*
X203797819Y-112450429D01*
X203797819Y-112450429D02*
X204797819Y-112964715D01*
X204797819Y-112964715D02*
X203797819Y-112964715D01*
X204750200Y-113350429D02*
X204797819Y-113479001D01*
X204797819Y-113479001D02*
X204797819Y-113693286D01*
X204797819Y-113693286D02*
X204750200Y-113779001D01*
X204750200Y-113779001D02*
X204702580Y-113821858D01*
X204702580Y-113821858D02*
X204607342Y-113864715D01*
X204607342Y-113864715D02*
X204512104Y-113864715D01*
X204512104Y-113864715D02*
X204416866Y-113821858D01*
X204416866Y-113821858D02*
X204369247Y-113779001D01*
X204369247Y-113779001D02*
X204321628Y-113693286D01*
X204321628Y-113693286D02*
X204274009Y-113521858D01*
X204274009Y-113521858D02*
X204226390Y-113436143D01*
X204226390Y-113436143D02*
X204178771Y-113393286D01*
X204178771Y-113393286D02*
X204083533Y-113350429D01*
X204083533Y-113350429D02*
X203988295Y-113350429D01*
X203988295Y-113350429D02*
X203893057Y-113393286D01*
X203893057Y-113393286D02*
X203845438Y-113436143D01*
X203845438Y-113436143D02*
X203797819Y-113521858D01*
X203797819Y-113521858D02*
X203797819Y-113736143D01*
X203797819Y-113736143D02*
X203845438Y-113864715D01*
X204797819Y-114250429D02*
X203797819Y-114250429D01*
X203797819Y-114850429D02*
X203797819Y-115021857D01*
X203797819Y-115021857D02*
X203845438Y-115107572D01*
X203845438Y-115107572D02*
X203940676Y-115193286D01*
X203940676Y-115193286D02*
X204131152Y-115236143D01*
X204131152Y-115236143D02*
X204464485Y-115236143D01*
X204464485Y-115236143D02*
X204654961Y-115193286D01*
X204654961Y-115193286D02*
X204750200Y-115107572D01*
X204750200Y-115107572D02*
X204797819Y-115021857D01*
X204797819Y-115021857D02*
X204797819Y-114850429D01*
X204797819Y-114850429D02*
X204750200Y-114764715D01*
X204750200Y-114764715D02*
X204654961Y-114679000D01*
X204654961Y-114679000D02*
X204464485Y-114636143D01*
X204464485Y-114636143D02*
X204131152Y-114636143D01*
X204131152Y-114636143D02*
X203940676Y-114679000D01*
X203940676Y-114679000D02*
X203845438Y-114764715D01*
X203845438Y-114764715D02*
X203797819Y-114850429D01*
X204797819Y-115621857D02*
X203797819Y-115621857D01*
X203797819Y-115621857D02*
X204797819Y-116136143D01*
X204797819Y-116136143D02*
X203797819Y-116136143D01*
X203797124Y-98091047D02*
X204797124Y-98091047D01*
X204797124Y-98091047D02*
X204082839Y-97757714D01*
X204082839Y-97757714D02*
X204797124Y-97424381D01*
X204797124Y-97424381D02*
X203797124Y-97424381D01*
X203844744Y-96567238D02*
X203797124Y-96662476D01*
X203797124Y-96662476D02*
X203797124Y-96852952D01*
X203797124Y-96852952D02*
X203844744Y-96948190D01*
X203844744Y-96948190D02*
X203939982Y-96995809D01*
X203939982Y-96995809D02*
X204320934Y-96995809D01*
X204320934Y-96995809D02*
X204416172Y-96948190D01*
X204416172Y-96948190D02*
X204463791Y-96852952D01*
X204463791Y-96852952D02*
X204463791Y-96662476D01*
X204463791Y-96662476D02*
X204416172Y-96567238D01*
X204416172Y-96567238D02*
X204320934Y-96519619D01*
X204320934Y-96519619D02*
X204225696Y-96519619D01*
X204225696Y-96519619D02*
X204130458Y-96995809D01*
X204463791Y-95662476D02*
X203654267Y-95662476D01*
X203654267Y-95662476D02*
X203559029Y-95710095D01*
X203559029Y-95710095D02*
X203511410Y-95757714D01*
X203511410Y-95757714D02*
X203463791Y-95852952D01*
X203463791Y-95852952D02*
X203463791Y-95995809D01*
X203463791Y-95995809D02*
X203511410Y-96091047D01*
X203844744Y-95662476D02*
X203797124Y-95757714D01*
X203797124Y-95757714D02*
X203797124Y-95948190D01*
X203797124Y-95948190D02*
X203844744Y-96043428D01*
X203844744Y-96043428D02*
X203892363Y-96091047D01*
X203892363Y-96091047D02*
X203987601Y-96138666D01*
X203987601Y-96138666D02*
X204273315Y-96138666D01*
X204273315Y-96138666D02*
X204368553Y-96091047D01*
X204368553Y-96091047D02*
X204416172Y-96043428D01*
X204416172Y-96043428D02*
X204463791Y-95948190D01*
X204463791Y-95948190D02*
X204463791Y-95757714D01*
X204463791Y-95757714D02*
X204416172Y-95662476D01*
X203797124Y-94757714D02*
X204320934Y-94757714D01*
X204320934Y-94757714D02*
X204416172Y-94805333D01*
X204416172Y-94805333D02*
X204463791Y-94900571D01*
X204463791Y-94900571D02*
X204463791Y-95091047D01*
X204463791Y-95091047D02*
X204416172Y-95186285D01*
X203844744Y-94757714D02*
X203797124Y-94852952D01*
X203797124Y-94852952D02*
X203797124Y-95091047D01*
X203797124Y-95091047D02*
X203844744Y-95186285D01*
X203844744Y-95186285D02*
X203939982Y-95233904D01*
X203939982Y-95233904D02*
X204035220Y-95233904D01*
X204035220Y-95233904D02*
X204130458Y-95186285D01*
X204130458Y-95186285D02*
X204178077Y-95091047D01*
X204178077Y-95091047D02*
X204178077Y-94852952D01*
X204178077Y-94852952D02*
X204225696Y-94757714D01*
X203892363Y-93710095D02*
X203844744Y-93757714D01*
X203844744Y-93757714D02*
X203797124Y-93900571D01*
X203797124Y-93900571D02*
X203797124Y-93995809D01*
X203797124Y-93995809D02*
X203844744Y-94138666D01*
X203844744Y-94138666D02*
X203939982Y-94233904D01*
X203939982Y-94233904D02*
X204035220Y-94281523D01*
X204035220Y-94281523D02*
X204225696Y-94329142D01*
X204225696Y-94329142D02*
X204368553Y-94329142D01*
X204368553Y-94329142D02*
X204559029Y-94281523D01*
X204559029Y-94281523D02*
X204654267Y-94233904D01*
X204654267Y-94233904D02*
X204749505Y-94138666D01*
X204749505Y-94138666D02*
X204797124Y-93995809D01*
X204797124Y-93995809D02*
X204797124Y-93900571D01*
X204797124Y-93900571D02*
X204749505Y-93757714D01*
X204749505Y-93757714D02*
X204701886Y-93710095D01*
X203797124Y-93281523D02*
X204797124Y-93281523D01*
X204797124Y-93281523D02*
X204797124Y-93043428D01*
X204797124Y-93043428D02*
X204749505Y-92900571D01*
X204749505Y-92900571D02*
X204654267Y-92805333D01*
X204654267Y-92805333D02*
X204559029Y-92757714D01*
X204559029Y-92757714D02*
X204368553Y-92710095D01*
X204368553Y-92710095D02*
X204225696Y-92710095D01*
X204225696Y-92710095D02*
X204035220Y-92757714D01*
X204035220Y-92757714D02*
X203939982Y-92805333D01*
X203939982Y-92805333D02*
X203844744Y-92900571D01*
X203844744Y-92900571D02*
X203797124Y-93043428D01*
X203797124Y-93043428D02*
X203797124Y-93281523D01*
X204463791Y-91614856D02*
X203797124Y-91376761D01*
X203797124Y-91376761D02*
X204463791Y-91138666D01*
X204701886Y-90805332D02*
X204749505Y-90757713D01*
X204749505Y-90757713D02*
X204797124Y-90662475D01*
X204797124Y-90662475D02*
X204797124Y-90424380D01*
X204797124Y-90424380D02*
X204749505Y-90329142D01*
X204749505Y-90329142D02*
X204701886Y-90281523D01*
X204701886Y-90281523D02*
X204606648Y-90233904D01*
X204606648Y-90233904D02*
X204511410Y-90233904D01*
X204511410Y-90233904D02*
X204368553Y-90281523D01*
X204368553Y-90281523D02*
X203797124Y-90852951D01*
X203797124Y-90852951D02*
X203797124Y-90233904D01*
X203892363Y-89805332D02*
X203844744Y-89757713D01*
X203844744Y-89757713D02*
X203797124Y-89805332D01*
X203797124Y-89805332D02*
X203844744Y-89852951D01*
X203844744Y-89852951D02*
X203892363Y-89805332D01*
X203892363Y-89805332D02*
X203797124Y-89805332D01*
X204797124Y-89424380D02*
X204797124Y-88805333D01*
X204797124Y-88805333D02*
X204416172Y-89138666D01*
X204416172Y-89138666D02*
X204416172Y-88995809D01*
X204416172Y-88995809D02*
X204368553Y-88900571D01*
X204368553Y-88900571D02*
X204320934Y-88852952D01*
X204320934Y-88852952D02*
X204225696Y-88805333D01*
X204225696Y-88805333D02*
X203987601Y-88805333D01*
X203987601Y-88805333D02*
X203892363Y-88852952D01*
X203892363Y-88852952D02*
X203844744Y-88900571D01*
X203844744Y-88900571D02*
X203797124Y-88995809D01*
X203797124Y-88995809D02*
X203797124Y-89281523D01*
X203797124Y-89281523D02*
X203844744Y-89376761D01*
X203844744Y-89376761D02*
X203892363Y-89424380D01*
X202282419Y-100305334D02*
X202234800Y-100352953D01*
X202234800Y-100352953D02*
X202187180Y-100495810D01*
X202187180Y-100495810D02*
X202187180Y-100591048D01*
X202187180Y-100591048D02*
X202234800Y-100733905D01*
X202234800Y-100733905D02*
X202330038Y-100829143D01*
X202330038Y-100829143D02*
X202425276Y-100876762D01*
X202425276Y-100876762D02*
X202615752Y-100924381D01*
X202615752Y-100924381D02*
X202758609Y-100924381D01*
X202758609Y-100924381D02*
X202949085Y-100876762D01*
X202949085Y-100876762D02*
X203044323Y-100829143D01*
X203044323Y-100829143D02*
X203139561Y-100733905D01*
X203139561Y-100733905D02*
X203187180Y-100591048D01*
X203187180Y-100591048D02*
X203187180Y-100495810D01*
X203187180Y-100495810D02*
X203139561Y-100352953D01*
X203139561Y-100352953D02*
X203091942Y-100305334D01*
X202187180Y-99733905D02*
X202234800Y-99829143D01*
X202234800Y-99829143D02*
X202282419Y-99876762D01*
X202282419Y-99876762D02*
X202377657Y-99924381D01*
X202377657Y-99924381D02*
X202663371Y-99924381D01*
X202663371Y-99924381D02*
X202758609Y-99876762D01*
X202758609Y-99876762D02*
X202806228Y-99829143D01*
X202806228Y-99829143D02*
X202853847Y-99733905D01*
X202853847Y-99733905D02*
X202853847Y-99591048D01*
X202853847Y-99591048D02*
X202806228Y-99495810D01*
X202806228Y-99495810D02*
X202758609Y-99448191D01*
X202758609Y-99448191D02*
X202663371Y-99400572D01*
X202663371Y-99400572D02*
X202377657Y-99400572D01*
X202377657Y-99400572D02*
X202282419Y-99448191D01*
X202282419Y-99448191D02*
X202234800Y-99495810D01*
X202234800Y-99495810D02*
X202187180Y-99591048D01*
X202187180Y-99591048D02*
X202187180Y-99733905D01*
X202853847Y-98972000D02*
X202187180Y-98972000D01*
X202758609Y-98972000D02*
X202806228Y-98924381D01*
X202806228Y-98924381D02*
X202853847Y-98829143D01*
X202853847Y-98829143D02*
X202853847Y-98686286D01*
X202853847Y-98686286D02*
X202806228Y-98591048D01*
X202806228Y-98591048D02*
X202710990Y-98543429D01*
X202710990Y-98543429D02*
X202187180Y-98543429D01*
X202853847Y-98067238D02*
X202187180Y-98067238D01*
X202758609Y-98067238D02*
X202806228Y-98019619D01*
X202806228Y-98019619D02*
X202853847Y-97924381D01*
X202853847Y-97924381D02*
X202853847Y-97781524D01*
X202853847Y-97781524D02*
X202806228Y-97686286D01*
X202806228Y-97686286D02*
X202710990Y-97638667D01*
X202710990Y-97638667D02*
X202187180Y-97638667D01*
X202234800Y-96781524D02*
X202187180Y-96876762D01*
X202187180Y-96876762D02*
X202187180Y-97067238D01*
X202187180Y-97067238D02*
X202234800Y-97162476D01*
X202234800Y-97162476D02*
X202330038Y-97210095D01*
X202330038Y-97210095D02*
X202710990Y-97210095D01*
X202710990Y-97210095D02*
X202806228Y-97162476D01*
X202806228Y-97162476D02*
X202853847Y-97067238D01*
X202853847Y-97067238D02*
X202853847Y-96876762D01*
X202853847Y-96876762D02*
X202806228Y-96781524D01*
X202806228Y-96781524D02*
X202710990Y-96733905D01*
X202710990Y-96733905D02*
X202615752Y-96733905D01*
X202615752Y-96733905D02*
X202520514Y-97210095D01*
X202234800Y-95876762D02*
X202187180Y-95972000D01*
X202187180Y-95972000D02*
X202187180Y-96162476D01*
X202187180Y-96162476D02*
X202234800Y-96257714D01*
X202234800Y-96257714D02*
X202282419Y-96305333D01*
X202282419Y-96305333D02*
X202377657Y-96352952D01*
X202377657Y-96352952D02*
X202663371Y-96352952D01*
X202663371Y-96352952D02*
X202758609Y-96305333D01*
X202758609Y-96305333D02*
X202806228Y-96257714D01*
X202806228Y-96257714D02*
X202853847Y-96162476D01*
X202853847Y-96162476D02*
X202853847Y-95972000D01*
X202853847Y-95972000D02*
X202806228Y-95876762D01*
X202853847Y-95591047D02*
X202853847Y-95210095D01*
X203187180Y-95448190D02*
X202330038Y-95448190D01*
X202330038Y-95448190D02*
X202234800Y-95400571D01*
X202234800Y-95400571D02*
X202187180Y-95305333D01*
X202187180Y-95305333D02*
X202187180Y-95210095D01*
X202710990Y-93781523D02*
X202663371Y-93638666D01*
X202663371Y-93638666D02*
X202615752Y-93591047D01*
X202615752Y-93591047D02*
X202520514Y-93543428D01*
X202520514Y-93543428D02*
X202377657Y-93543428D01*
X202377657Y-93543428D02*
X202282419Y-93591047D01*
X202282419Y-93591047D02*
X202234800Y-93638666D01*
X202234800Y-93638666D02*
X202187180Y-93733904D01*
X202187180Y-93733904D02*
X202187180Y-94114856D01*
X202187180Y-94114856D02*
X203187180Y-94114856D01*
X203187180Y-94114856D02*
X203187180Y-93781523D01*
X203187180Y-93781523D02*
X203139561Y-93686285D01*
X203139561Y-93686285D02*
X203091942Y-93638666D01*
X203091942Y-93638666D02*
X202996704Y-93591047D01*
X202996704Y-93591047D02*
X202901466Y-93591047D01*
X202901466Y-93591047D02*
X202806228Y-93638666D01*
X202806228Y-93638666D02*
X202758609Y-93686285D01*
X202758609Y-93686285D02*
X202710990Y-93781523D01*
X202710990Y-93781523D02*
X202710990Y-94114856D01*
X202187180Y-93114856D02*
X203187180Y-93114856D01*
X203187180Y-93114856D02*
X203187180Y-92876761D01*
X203187180Y-92876761D02*
X203139561Y-92733904D01*
X203139561Y-92733904D02*
X203044323Y-92638666D01*
X203044323Y-92638666D02*
X202949085Y-92591047D01*
X202949085Y-92591047D02*
X202758609Y-92543428D01*
X202758609Y-92543428D02*
X202615752Y-92543428D01*
X202615752Y-92543428D02*
X202425276Y-92591047D01*
X202425276Y-92591047D02*
X202330038Y-92638666D01*
X202330038Y-92638666D02*
X202234800Y-92733904D01*
X202234800Y-92733904D02*
X202187180Y-92876761D01*
X202187180Y-92876761D02*
X202187180Y-93114856D01*
X202187180Y-90781523D02*
X202663371Y-91114856D01*
X202187180Y-91352951D02*
X203187180Y-91352951D01*
X203187180Y-91352951D02*
X203187180Y-90971999D01*
X203187180Y-90971999D02*
X203139561Y-90876761D01*
X203139561Y-90876761D02*
X203091942Y-90829142D01*
X203091942Y-90829142D02*
X202996704Y-90781523D01*
X202996704Y-90781523D02*
X202853847Y-90781523D01*
X202853847Y-90781523D02*
X202758609Y-90829142D01*
X202758609Y-90829142D02*
X202710990Y-90876761D01*
X202710990Y-90876761D02*
X202663371Y-90971999D01*
X202663371Y-90971999D02*
X202663371Y-91352951D01*
X202234800Y-89971999D02*
X202187180Y-90067237D01*
X202187180Y-90067237D02*
X202187180Y-90257713D01*
X202187180Y-90257713D02*
X202234800Y-90352951D01*
X202234800Y-90352951D02*
X202330038Y-90400570D01*
X202330038Y-90400570D02*
X202710990Y-90400570D01*
X202710990Y-90400570D02*
X202806228Y-90352951D01*
X202806228Y-90352951D02*
X202853847Y-90257713D01*
X202853847Y-90257713D02*
X202853847Y-90067237D01*
X202853847Y-90067237D02*
X202806228Y-89971999D01*
X202806228Y-89971999D02*
X202710990Y-89924380D01*
X202710990Y-89924380D02*
X202615752Y-89924380D01*
X202615752Y-89924380D02*
X202520514Y-90400570D01*
X202187180Y-89495808D02*
X202853847Y-89495808D01*
X202758609Y-89495808D02*
X202806228Y-89448189D01*
X202806228Y-89448189D02*
X202853847Y-89352951D01*
X202853847Y-89352951D02*
X202853847Y-89210094D01*
X202853847Y-89210094D02*
X202806228Y-89114856D01*
X202806228Y-89114856D02*
X202710990Y-89067237D01*
X202710990Y-89067237D02*
X202187180Y-89067237D01*
X202710990Y-89067237D02*
X202806228Y-89019618D01*
X202806228Y-89019618D02*
X202853847Y-88924380D01*
X202853847Y-88924380D02*
X202853847Y-88781523D01*
X202853847Y-88781523D02*
X202806228Y-88686284D01*
X202806228Y-88686284D02*
X202710990Y-88638665D01*
X202710990Y-88638665D02*
X202187180Y-88638665D01*
X202187180Y-87733904D02*
X202710990Y-87733904D01*
X202710990Y-87733904D02*
X202806228Y-87781523D01*
X202806228Y-87781523D02*
X202853847Y-87876761D01*
X202853847Y-87876761D02*
X202853847Y-88067237D01*
X202853847Y-88067237D02*
X202806228Y-88162475D01*
X202234800Y-87733904D02*
X202187180Y-87829142D01*
X202187180Y-87829142D02*
X202187180Y-88067237D01*
X202187180Y-88067237D02*
X202234800Y-88162475D01*
X202234800Y-88162475D02*
X202330038Y-88210094D01*
X202330038Y-88210094D02*
X202425276Y-88210094D01*
X202425276Y-88210094D02*
X202520514Y-88162475D01*
X202520514Y-88162475D02*
X202568133Y-88067237D01*
X202568133Y-88067237D02*
X202568133Y-87829142D01*
X202568133Y-87829142D02*
X202615752Y-87733904D01*
X202187180Y-87257713D02*
X203187180Y-87257713D01*
X202568133Y-87162475D02*
X202187180Y-86876761D01*
X202853847Y-86876761D02*
X202472895Y-87257713D01*
X202234800Y-86067237D02*
X202187180Y-86162475D01*
X202187180Y-86162475D02*
X202187180Y-86352951D01*
X202187180Y-86352951D02*
X202234800Y-86448189D01*
X202234800Y-86448189D02*
X202330038Y-86495808D01*
X202330038Y-86495808D02*
X202710990Y-86495808D01*
X202710990Y-86495808D02*
X202806228Y-86448189D01*
X202806228Y-86448189D02*
X202853847Y-86352951D01*
X202853847Y-86352951D02*
X202853847Y-86162475D01*
X202853847Y-86162475D02*
X202806228Y-86067237D01*
X202806228Y-86067237D02*
X202710990Y-86019618D01*
X202710990Y-86019618D02*
X202615752Y-86019618D01*
X202615752Y-86019618D02*
X202520514Y-86495808D01*
X204797819Y-73537571D02*
X203797819Y-73537571D01*
X203797819Y-73537571D02*
X204512104Y-73837571D01*
X204512104Y-73837571D02*
X203797819Y-74137571D01*
X203797819Y-74137571D02*
X204797819Y-74137571D01*
X204797819Y-74566142D02*
X203797819Y-74566142D01*
X203797819Y-74566142D02*
X203797819Y-74780428D01*
X203797819Y-74780428D02*
X203845438Y-74908999D01*
X203845438Y-74908999D02*
X203940676Y-74994714D01*
X203940676Y-74994714D02*
X204035914Y-75037571D01*
X204035914Y-75037571D02*
X204226390Y-75080428D01*
X204226390Y-75080428D02*
X204369247Y-75080428D01*
X204369247Y-75080428D02*
X204559723Y-75037571D01*
X204559723Y-75037571D02*
X204654961Y-74994714D01*
X204654961Y-74994714D02*
X204750200Y-74908999D01*
X204750200Y-74908999D02*
X204797819Y-74780428D01*
X204797819Y-74780428D02*
X204797819Y-74566142D01*
X204274009Y-76151856D02*
X204274009Y-76451856D01*
X204797819Y-76580428D02*
X204797819Y-76151856D01*
X204797819Y-76151856D02*
X203797819Y-76151856D01*
X203797819Y-76151856D02*
X203797819Y-76580428D01*
X203797819Y-76880428D02*
X204797819Y-77480428D01*
X203797819Y-77480428D02*
X204797819Y-76880428D01*
X204797819Y-77823285D02*
X203797819Y-77823285D01*
X203797819Y-77823285D02*
X203797819Y-78166142D01*
X203797819Y-78166142D02*
X203845438Y-78251857D01*
X203845438Y-78251857D02*
X203893057Y-78294714D01*
X203893057Y-78294714D02*
X203988295Y-78337571D01*
X203988295Y-78337571D02*
X204131152Y-78337571D01*
X204131152Y-78337571D02*
X204226390Y-78294714D01*
X204226390Y-78294714D02*
X204274009Y-78251857D01*
X204274009Y-78251857D02*
X204321628Y-78166142D01*
X204321628Y-78166142D02*
X204321628Y-77823285D01*
X204512104Y-78680428D02*
X204512104Y-79109000D01*
X204797819Y-78594714D02*
X203797819Y-78894714D01*
X203797819Y-78894714D02*
X204797819Y-79194714D01*
X204797819Y-79494714D02*
X203797819Y-79494714D01*
X203797819Y-79494714D02*
X204797819Y-80009000D01*
X204797819Y-80009000D02*
X203797819Y-80009000D01*
X204750200Y-80394714D02*
X204797819Y-80523286D01*
X204797819Y-80523286D02*
X204797819Y-80737571D01*
X204797819Y-80737571D02*
X204750200Y-80823286D01*
X204750200Y-80823286D02*
X204702580Y-80866143D01*
X204702580Y-80866143D02*
X204607342Y-80909000D01*
X204607342Y-80909000D02*
X204512104Y-80909000D01*
X204512104Y-80909000D02*
X204416866Y-80866143D01*
X204416866Y-80866143D02*
X204369247Y-80823286D01*
X204369247Y-80823286D02*
X204321628Y-80737571D01*
X204321628Y-80737571D02*
X204274009Y-80566143D01*
X204274009Y-80566143D02*
X204226390Y-80480428D01*
X204226390Y-80480428D02*
X204178771Y-80437571D01*
X204178771Y-80437571D02*
X204083533Y-80394714D01*
X204083533Y-80394714D02*
X203988295Y-80394714D01*
X203988295Y-80394714D02*
X203893057Y-80437571D01*
X203893057Y-80437571D02*
X203845438Y-80480428D01*
X203845438Y-80480428D02*
X203797819Y-80566143D01*
X203797819Y-80566143D02*
X203797819Y-80780428D01*
X203797819Y-80780428D02*
X203845438Y-80909000D01*
X204797819Y-81294714D02*
X203797819Y-81294714D01*
X203797819Y-81894714D02*
X203797819Y-82066142D01*
X203797819Y-82066142D02*
X203845438Y-82151857D01*
X203845438Y-82151857D02*
X203940676Y-82237571D01*
X203940676Y-82237571D02*
X204131152Y-82280428D01*
X204131152Y-82280428D02*
X204464485Y-82280428D01*
X204464485Y-82280428D02*
X204654961Y-82237571D01*
X204654961Y-82237571D02*
X204750200Y-82151857D01*
X204750200Y-82151857D02*
X204797819Y-82066142D01*
X204797819Y-82066142D02*
X204797819Y-81894714D01*
X204797819Y-81894714D02*
X204750200Y-81809000D01*
X204750200Y-81809000D02*
X204654961Y-81723285D01*
X204654961Y-81723285D02*
X204464485Y-81680428D01*
X204464485Y-81680428D02*
X204131152Y-81680428D01*
X204131152Y-81680428D02*
X203940676Y-81723285D01*
X203940676Y-81723285D02*
X203845438Y-81809000D01*
X203845438Y-81809000D02*
X203797819Y-81894714D01*
X204797819Y-82666142D02*
X203797819Y-82666142D01*
X203797819Y-82666142D02*
X204797819Y-83180428D01*
X204797819Y-83180428D02*
X203797819Y-83180428D01*
X166821239Y-111528065D02*
X166678382Y-111575684D01*
X166678382Y-111575684D02*
X166630763Y-111623303D01*
X166630763Y-111623303D02*
X166583144Y-111718541D01*
X166583144Y-111718541D02*
X166583144Y-111861398D01*
X166583144Y-111861398D02*
X166630763Y-111956636D01*
X166630763Y-111956636D02*
X166678382Y-112004256D01*
X166678382Y-112004256D02*
X166773620Y-112051875D01*
X166773620Y-112051875D02*
X167154572Y-112051875D01*
X167154572Y-112051875D02*
X167154572Y-111051875D01*
X167154572Y-111051875D02*
X166821239Y-111051875D01*
X166821239Y-111051875D02*
X166726001Y-111099494D01*
X166726001Y-111099494D02*
X166678382Y-111147113D01*
X166678382Y-111147113D02*
X166630763Y-111242351D01*
X166630763Y-111242351D02*
X166630763Y-111337589D01*
X166630763Y-111337589D02*
X166678382Y-111432827D01*
X166678382Y-111432827D02*
X166726001Y-111480446D01*
X166726001Y-111480446D02*
X166821239Y-111528065D01*
X166821239Y-111528065D02*
X167154572Y-111528065D01*
X166011715Y-112051875D02*
X166106953Y-112004256D01*
X166106953Y-112004256D02*
X166154572Y-111956636D01*
X166154572Y-111956636D02*
X166202191Y-111861398D01*
X166202191Y-111861398D02*
X166202191Y-111575684D01*
X166202191Y-111575684D02*
X166154572Y-111480446D01*
X166154572Y-111480446D02*
X166106953Y-111432827D01*
X166106953Y-111432827D02*
X166011715Y-111385208D01*
X166011715Y-111385208D02*
X165868858Y-111385208D01*
X165868858Y-111385208D02*
X165773620Y-111432827D01*
X165773620Y-111432827D02*
X165726001Y-111480446D01*
X165726001Y-111480446D02*
X165678382Y-111575684D01*
X165678382Y-111575684D02*
X165678382Y-111861398D01*
X165678382Y-111861398D02*
X165726001Y-111956636D01*
X165726001Y-111956636D02*
X165773620Y-112004256D01*
X165773620Y-112004256D02*
X165868858Y-112051875D01*
X165868858Y-112051875D02*
X166011715Y-112051875D01*
X164821239Y-112051875D02*
X164821239Y-111528065D01*
X164821239Y-111528065D02*
X164868858Y-111432827D01*
X164868858Y-111432827D02*
X164964096Y-111385208D01*
X164964096Y-111385208D02*
X165154572Y-111385208D01*
X165154572Y-111385208D02*
X165249810Y-111432827D01*
X164821239Y-112004256D02*
X164916477Y-112051875D01*
X164916477Y-112051875D02*
X165154572Y-112051875D01*
X165154572Y-112051875D02*
X165249810Y-112004256D01*
X165249810Y-112004256D02*
X165297429Y-111909017D01*
X165297429Y-111909017D02*
X165297429Y-111813779D01*
X165297429Y-111813779D02*
X165249810Y-111718541D01*
X165249810Y-111718541D02*
X165154572Y-111670922D01*
X165154572Y-111670922D02*
X164916477Y-111670922D01*
X164916477Y-111670922D02*
X164821239Y-111623303D01*
X164345048Y-112051875D02*
X164345048Y-111385208D01*
X164345048Y-111575684D02*
X164297429Y-111480446D01*
X164297429Y-111480446D02*
X164249810Y-111432827D01*
X164249810Y-111432827D02*
X164154572Y-111385208D01*
X164154572Y-111385208D02*
X164059334Y-111385208D01*
X163297429Y-112051875D02*
X163297429Y-111051875D01*
X163297429Y-112004256D02*
X163392667Y-112051875D01*
X163392667Y-112051875D02*
X163583143Y-112051875D01*
X163583143Y-112051875D02*
X163678381Y-112004256D01*
X163678381Y-112004256D02*
X163726000Y-111956636D01*
X163726000Y-111956636D02*
X163773619Y-111861398D01*
X163773619Y-111861398D02*
X163773619Y-111575684D01*
X163773619Y-111575684D02*
X163726000Y-111480446D01*
X163726000Y-111480446D02*
X163678381Y-111432827D01*
X163678381Y-111432827D02*
X163583143Y-111385208D01*
X163583143Y-111385208D02*
X163392667Y-111385208D01*
X163392667Y-111385208D02*
X163297429Y-111432827D01*
X161726000Y-111528065D02*
X162059333Y-111528065D01*
X162059333Y-112051875D02*
X162059333Y-111051875D01*
X162059333Y-111051875D02*
X161583143Y-111051875D01*
X161059333Y-112051875D02*
X161154571Y-112004256D01*
X161154571Y-112004256D02*
X161202190Y-111956636D01*
X161202190Y-111956636D02*
X161249809Y-111861398D01*
X161249809Y-111861398D02*
X161249809Y-111575684D01*
X161249809Y-111575684D02*
X161202190Y-111480446D01*
X161202190Y-111480446D02*
X161154571Y-111432827D01*
X161154571Y-111432827D02*
X161059333Y-111385208D01*
X161059333Y-111385208D02*
X160916476Y-111385208D01*
X160916476Y-111385208D02*
X160821238Y-111432827D01*
X160821238Y-111432827D02*
X160773619Y-111480446D01*
X160773619Y-111480446D02*
X160726000Y-111575684D01*
X160726000Y-111575684D02*
X160726000Y-111861398D01*
X160726000Y-111861398D02*
X160773619Y-111956636D01*
X160773619Y-111956636D02*
X160821238Y-112004256D01*
X160821238Y-112004256D02*
X160916476Y-112051875D01*
X160916476Y-112051875D02*
X161059333Y-112051875D01*
X160154571Y-112051875D02*
X160249809Y-112004256D01*
X160249809Y-112004256D02*
X160297428Y-111909017D01*
X160297428Y-111909017D02*
X160297428Y-111051875D01*
X159773618Y-112051875D02*
X159773618Y-111051875D01*
X159678380Y-111670922D02*
X159392666Y-112051875D01*
X159392666Y-111385208D02*
X159773618Y-111766160D01*
X158345046Y-111051875D02*
X157773618Y-111051875D01*
X158059332Y-112051875D02*
X158059332Y-111051875D01*
X157059332Y-112004256D02*
X157154570Y-112051875D01*
X157154570Y-112051875D02*
X157345046Y-112051875D01*
X157345046Y-112051875D02*
X157440284Y-112004256D01*
X157440284Y-112004256D02*
X157487903Y-111909017D01*
X157487903Y-111909017D02*
X157487903Y-111528065D01*
X157487903Y-111528065D02*
X157440284Y-111432827D01*
X157440284Y-111432827D02*
X157345046Y-111385208D01*
X157345046Y-111385208D02*
X157154570Y-111385208D01*
X157154570Y-111385208D02*
X157059332Y-111432827D01*
X157059332Y-111432827D02*
X157011713Y-111528065D01*
X157011713Y-111528065D02*
X157011713Y-111623303D01*
X157011713Y-111623303D02*
X157487903Y-111718541D01*
X156154570Y-112051875D02*
X156154570Y-111528065D01*
X156154570Y-111528065D02*
X156202189Y-111432827D01*
X156202189Y-111432827D02*
X156297427Y-111385208D01*
X156297427Y-111385208D02*
X156487903Y-111385208D01*
X156487903Y-111385208D02*
X156583141Y-111432827D01*
X156154570Y-112004256D02*
X156249808Y-112051875D01*
X156249808Y-112051875D02*
X156487903Y-112051875D01*
X156487903Y-112051875D02*
X156583141Y-112004256D01*
X156583141Y-112004256D02*
X156630760Y-111909017D01*
X156630760Y-111909017D02*
X156630760Y-111813779D01*
X156630760Y-111813779D02*
X156583141Y-111718541D01*
X156583141Y-111718541D02*
X156487903Y-111670922D01*
X156487903Y-111670922D02*
X156249808Y-111670922D01*
X156249808Y-111670922D02*
X156154570Y-111623303D01*
X155678379Y-112051875D02*
X155678379Y-111385208D01*
X155678379Y-111480446D02*
X155630760Y-111432827D01*
X155630760Y-111432827D02*
X155535522Y-111385208D01*
X155535522Y-111385208D02*
X155392665Y-111385208D01*
X155392665Y-111385208D02*
X155297427Y-111432827D01*
X155297427Y-111432827D02*
X155249808Y-111528065D01*
X155249808Y-111528065D02*
X155249808Y-112051875D01*
X155249808Y-111528065D02*
X155202189Y-111432827D01*
X155202189Y-111432827D02*
X155106951Y-111385208D01*
X155106951Y-111385208D02*
X154964094Y-111385208D01*
X154964094Y-111385208D02*
X154868855Y-111432827D01*
X154868855Y-111432827D02*
X154821236Y-111528065D01*
X154821236Y-111528065D02*
X154821236Y-112051875D01*
X153392665Y-111051875D02*
X153297427Y-111051875D01*
X153297427Y-111051875D02*
X153202189Y-111099494D01*
X153202189Y-111099494D02*
X153154570Y-111147113D01*
X153154570Y-111147113D02*
X153106951Y-111242351D01*
X153106951Y-111242351D02*
X153059332Y-111432827D01*
X153059332Y-111432827D02*
X153059332Y-111670922D01*
X153059332Y-111670922D02*
X153106951Y-111861398D01*
X153106951Y-111861398D02*
X153154570Y-111956636D01*
X153154570Y-111956636D02*
X153202189Y-112004256D01*
X153202189Y-112004256D02*
X153297427Y-112051875D01*
X153297427Y-112051875D02*
X153392665Y-112051875D01*
X153392665Y-112051875D02*
X153487903Y-112004256D01*
X153487903Y-112004256D02*
X153535522Y-111956636D01*
X153535522Y-111956636D02*
X153583141Y-111861398D01*
X153583141Y-111861398D02*
X153630760Y-111670922D01*
X153630760Y-111670922D02*
X153630760Y-111432827D01*
X153630760Y-111432827D02*
X153583141Y-111242351D01*
X153583141Y-111242351D02*
X153535522Y-111147113D01*
X153535522Y-111147113D02*
X153487903Y-111099494D01*
X153487903Y-111099494D02*
X153392665Y-111051875D01*
X152106951Y-112051875D02*
X152678379Y-112051875D01*
X152392665Y-112051875D02*
X152392665Y-111051875D01*
X152392665Y-111051875D02*
X152487903Y-111194732D01*
X152487903Y-111194732D02*
X152583141Y-111289970D01*
X152583141Y-111289970D02*
X152678379Y-111337589D01*
X150964094Y-111004256D02*
X151821236Y-112289970D01*
X150678379Y-111147113D02*
X150630760Y-111099494D01*
X150630760Y-111099494D02*
X150535522Y-111051875D01*
X150535522Y-111051875D02*
X150297427Y-111051875D01*
X150297427Y-111051875D02*
X150202189Y-111099494D01*
X150202189Y-111099494D02*
X150154570Y-111147113D01*
X150154570Y-111147113D02*
X150106951Y-111242351D01*
X150106951Y-111242351D02*
X150106951Y-111337589D01*
X150106951Y-111337589D02*
X150154570Y-111480446D01*
X150154570Y-111480446D02*
X150725998Y-112051875D01*
X150725998Y-112051875D02*
X150106951Y-112051875D01*
X149487903Y-111051875D02*
X149392665Y-111051875D01*
X149392665Y-111051875D02*
X149297427Y-111099494D01*
X149297427Y-111099494D02*
X149249808Y-111147113D01*
X149249808Y-111147113D02*
X149202189Y-111242351D01*
X149202189Y-111242351D02*
X149154570Y-111432827D01*
X149154570Y-111432827D02*
X149154570Y-111670922D01*
X149154570Y-111670922D02*
X149202189Y-111861398D01*
X149202189Y-111861398D02*
X149249808Y-111956636D01*
X149249808Y-111956636D02*
X149297427Y-112004256D01*
X149297427Y-112004256D02*
X149392665Y-112051875D01*
X149392665Y-112051875D02*
X149487903Y-112051875D01*
X149487903Y-112051875D02*
X149583141Y-112004256D01*
X149583141Y-112004256D02*
X149630760Y-111956636D01*
X149630760Y-111956636D02*
X149678379Y-111861398D01*
X149678379Y-111861398D02*
X149725998Y-111670922D01*
X149725998Y-111670922D02*
X149725998Y-111432827D01*
X149725998Y-111432827D02*
X149678379Y-111242351D01*
X149678379Y-111242351D02*
X149630760Y-111147113D01*
X149630760Y-111147113D02*
X149583141Y-111099494D01*
X149583141Y-111099494D02*
X149487903Y-111051875D01*
X148773617Y-111147113D02*
X148725998Y-111099494D01*
X148725998Y-111099494D02*
X148630760Y-111051875D01*
X148630760Y-111051875D02*
X148392665Y-111051875D01*
X148392665Y-111051875D02*
X148297427Y-111099494D01*
X148297427Y-111099494D02*
X148249808Y-111147113D01*
X148249808Y-111147113D02*
X148202189Y-111242351D01*
X148202189Y-111242351D02*
X148202189Y-111337589D01*
X148202189Y-111337589D02*
X148249808Y-111480446D01*
X148249808Y-111480446D02*
X148821236Y-112051875D01*
X148821236Y-112051875D02*
X148202189Y-112051875D01*
X147345046Y-111051875D02*
X147535522Y-111051875D01*
X147535522Y-111051875D02*
X147630760Y-111099494D01*
X147630760Y-111099494D02*
X147678379Y-111147113D01*
X147678379Y-111147113D02*
X147773617Y-111289970D01*
X147773617Y-111289970D02*
X147821236Y-111480446D01*
X147821236Y-111480446D02*
X147821236Y-111861398D01*
X147821236Y-111861398D02*
X147773617Y-111956636D01*
X147773617Y-111956636D02*
X147725998Y-112004256D01*
X147725998Y-112004256D02*
X147630760Y-112051875D01*
X147630760Y-112051875D02*
X147440284Y-112051875D01*
X147440284Y-112051875D02*
X147345046Y-112004256D01*
X147345046Y-112004256D02*
X147297427Y-111956636D01*
X147297427Y-111956636D02*
X147249808Y-111861398D01*
X147249808Y-111861398D02*
X147249808Y-111623303D01*
X147249808Y-111623303D02*
X147297427Y-111528065D01*
X147297427Y-111528065D02*
X147345046Y-111480446D01*
X147345046Y-111480446D02*
X147440284Y-111432827D01*
X147440284Y-111432827D02*
X147630760Y-111432827D01*
X147630760Y-111432827D02*
X147725998Y-111480446D01*
X147725998Y-111480446D02*
X147773617Y-111528065D01*
X147773617Y-111528065D02*
X147821236Y-111623303D01*
X176130764Y-112661819D02*
X175892669Y-113661819D01*
X175892669Y-113661819D02*
X175702193Y-112947533D01*
X175702193Y-112947533D02*
X175511717Y-113661819D01*
X175511717Y-113661819D02*
X175273622Y-112661819D01*
X174892669Y-113661819D02*
X174892669Y-112995152D01*
X174892669Y-112661819D02*
X174940288Y-112709438D01*
X174940288Y-112709438D02*
X174892669Y-112757057D01*
X174892669Y-112757057D02*
X174845050Y-112709438D01*
X174845050Y-112709438D02*
X174892669Y-112661819D01*
X174892669Y-112661819D02*
X174892669Y-112757057D01*
X174559336Y-112995152D02*
X174178384Y-112995152D01*
X174416479Y-112661819D02*
X174416479Y-113518961D01*
X174416479Y-113518961D02*
X174368860Y-113614200D01*
X174368860Y-113614200D02*
X174273622Y-113661819D01*
X174273622Y-113661819D02*
X174178384Y-113661819D01*
X173845050Y-113661819D02*
X173845050Y-112661819D01*
X173416479Y-113661819D02*
X173416479Y-113138009D01*
X173416479Y-113138009D02*
X173464098Y-113042771D01*
X173464098Y-113042771D02*
X173559336Y-112995152D01*
X173559336Y-112995152D02*
X173702193Y-112995152D01*
X173702193Y-112995152D02*
X173797431Y-113042771D01*
X173797431Y-113042771D02*
X173845050Y-113090390D01*
X172321240Y-112661819D02*
X171749812Y-112661819D01*
X172035526Y-113661819D02*
X172035526Y-112661819D01*
X171416478Y-113661819D02*
X171416478Y-112661819D01*
X170987907Y-113661819D02*
X170987907Y-113138009D01*
X170987907Y-113138009D02*
X171035526Y-113042771D01*
X171035526Y-113042771D02*
X171130764Y-112995152D01*
X171130764Y-112995152D02*
X171273621Y-112995152D01*
X171273621Y-112995152D02*
X171368859Y-113042771D01*
X171368859Y-113042771D02*
X171416478Y-113090390D01*
X170083145Y-113661819D02*
X170083145Y-113138009D01*
X170083145Y-113138009D02*
X170130764Y-113042771D01*
X170130764Y-113042771D02*
X170226002Y-112995152D01*
X170226002Y-112995152D02*
X170416478Y-112995152D01*
X170416478Y-112995152D02*
X170511716Y-113042771D01*
X170083145Y-113614200D02*
X170178383Y-113661819D01*
X170178383Y-113661819D02*
X170416478Y-113661819D01*
X170416478Y-113661819D02*
X170511716Y-113614200D01*
X170511716Y-113614200D02*
X170559335Y-113518961D01*
X170559335Y-113518961D02*
X170559335Y-113423723D01*
X170559335Y-113423723D02*
X170511716Y-113328485D01*
X170511716Y-113328485D02*
X170416478Y-113280866D01*
X170416478Y-113280866D02*
X170178383Y-113280866D01*
X170178383Y-113280866D02*
X170083145Y-113233247D01*
X169606954Y-112995152D02*
X169606954Y-113661819D01*
X169606954Y-113090390D02*
X169559335Y-113042771D01*
X169559335Y-113042771D02*
X169464097Y-112995152D01*
X169464097Y-112995152D02*
X169321240Y-112995152D01*
X169321240Y-112995152D02*
X169226002Y-113042771D01*
X169226002Y-113042771D02*
X169178383Y-113138009D01*
X169178383Y-113138009D02*
X169178383Y-113661819D01*
X168702192Y-113661819D02*
X168702192Y-112661819D01*
X168606954Y-113280866D02*
X168321240Y-113661819D01*
X168321240Y-112995152D02*
X168702192Y-113376104D01*
X167940287Y-113614200D02*
X167845049Y-113661819D01*
X167845049Y-113661819D02*
X167654573Y-113661819D01*
X167654573Y-113661819D02*
X167559335Y-113614200D01*
X167559335Y-113614200D02*
X167511716Y-113518961D01*
X167511716Y-113518961D02*
X167511716Y-113471342D01*
X167511716Y-113471342D02*
X167559335Y-113376104D01*
X167559335Y-113376104D02*
X167654573Y-113328485D01*
X167654573Y-113328485D02*
X167797430Y-113328485D01*
X167797430Y-113328485D02*
X167892668Y-113280866D01*
X167892668Y-113280866D02*
X167940287Y-113185628D01*
X167940287Y-113185628D02*
X167940287Y-113138009D01*
X167940287Y-113138009D02*
X167892668Y-113042771D01*
X167892668Y-113042771D02*
X167797430Y-112995152D01*
X167797430Y-112995152D02*
X167654573Y-112995152D01*
X167654573Y-112995152D02*
X167559335Y-113042771D01*
X166464096Y-112995152D02*
X166083144Y-112995152D01*
X166321239Y-112661819D02*
X166321239Y-113518961D01*
X166321239Y-113518961D02*
X166273620Y-113614200D01*
X166273620Y-113614200D02*
X166178382Y-113661819D01*
X166178382Y-113661819D02*
X166083144Y-113661819D01*
X165606953Y-113661819D02*
X165702191Y-113614200D01*
X165702191Y-113614200D02*
X165749810Y-113566580D01*
X165749810Y-113566580D02*
X165797429Y-113471342D01*
X165797429Y-113471342D02*
X165797429Y-113185628D01*
X165797429Y-113185628D02*
X165749810Y-113090390D01*
X165749810Y-113090390D02*
X165702191Y-113042771D01*
X165702191Y-113042771D02*
X165606953Y-112995152D01*
X165606953Y-112995152D02*
X165464096Y-112995152D01*
X165464096Y-112995152D02*
X165368858Y-113042771D01*
X165368858Y-113042771D02*
X165321239Y-113090390D01*
X165321239Y-113090390D02*
X165273620Y-113185628D01*
X165273620Y-113185628D02*
X165273620Y-113471342D01*
X165273620Y-113471342D02*
X165321239Y-113566580D01*
X165321239Y-113566580D02*
X165368858Y-113614200D01*
X165368858Y-113614200D02*
X165464096Y-113661819D01*
X165464096Y-113661819D02*
X165606953Y-113661819D01*
X163464096Y-113185628D02*
X163511715Y-113138009D01*
X163511715Y-113138009D02*
X163606953Y-113090390D01*
X163606953Y-113090390D02*
X163702191Y-113090390D01*
X163702191Y-113090390D02*
X163797429Y-113138009D01*
X163797429Y-113138009D02*
X163845048Y-113185628D01*
X163845048Y-113185628D02*
X163892667Y-113280866D01*
X163892667Y-113280866D02*
X163892667Y-113376104D01*
X163892667Y-113376104D02*
X163845048Y-113471342D01*
X163845048Y-113471342D02*
X163797429Y-113518961D01*
X163797429Y-113518961D02*
X163702191Y-113566580D01*
X163702191Y-113566580D02*
X163606953Y-113566580D01*
X163606953Y-113566580D02*
X163511715Y-113518961D01*
X163511715Y-113518961D02*
X163464096Y-113471342D01*
X163464096Y-113090390D02*
X163464096Y-113471342D01*
X163464096Y-113471342D02*
X163416477Y-113518961D01*
X163416477Y-113518961D02*
X163368858Y-113518961D01*
X163368858Y-113518961D02*
X163273619Y-113471342D01*
X163273619Y-113471342D02*
X163226000Y-113376104D01*
X163226000Y-113376104D02*
X163226000Y-113138009D01*
X163226000Y-113138009D02*
X163321239Y-112995152D01*
X163321239Y-112995152D02*
X163464096Y-112899914D01*
X163464096Y-112899914D02*
X163654572Y-112852295D01*
X163654572Y-112852295D02*
X163845048Y-112899914D01*
X163845048Y-112899914D02*
X163987905Y-112995152D01*
X163987905Y-112995152D02*
X164083143Y-113138009D01*
X164083143Y-113138009D02*
X164130762Y-113328485D01*
X164130762Y-113328485D02*
X164083143Y-113518961D01*
X164083143Y-113518961D02*
X163987905Y-113661819D01*
X163987905Y-113661819D02*
X163845048Y-113757057D01*
X163845048Y-113757057D02*
X163654572Y-113804676D01*
X163654572Y-113804676D02*
X163464096Y-113757057D01*
X163464096Y-113757057D02*
X163321239Y-113661819D01*
X162940286Y-112995152D02*
X162559334Y-112995152D01*
X162797429Y-113661819D02*
X162797429Y-112804676D01*
X162797429Y-112804676D02*
X162749810Y-112709438D01*
X162749810Y-112709438D02*
X162654572Y-112661819D01*
X162654572Y-112661819D02*
X162559334Y-112661819D01*
X161797429Y-113661819D02*
X161797429Y-113138009D01*
X161797429Y-113138009D02*
X161845048Y-113042771D01*
X161845048Y-113042771D02*
X161940286Y-112995152D01*
X161940286Y-112995152D02*
X162130762Y-112995152D01*
X162130762Y-112995152D02*
X162226000Y-113042771D01*
X161797429Y-113614200D02*
X161892667Y-113661819D01*
X161892667Y-113661819D02*
X162130762Y-113661819D01*
X162130762Y-113661819D02*
X162226000Y-113614200D01*
X162226000Y-113614200D02*
X162273619Y-113518961D01*
X162273619Y-113518961D02*
X162273619Y-113423723D01*
X162273619Y-113423723D02*
X162226000Y-113328485D01*
X162226000Y-113328485D02*
X162130762Y-113280866D01*
X162130762Y-113280866D02*
X161892667Y-113280866D01*
X161892667Y-113280866D02*
X161797429Y-113233247D01*
X161321238Y-113661819D02*
X161321238Y-112661819D01*
X161321238Y-113042771D02*
X161226000Y-112995152D01*
X161226000Y-112995152D02*
X161035524Y-112995152D01*
X161035524Y-112995152D02*
X160940286Y-113042771D01*
X160940286Y-113042771D02*
X160892667Y-113090390D01*
X160892667Y-113090390D02*
X160845048Y-113185628D01*
X160845048Y-113185628D02*
X160845048Y-113471342D01*
X160845048Y-113471342D02*
X160892667Y-113566580D01*
X160892667Y-113566580D02*
X160940286Y-113614200D01*
X160940286Y-113614200D02*
X161035524Y-113661819D01*
X161035524Y-113661819D02*
X161226000Y-113661819D01*
X161226000Y-113661819D02*
X161321238Y-113614200D01*
X160416476Y-113661819D02*
X160416476Y-112995152D01*
X160416476Y-112661819D02*
X160464095Y-112709438D01*
X160464095Y-112709438D02*
X160416476Y-112757057D01*
X160416476Y-112757057D02*
X160368857Y-112709438D01*
X160368857Y-112709438D02*
X160416476Y-112661819D01*
X160416476Y-112661819D02*
X160416476Y-112757057D01*
X159797429Y-113661819D02*
X159892667Y-113614200D01*
X159892667Y-113614200D02*
X159940286Y-113566580D01*
X159940286Y-113566580D02*
X159987905Y-113471342D01*
X159987905Y-113471342D02*
X159987905Y-113185628D01*
X159987905Y-113185628D02*
X159940286Y-113090390D01*
X159940286Y-113090390D02*
X159892667Y-113042771D01*
X159892667Y-113042771D02*
X159797429Y-112995152D01*
X159797429Y-112995152D02*
X159654572Y-112995152D01*
X159654572Y-112995152D02*
X159559334Y-113042771D01*
X159559334Y-113042771D02*
X159511715Y-113090390D01*
X159511715Y-113090390D02*
X159464096Y-113185628D01*
X159464096Y-113185628D02*
X159464096Y-113471342D01*
X159464096Y-113471342D02*
X159511715Y-113566580D01*
X159511715Y-113566580D02*
X159559334Y-113614200D01*
X159559334Y-113614200D02*
X159654572Y-113661819D01*
X159654572Y-113661819D02*
X159797429Y-113661819D01*
X158606953Y-113661819D02*
X158606953Y-112661819D01*
X158606953Y-113614200D02*
X158702191Y-113661819D01*
X158702191Y-113661819D02*
X158892667Y-113661819D01*
X158892667Y-113661819D02*
X158987905Y-113614200D01*
X158987905Y-113614200D02*
X159035524Y-113566580D01*
X159035524Y-113566580D02*
X159083143Y-113471342D01*
X159083143Y-113471342D02*
X159083143Y-113185628D01*
X159083143Y-113185628D02*
X159035524Y-113090390D01*
X159035524Y-113090390D02*
X158987905Y-113042771D01*
X158987905Y-113042771D02*
X158892667Y-112995152D01*
X158892667Y-112995152D02*
X158702191Y-112995152D01*
X158702191Y-112995152D02*
X158606953Y-113042771D01*
X157987905Y-113661819D02*
X158083143Y-113614200D01*
X158083143Y-113614200D02*
X158130762Y-113518961D01*
X158130762Y-113518961D02*
X158130762Y-112661819D01*
X156987904Y-112995152D02*
X156606952Y-112995152D01*
X156845047Y-113661819D02*
X156845047Y-112804676D01*
X156845047Y-112804676D02*
X156797428Y-112709438D01*
X156797428Y-112709438D02*
X156702190Y-112661819D01*
X156702190Y-112661819D02*
X156606952Y-112661819D01*
X156130761Y-113661819D02*
X156225999Y-113614200D01*
X156225999Y-113614200D02*
X156273618Y-113566580D01*
X156273618Y-113566580D02*
X156321237Y-113471342D01*
X156321237Y-113471342D02*
X156321237Y-113185628D01*
X156321237Y-113185628D02*
X156273618Y-113090390D01*
X156273618Y-113090390D02*
X156225999Y-113042771D01*
X156225999Y-113042771D02*
X156130761Y-112995152D01*
X156130761Y-112995152D02*
X155987904Y-112995152D01*
X155987904Y-112995152D02*
X155892666Y-113042771D01*
X155892666Y-113042771D02*
X155845047Y-113090390D01*
X155845047Y-113090390D02*
X155797428Y-113185628D01*
X155797428Y-113185628D02*
X155797428Y-113471342D01*
X155797428Y-113471342D02*
X155845047Y-113566580D01*
X155845047Y-113566580D02*
X155892666Y-113614200D01*
X155892666Y-113614200D02*
X155987904Y-113661819D01*
X155987904Y-113661819D02*
X156130761Y-113661819D01*
X155368856Y-113661819D02*
X155368856Y-112995152D01*
X155368856Y-113185628D02*
X155321237Y-113090390D01*
X155321237Y-113090390D02*
X155273618Y-113042771D01*
X155273618Y-113042771D02*
X155178380Y-112995152D01*
X155178380Y-112995152D02*
X155083142Y-112995152D01*
X153559332Y-113661819D02*
X153559332Y-112661819D01*
X153559332Y-113614200D02*
X153654570Y-113661819D01*
X153654570Y-113661819D02*
X153845046Y-113661819D01*
X153845046Y-113661819D02*
X153940284Y-113614200D01*
X153940284Y-113614200D02*
X153987903Y-113566580D01*
X153987903Y-113566580D02*
X154035522Y-113471342D01*
X154035522Y-113471342D02*
X154035522Y-113185628D01*
X154035522Y-113185628D02*
X153987903Y-113090390D01*
X153987903Y-113090390D02*
X153940284Y-113042771D01*
X153940284Y-113042771D02*
X153845046Y-112995152D01*
X153845046Y-112995152D02*
X153654570Y-112995152D01*
X153654570Y-112995152D02*
X153559332Y-113042771D01*
X152702189Y-113614200D02*
X152797427Y-113661819D01*
X152797427Y-113661819D02*
X152987903Y-113661819D01*
X152987903Y-113661819D02*
X153083141Y-113614200D01*
X153083141Y-113614200D02*
X153130760Y-113518961D01*
X153130760Y-113518961D02*
X153130760Y-113138009D01*
X153130760Y-113138009D02*
X153083141Y-113042771D01*
X153083141Y-113042771D02*
X152987903Y-112995152D01*
X152987903Y-112995152D02*
X152797427Y-112995152D01*
X152797427Y-112995152D02*
X152702189Y-113042771D01*
X152702189Y-113042771D02*
X152654570Y-113138009D01*
X152654570Y-113138009D02*
X152654570Y-113233247D01*
X152654570Y-113233247D02*
X153130760Y-113328485D01*
X151797427Y-113614200D02*
X151892665Y-113661819D01*
X151892665Y-113661819D02*
X152083141Y-113661819D01*
X152083141Y-113661819D02*
X152178379Y-113614200D01*
X152178379Y-113614200D02*
X152225998Y-113566580D01*
X152225998Y-113566580D02*
X152273617Y-113471342D01*
X152273617Y-113471342D02*
X152273617Y-113185628D01*
X152273617Y-113185628D02*
X152225998Y-113090390D01*
X152225998Y-113090390D02*
X152178379Y-113042771D01*
X152178379Y-113042771D02*
X152083141Y-112995152D01*
X152083141Y-112995152D02*
X151892665Y-112995152D01*
X151892665Y-112995152D02*
X151797427Y-113042771D01*
X151225998Y-113661819D02*
X151321236Y-113614200D01*
X151321236Y-113614200D02*
X151368855Y-113566580D01*
X151368855Y-113566580D02*
X151416474Y-113471342D01*
X151416474Y-113471342D02*
X151416474Y-113185628D01*
X151416474Y-113185628D02*
X151368855Y-113090390D01*
X151368855Y-113090390D02*
X151321236Y-113042771D01*
X151321236Y-113042771D02*
X151225998Y-112995152D01*
X151225998Y-112995152D02*
X151083141Y-112995152D01*
X151083141Y-112995152D02*
X150987903Y-113042771D01*
X150987903Y-113042771D02*
X150940284Y-113090390D01*
X150940284Y-113090390D02*
X150892665Y-113185628D01*
X150892665Y-113185628D02*
X150892665Y-113471342D01*
X150892665Y-113471342D02*
X150940284Y-113566580D01*
X150940284Y-113566580D02*
X150987903Y-113614200D01*
X150987903Y-113614200D02*
X151083141Y-113661819D01*
X151083141Y-113661819D02*
X151225998Y-113661819D01*
X150035522Y-113661819D02*
X150035522Y-112661819D01*
X150035522Y-113614200D02*
X150130760Y-113661819D01*
X150130760Y-113661819D02*
X150321236Y-113661819D01*
X150321236Y-113661819D02*
X150416474Y-113614200D01*
X150416474Y-113614200D02*
X150464093Y-113566580D01*
X150464093Y-113566580D02*
X150511712Y-113471342D01*
X150511712Y-113471342D02*
X150511712Y-113185628D01*
X150511712Y-113185628D02*
X150464093Y-113090390D01*
X150464093Y-113090390D02*
X150416474Y-113042771D01*
X150416474Y-113042771D02*
X150321236Y-112995152D01*
X150321236Y-112995152D02*
X150130760Y-112995152D01*
X150130760Y-112995152D02*
X150035522Y-113042771D01*
X149559331Y-113661819D02*
X149559331Y-112995152D01*
X149559331Y-112661819D02*
X149606950Y-112709438D01*
X149606950Y-112709438D02*
X149559331Y-112757057D01*
X149559331Y-112757057D02*
X149511712Y-112709438D01*
X149511712Y-112709438D02*
X149559331Y-112661819D01*
X149559331Y-112661819D02*
X149559331Y-112757057D01*
X149083141Y-112995152D02*
X149083141Y-113661819D01*
X149083141Y-113090390D02*
X149035522Y-113042771D01*
X149035522Y-113042771D02*
X148940284Y-112995152D01*
X148940284Y-112995152D02*
X148797427Y-112995152D01*
X148797427Y-112995152D02*
X148702189Y-113042771D01*
X148702189Y-113042771D02*
X148654570Y-113138009D01*
X148654570Y-113138009D02*
X148654570Y-113661819D01*
X147749808Y-112995152D02*
X147749808Y-113804676D01*
X147749808Y-113804676D02*
X147797427Y-113899914D01*
X147797427Y-113899914D02*
X147845046Y-113947533D01*
X147845046Y-113947533D02*
X147940284Y-113995152D01*
X147940284Y-113995152D02*
X148083141Y-113995152D01*
X148083141Y-113995152D02*
X148178379Y-113947533D01*
X147749808Y-113614200D02*
X147845046Y-113661819D01*
X147845046Y-113661819D02*
X148035522Y-113661819D01*
X148035522Y-113661819D02*
X148130760Y-113614200D01*
X148130760Y-113614200D02*
X148178379Y-113566580D01*
X148178379Y-113566580D02*
X148225998Y-113471342D01*
X148225998Y-113471342D02*
X148225998Y-113185628D01*
X148225998Y-113185628D02*
X148178379Y-113090390D01*
X148178379Y-113090390D02*
X148130760Y-113042771D01*
X148130760Y-113042771D02*
X148035522Y-112995152D01*
X148035522Y-112995152D02*
X147845046Y-112995152D01*
X147845046Y-112995152D02*
X147749808Y-113042771D01*
X146654569Y-112995152D02*
X146273617Y-112995152D01*
X146511712Y-112661819D02*
X146511712Y-113518961D01*
X146511712Y-113518961D02*
X146464093Y-113614200D01*
X146464093Y-113614200D02*
X146368855Y-113661819D01*
X146368855Y-113661819D02*
X146273617Y-113661819D01*
X145940283Y-113661819D02*
X145940283Y-112661819D01*
X145511712Y-113661819D02*
X145511712Y-113138009D01*
X145511712Y-113138009D02*
X145559331Y-113042771D01*
X145559331Y-113042771D02*
X145654569Y-112995152D01*
X145654569Y-112995152D02*
X145797426Y-112995152D01*
X145797426Y-112995152D02*
X145892664Y-113042771D01*
X145892664Y-113042771D02*
X145940283Y-113090390D01*
X144654569Y-113614200D02*
X144749807Y-113661819D01*
X144749807Y-113661819D02*
X144940283Y-113661819D01*
X144940283Y-113661819D02*
X145035521Y-113614200D01*
X145035521Y-113614200D02*
X145083140Y-113518961D01*
X145083140Y-113518961D02*
X145083140Y-113138009D01*
X145083140Y-113138009D02*
X145035521Y-113042771D01*
X145035521Y-113042771D02*
X144940283Y-112995152D01*
X144940283Y-112995152D02*
X144749807Y-112995152D01*
X144749807Y-112995152D02*
X144654569Y-113042771D01*
X144654569Y-113042771D02*
X144606950Y-113138009D01*
X144606950Y-113138009D02*
X144606950Y-113233247D01*
X144606950Y-113233247D02*
X145083140Y-113328485D01*
X143416473Y-113661819D02*
X143416473Y-112661819D01*
X143416473Y-112661819D02*
X143035521Y-112661819D01*
X143035521Y-112661819D02*
X142940283Y-112709438D01*
X142940283Y-112709438D02*
X142892664Y-112757057D01*
X142892664Y-112757057D02*
X142845045Y-112852295D01*
X142845045Y-112852295D02*
X142845045Y-112995152D01*
X142845045Y-112995152D02*
X142892664Y-113090390D01*
X142892664Y-113090390D02*
X142940283Y-113138009D01*
X142940283Y-113138009D02*
X143035521Y-113185628D01*
X143035521Y-113185628D02*
X143416473Y-113185628D01*
X142035521Y-113614200D02*
X142130759Y-113661819D01*
X142130759Y-113661819D02*
X142321235Y-113661819D01*
X142321235Y-113661819D02*
X142416473Y-113614200D01*
X142416473Y-113614200D02*
X142464092Y-113518961D01*
X142464092Y-113518961D02*
X142464092Y-113138009D01*
X142464092Y-113138009D02*
X142416473Y-113042771D01*
X142416473Y-113042771D02*
X142321235Y-112995152D01*
X142321235Y-112995152D02*
X142130759Y-112995152D01*
X142130759Y-112995152D02*
X142035521Y-113042771D01*
X142035521Y-113042771D02*
X141987902Y-113138009D01*
X141987902Y-113138009D02*
X141987902Y-113233247D01*
X141987902Y-113233247D02*
X142464092Y-113328485D01*
X141178378Y-113614200D02*
X141273616Y-113661819D01*
X141273616Y-113661819D02*
X141464092Y-113661819D01*
X141464092Y-113661819D02*
X141559330Y-113614200D01*
X141559330Y-113614200D02*
X141606949Y-113518961D01*
X141606949Y-113518961D02*
X141606949Y-113138009D01*
X141606949Y-113138009D02*
X141559330Y-113042771D01*
X141559330Y-113042771D02*
X141464092Y-112995152D01*
X141464092Y-112995152D02*
X141273616Y-112995152D01*
X141273616Y-112995152D02*
X141178378Y-113042771D01*
X141178378Y-113042771D02*
X141130759Y-113138009D01*
X141130759Y-113138009D02*
X141130759Y-113233247D01*
X141130759Y-113233247D02*
X141606949Y-113328485D01*
X140559330Y-113661819D02*
X140654568Y-113614200D01*
X140654568Y-113614200D02*
X140702187Y-113518961D01*
X140702187Y-113518961D02*
X140702187Y-112661819D01*
X139416472Y-113661819D02*
X139416472Y-112661819D01*
X138368854Y-113566580D02*
X138416473Y-113614200D01*
X138416473Y-113614200D02*
X138559330Y-113661819D01*
X138559330Y-113661819D02*
X138654568Y-113661819D01*
X138654568Y-113661819D02*
X138797425Y-113614200D01*
X138797425Y-113614200D02*
X138892663Y-113518961D01*
X138892663Y-113518961D02*
X138940282Y-113423723D01*
X138940282Y-113423723D02*
X138987901Y-113233247D01*
X138987901Y-113233247D02*
X138987901Y-113090390D01*
X138987901Y-113090390D02*
X138940282Y-112899914D01*
X138940282Y-112899914D02*
X138892663Y-112804676D01*
X138892663Y-112804676D02*
X138797425Y-112709438D01*
X138797425Y-112709438D02*
X138654568Y-112661819D01*
X138654568Y-112661819D02*
X138559330Y-112661819D01*
X138559330Y-112661819D02*
X138416473Y-112709438D01*
X138416473Y-112709438D02*
X138368854Y-112757057D01*
X115018666Y-100871580D02*
X115066285Y-100919200D01*
X115066285Y-100919200D02*
X115209142Y-100966819D01*
X115209142Y-100966819D02*
X115304380Y-100966819D01*
X115304380Y-100966819D02*
X115447237Y-100919200D01*
X115447237Y-100919200D02*
X115542475Y-100823961D01*
X115542475Y-100823961D02*
X115590094Y-100728723D01*
X115590094Y-100728723D02*
X115637713Y-100538247D01*
X115637713Y-100538247D02*
X115637713Y-100395390D01*
X115637713Y-100395390D02*
X115590094Y-100204914D01*
X115590094Y-100204914D02*
X115542475Y-100109676D01*
X115542475Y-100109676D02*
X115447237Y-100014438D01*
X115447237Y-100014438D02*
X115304380Y-99966819D01*
X115304380Y-99966819D02*
X115209142Y-99966819D01*
X115209142Y-99966819D02*
X115066285Y-100014438D01*
X115066285Y-100014438D02*
X115018666Y-100062057D01*
X114066285Y-100966819D02*
X114637713Y-100966819D01*
X114351999Y-100966819D02*
X114351999Y-99966819D01*
X114351999Y-99966819D02*
X114447237Y-100109676D01*
X114447237Y-100109676D02*
X114542475Y-100204914D01*
X114542475Y-100204914D02*
X114637713Y-100252533D01*
X116399619Y-104666819D02*
X116971047Y-104666819D01*
X116685333Y-104666819D02*
X116685333Y-103666819D01*
X116685333Y-103666819D02*
X116780571Y-103809676D01*
X116780571Y-103809676D02*
X116875809Y-103904914D01*
X116875809Y-103904914D02*
X116971047Y-103952533D01*
X115780571Y-103666819D02*
X115685333Y-103666819D01*
X115685333Y-103666819D02*
X115590095Y-103714438D01*
X115590095Y-103714438D02*
X115542476Y-103762057D01*
X115542476Y-103762057D02*
X115494857Y-103857295D01*
X115494857Y-103857295D02*
X115447238Y-104047771D01*
X115447238Y-104047771D02*
X115447238Y-104285866D01*
X115447238Y-104285866D02*
X115494857Y-104476342D01*
X115494857Y-104476342D02*
X115542476Y-104571580D01*
X115542476Y-104571580D02*
X115590095Y-104619200D01*
X115590095Y-104619200D02*
X115685333Y-104666819D01*
X115685333Y-104666819D02*
X115780571Y-104666819D01*
X115780571Y-104666819D02*
X115875809Y-104619200D01*
X115875809Y-104619200D02*
X115923428Y-104571580D01*
X115923428Y-104571580D02*
X115971047Y-104476342D01*
X115971047Y-104476342D02*
X116018666Y-104285866D01*
X116018666Y-104285866D02*
X116018666Y-104047771D01*
X116018666Y-104047771D02*
X115971047Y-103857295D01*
X115971047Y-103857295D02*
X115923428Y-103762057D01*
X115923428Y-103762057D02*
X115875809Y-103714438D01*
X115875809Y-103714438D02*
X115780571Y-103666819D01*
X114828190Y-103666819D02*
X114732952Y-103666819D01*
X114732952Y-103666819D02*
X114637714Y-103714438D01*
X114637714Y-103714438D02*
X114590095Y-103762057D01*
X114590095Y-103762057D02*
X114542476Y-103857295D01*
X114542476Y-103857295D02*
X114494857Y-104047771D01*
X114494857Y-104047771D02*
X114494857Y-104285866D01*
X114494857Y-104285866D02*
X114542476Y-104476342D01*
X114542476Y-104476342D02*
X114590095Y-104571580D01*
X114590095Y-104571580D02*
X114637714Y-104619200D01*
X114637714Y-104619200D02*
X114732952Y-104666819D01*
X114732952Y-104666819D02*
X114828190Y-104666819D01*
X114828190Y-104666819D02*
X114923428Y-104619200D01*
X114923428Y-104619200D02*
X114971047Y-104571580D01*
X114971047Y-104571580D02*
X115018666Y-104476342D01*
X115018666Y-104476342D02*
X115066285Y-104285866D01*
X115066285Y-104285866D02*
X115066285Y-104047771D01*
X115066285Y-104047771D02*
X115018666Y-103857295D01*
X115018666Y-103857295D02*
X114971047Y-103762057D01*
X114971047Y-103762057D02*
X114923428Y-103714438D01*
X114923428Y-103714438D02*
X114828190Y-103666819D01*
X114066285Y-104000152D02*
X114066285Y-104666819D01*
X114066285Y-104095390D02*
X114018666Y-104047771D01*
X114018666Y-104047771D02*
X113923428Y-104000152D01*
X113923428Y-104000152D02*
X113780571Y-104000152D01*
X113780571Y-104000152D02*
X113685333Y-104047771D01*
X113685333Y-104047771D02*
X113637714Y-104143009D01*
X113637714Y-104143009D02*
X113637714Y-104666819D01*
X112828190Y-104143009D02*
X113161523Y-104143009D01*
X113161523Y-104666819D02*
X113161523Y-103666819D01*
X113161523Y-103666819D02*
X112685333Y-103666819D01*
X147662666Y-100871580D02*
X147710285Y-100919200D01*
X147710285Y-100919200D02*
X147853142Y-100966819D01*
X147853142Y-100966819D02*
X147948380Y-100966819D01*
X147948380Y-100966819D02*
X148091237Y-100919200D01*
X148091237Y-100919200D02*
X148186475Y-100823961D01*
X148186475Y-100823961D02*
X148234094Y-100728723D01*
X148234094Y-100728723D02*
X148281713Y-100538247D01*
X148281713Y-100538247D02*
X148281713Y-100395390D01*
X148281713Y-100395390D02*
X148234094Y-100204914D01*
X148234094Y-100204914D02*
X148186475Y-100109676D01*
X148186475Y-100109676D02*
X148091237Y-100014438D01*
X148091237Y-100014438D02*
X147948380Y-99966819D01*
X147948380Y-99966819D02*
X147853142Y-99966819D01*
X147853142Y-99966819D02*
X147710285Y-100014438D01*
X147710285Y-100014438D02*
X147662666Y-100062057D01*
X147281713Y-100062057D02*
X147234094Y-100014438D01*
X147234094Y-100014438D02*
X147138856Y-99966819D01*
X147138856Y-99966819D02*
X146900761Y-99966819D01*
X146900761Y-99966819D02*
X146805523Y-100014438D01*
X146805523Y-100014438D02*
X146757904Y-100062057D01*
X146757904Y-100062057D02*
X146710285Y-100157295D01*
X146710285Y-100157295D02*
X146710285Y-100252533D01*
X146710285Y-100252533D02*
X146757904Y-100395390D01*
X146757904Y-100395390D02*
X147329332Y-100966819D01*
X147329332Y-100966819D02*
X146710285Y-100966819D01*
X149043619Y-104666819D02*
X149615047Y-104666819D01*
X149329333Y-104666819D02*
X149329333Y-103666819D01*
X149329333Y-103666819D02*
X149424571Y-103809676D01*
X149424571Y-103809676D02*
X149519809Y-103904914D01*
X149519809Y-103904914D02*
X149615047Y-103952533D01*
X148424571Y-103666819D02*
X148329333Y-103666819D01*
X148329333Y-103666819D02*
X148234095Y-103714438D01*
X148234095Y-103714438D02*
X148186476Y-103762057D01*
X148186476Y-103762057D02*
X148138857Y-103857295D01*
X148138857Y-103857295D02*
X148091238Y-104047771D01*
X148091238Y-104047771D02*
X148091238Y-104285866D01*
X148091238Y-104285866D02*
X148138857Y-104476342D01*
X148138857Y-104476342D02*
X148186476Y-104571580D01*
X148186476Y-104571580D02*
X148234095Y-104619200D01*
X148234095Y-104619200D02*
X148329333Y-104666819D01*
X148329333Y-104666819D02*
X148424571Y-104666819D01*
X148424571Y-104666819D02*
X148519809Y-104619200D01*
X148519809Y-104619200D02*
X148567428Y-104571580D01*
X148567428Y-104571580D02*
X148615047Y-104476342D01*
X148615047Y-104476342D02*
X148662666Y-104285866D01*
X148662666Y-104285866D02*
X148662666Y-104047771D01*
X148662666Y-104047771D02*
X148615047Y-103857295D01*
X148615047Y-103857295D02*
X148567428Y-103762057D01*
X148567428Y-103762057D02*
X148519809Y-103714438D01*
X148519809Y-103714438D02*
X148424571Y-103666819D01*
X147472190Y-103666819D02*
X147376952Y-103666819D01*
X147376952Y-103666819D02*
X147281714Y-103714438D01*
X147281714Y-103714438D02*
X147234095Y-103762057D01*
X147234095Y-103762057D02*
X147186476Y-103857295D01*
X147186476Y-103857295D02*
X147138857Y-104047771D01*
X147138857Y-104047771D02*
X147138857Y-104285866D01*
X147138857Y-104285866D02*
X147186476Y-104476342D01*
X147186476Y-104476342D02*
X147234095Y-104571580D01*
X147234095Y-104571580D02*
X147281714Y-104619200D01*
X147281714Y-104619200D02*
X147376952Y-104666819D01*
X147376952Y-104666819D02*
X147472190Y-104666819D01*
X147472190Y-104666819D02*
X147567428Y-104619200D01*
X147567428Y-104619200D02*
X147615047Y-104571580D01*
X147615047Y-104571580D02*
X147662666Y-104476342D01*
X147662666Y-104476342D02*
X147710285Y-104285866D01*
X147710285Y-104285866D02*
X147710285Y-104047771D01*
X147710285Y-104047771D02*
X147662666Y-103857295D01*
X147662666Y-103857295D02*
X147615047Y-103762057D01*
X147615047Y-103762057D02*
X147567428Y-103714438D01*
X147567428Y-103714438D02*
X147472190Y-103666819D01*
X146710285Y-104000152D02*
X146710285Y-104666819D01*
X146710285Y-104095390D02*
X146662666Y-104047771D01*
X146662666Y-104047771D02*
X146567428Y-104000152D01*
X146567428Y-104000152D02*
X146424571Y-104000152D01*
X146424571Y-104000152D02*
X146329333Y-104047771D01*
X146329333Y-104047771D02*
X146281714Y-104143009D01*
X146281714Y-104143009D02*
X146281714Y-104666819D01*
X145472190Y-104143009D02*
X145805523Y-104143009D01*
X145805523Y-104666819D02*
X145805523Y-103666819D01*
X145805523Y-103666819D02*
X145329333Y-103666819D01*
X175348666Y-100871580D02*
X175396285Y-100919200D01*
X175396285Y-100919200D02*
X175539142Y-100966819D01*
X175539142Y-100966819D02*
X175634380Y-100966819D01*
X175634380Y-100966819D02*
X175777237Y-100919200D01*
X175777237Y-100919200D02*
X175872475Y-100823961D01*
X175872475Y-100823961D02*
X175920094Y-100728723D01*
X175920094Y-100728723D02*
X175967713Y-100538247D01*
X175967713Y-100538247D02*
X175967713Y-100395390D01*
X175967713Y-100395390D02*
X175920094Y-100204914D01*
X175920094Y-100204914D02*
X175872475Y-100109676D01*
X175872475Y-100109676D02*
X175777237Y-100014438D01*
X175777237Y-100014438D02*
X175634380Y-99966819D01*
X175634380Y-99966819D02*
X175539142Y-99966819D01*
X175539142Y-99966819D02*
X175396285Y-100014438D01*
X175396285Y-100014438D02*
X175348666Y-100062057D01*
X175015332Y-99966819D02*
X174396285Y-99966819D01*
X174396285Y-99966819D02*
X174729618Y-100347771D01*
X174729618Y-100347771D02*
X174586761Y-100347771D01*
X174586761Y-100347771D02*
X174491523Y-100395390D01*
X174491523Y-100395390D02*
X174443904Y-100443009D01*
X174443904Y-100443009D02*
X174396285Y-100538247D01*
X174396285Y-100538247D02*
X174396285Y-100776342D01*
X174396285Y-100776342D02*
X174443904Y-100871580D01*
X174443904Y-100871580D02*
X174491523Y-100919200D01*
X174491523Y-100919200D02*
X174586761Y-100966819D01*
X174586761Y-100966819D02*
X174872475Y-100966819D01*
X174872475Y-100966819D02*
X174967713Y-100919200D01*
X174967713Y-100919200D02*
X175015332Y-100871580D01*
X176729619Y-104666819D02*
X177301047Y-104666819D01*
X177015333Y-104666819D02*
X177015333Y-103666819D01*
X177015333Y-103666819D02*
X177110571Y-103809676D01*
X177110571Y-103809676D02*
X177205809Y-103904914D01*
X177205809Y-103904914D02*
X177301047Y-103952533D01*
X176110571Y-103666819D02*
X176015333Y-103666819D01*
X176015333Y-103666819D02*
X175920095Y-103714438D01*
X175920095Y-103714438D02*
X175872476Y-103762057D01*
X175872476Y-103762057D02*
X175824857Y-103857295D01*
X175824857Y-103857295D02*
X175777238Y-104047771D01*
X175777238Y-104047771D02*
X175777238Y-104285866D01*
X175777238Y-104285866D02*
X175824857Y-104476342D01*
X175824857Y-104476342D02*
X175872476Y-104571580D01*
X175872476Y-104571580D02*
X175920095Y-104619200D01*
X175920095Y-104619200D02*
X176015333Y-104666819D01*
X176015333Y-104666819D02*
X176110571Y-104666819D01*
X176110571Y-104666819D02*
X176205809Y-104619200D01*
X176205809Y-104619200D02*
X176253428Y-104571580D01*
X176253428Y-104571580D02*
X176301047Y-104476342D01*
X176301047Y-104476342D02*
X176348666Y-104285866D01*
X176348666Y-104285866D02*
X176348666Y-104047771D01*
X176348666Y-104047771D02*
X176301047Y-103857295D01*
X176301047Y-103857295D02*
X176253428Y-103762057D01*
X176253428Y-103762057D02*
X176205809Y-103714438D01*
X176205809Y-103714438D02*
X176110571Y-103666819D01*
X175158190Y-103666819D02*
X175062952Y-103666819D01*
X175062952Y-103666819D02*
X174967714Y-103714438D01*
X174967714Y-103714438D02*
X174920095Y-103762057D01*
X174920095Y-103762057D02*
X174872476Y-103857295D01*
X174872476Y-103857295D02*
X174824857Y-104047771D01*
X174824857Y-104047771D02*
X174824857Y-104285866D01*
X174824857Y-104285866D02*
X174872476Y-104476342D01*
X174872476Y-104476342D02*
X174920095Y-104571580D01*
X174920095Y-104571580D02*
X174967714Y-104619200D01*
X174967714Y-104619200D02*
X175062952Y-104666819D01*
X175062952Y-104666819D02*
X175158190Y-104666819D01*
X175158190Y-104666819D02*
X175253428Y-104619200D01*
X175253428Y-104619200D02*
X175301047Y-104571580D01*
X175301047Y-104571580D02*
X175348666Y-104476342D01*
X175348666Y-104476342D02*
X175396285Y-104285866D01*
X175396285Y-104285866D02*
X175396285Y-104047771D01*
X175396285Y-104047771D02*
X175348666Y-103857295D01*
X175348666Y-103857295D02*
X175301047Y-103762057D01*
X175301047Y-103762057D02*
X175253428Y-103714438D01*
X175253428Y-103714438D02*
X175158190Y-103666819D01*
X174396285Y-104000152D02*
X174396285Y-104666819D01*
X174396285Y-104095390D02*
X174348666Y-104047771D01*
X174348666Y-104047771D02*
X174253428Y-104000152D01*
X174253428Y-104000152D02*
X174110571Y-104000152D01*
X174110571Y-104000152D02*
X174015333Y-104047771D01*
X174015333Y-104047771D02*
X173967714Y-104143009D01*
X173967714Y-104143009D02*
X173967714Y-104666819D01*
X173158190Y-104143009D02*
X173491523Y-104143009D01*
X173491523Y-104666819D02*
X173491523Y-103666819D01*
X173491523Y-103666819D02*
X173015333Y-103666819D01*
X127718666Y-89314580D02*
X127766285Y-89362200D01*
X127766285Y-89362200D02*
X127909142Y-89409819D01*
X127909142Y-89409819D02*
X128004380Y-89409819D01*
X128004380Y-89409819D02*
X128147237Y-89362200D01*
X128147237Y-89362200D02*
X128242475Y-89266961D01*
X128242475Y-89266961D02*
X128290094Y-89171723D01*
X128290094Y-89171723D02*
X128337713Y-88981247D01*
X128337713Y-88981247D02*
X128337713Y-88838390D01*
X128337713Y-88838390D02*
X128290094Y-88647914D01*
X128290094Y-88647914D02*
X128242475Y-88552676D01*
X128242475Y-88552676D02*
X128147237Y-88457438D01*
X128147237Y-88457438D02*
X128004380Y-88409819D01*
X128004380Y-88409819D02*
X127909142Y-88409819D01*
X127909142Y-88409819D02*
X127766285Y-88457438D01*
X127766285Y-88457438D02*
X127718666Y-88505057D01*
X126861523Y-88743152D02*
X126861523Y-89409819D01*
X127099618Y-88362200D02*
X127337713Y-89076485D01*
X127337713Y-89076485D02*
X126718666Y-89076485D01*
X129099619Y-93109819D02*
X129671047Y-93109819D01*
X129385333Y-93109819D02*
X129385333Y-92109819D01*
X129385333Y-92109819D02*
X129480571Y-92252676D01*
X129480571Y-92252676D02*
X129575809Y-92347914D01*
X129575809Y-92347914D02*
X129671047Y-92395533D01*
X128480571Y-92109819D02*
X128385333Y-92109819D01*
X128385333Y-92109819D02*
X128290095Y-92157438D01*
X128290095Y-92157438D02*
X128242476Y-92205057D01*
X128242476Y-92205057D02*
X128194857Y-92300295D01*
X128194857Y-92300295D02*
X128147238Y-92490771D01*
X128147238Y-92490771D02*
X128147238Y-92728866D01*
X128147238Y-92728866D02*
X128194857Y-92919342D01*
X128194857Y-92919342D02*
X128242476Y-93014580D01*
X128242476Y-93014580D02*
X128290095Y-93062200D01*
X128290095Y-93062200D02*
X128385333Y-93109819D01*
X128385333Y-93109819D02*
X128480571Y-93109819D01*
X128480571Y-93109819D02*
X128575809Y-93062200D01*
X128575809Y-93062200D02*
X128623428Y-93014580D01*
X128623428Y-93014580D02*
X128671047Y-92919342D01*
X128671047Y-92919342D02*
X128718666Y-92728866D01*
X128718666Y-92728866D02*
X128718666Y-92490771D01*
X128718666Y-92490771D02*
X128671047Y-92300295D01*
X128671047Y-92300295D02*
X128623428Y-92205057D01*
X128623428Y-92205057D02*
X128575809Y-92157438D01*
X128575809Y-92157438D02*
X128480571Y-92109819D01*
X127528190Y-92109819D02*
X127432952Y-92109819D01*
X127432952Y-92109819D02*
X127337714Y-92157438D01*
X127337714Y-92157438D02*
X127290095Y-92205057D01*
X127290095Y-92205057D02*
X127242476Y-92300295D01*
X127242476Y-92300295D02*
X127194857Y-92490771D01*
X127194857Y-92490771D02*
X127194857Y-92728866D01*
X127194857Y-92728866D02*
X127242476Y-92919342D01*
X127242476Y-92919342D02*
X127290095Y-93014580D01*
X127290095Y-93014580D02*
X127337714Y-93062200D01*
X127337714Y-93062200D02*
X127432952Y-93109819D01*
X127432952Y-93109819D02*
X127528190Y-93109819D01*
X127528190Y-93109819D02*
X127623428Y-93062200D01*
X127623428Y-93062200D02*
X127671047Y-93014580D01*
X127671047Y-93014580D02*
X127718666Y-92919342D01*
X127718666Y-92919342D02*
X127766285Y-92728866D01*
X127766285Y-92728866D02*
X127766285Y-92490771D01*
X127766285Y-92490771D02*
X127718666Y-92300295D01*
X127718666Y-92300295D02*
X127671047Y-92205057D01*
X127671047Y-92205057D02*
X127623428Y-92157438D01*
X127623428Y-92157438D02*
X127528190Y-92109819D01*
X126766285Y-92443152D02*
X126766285Y-93109819D01*
X126766285Y-92538390D02*
X126718666Y-92490771D01*
X126718666Y-92490771D02*
X126623428Y-92443152D01*
X126623428Y-92443152D02*
X126480571Y-92443152D01*
X126480571Y-92443152D02*
X126385333Y-92490771D01*
X126385333Y-92490771D02*
X126337714Y-92586009D01*
X126337714Y-92586009D02*
X126337714Y-93109819D01*
X125528190Y-92586009D02*
X125861523Y-92586009D01*
X125861523Y-93109819D02*
X125861523Y-92109819D01*
X125861523Y-92109819D02*
X125385333Y-92109819D01*
X147613666Y-89314580D02*
X147661285Y-89362200D01*
X147661285Y-89362200D02*
X147804142Y-89409819D01*
X147804142Y-89409819D02*
X147899380Y-89409819D01*
X147899380Y-89409819D02*
X148042237Y-89362200D01*
X148042237Y-89362200D02*
X148137475Y-89266961D01*
X148137475Y-89266961D02*
X148185094Y-89171723D01*
X148185094Y-89171723D02*
X148232713Y-88981247D01*
X148232713Y-88981247D02*
X148232713Y-88838390D01*
X148232713Y-88838390D02*
X148185094Y-88647914D01*
X148185094Y-88647914D02*
X148137475Y-88552676D01*
X148137475Y-88552676D02*
X148042237Y-88457438D01*
X148042237Y-88457438D02*
X147899380Y-88409819D01*
X147899380Y-88409819D02*
X147804142Y-88409819D01*
X147804142Y-88409819D02*
X147661285Y-88457438D01*
X147661285Y-88457438D02*
X147613666Y-88505057D01*
X146708904Y-88409819D02*
X147185094Y-88409819D01*
X147185094Y-88409819D02*
X147232713Y-88886009D01*
X147232713Y-88886009D02*
X147185094Y-88838390D01*
X147185094Y-88838390D02*
X147089856Y-88790771D01*
X147089856Y-88790771D02*
X146851761Y-88790771D01*
X146851761Y-88790771D02*
X146756523Y-88838390D01*
X146756523Y-88838390D02*
X146708904Y-88886009D01*
X146708904Y-88886009D02*
X146661285Y-88981247D01*
X146661285Y-88981247D02*
X146661285Y-89219342D01*
X146661285Y-89219342D02*
X146708904Y-89314580D01*
X146708904Y-89314580D02*
X146756523Y-89362200D01*
X146756523Y-89362200D02*
X146851761Y-89409819D01*
X146851761Y-89409819D02*
X147089856Y-89409819D01*
X147089856Y-89409819D02*
X147185094Y-89362200D01*
X147185094Y-89362200D02*
X147232713Y-89314580D01*
X148994619Y-93109819D02*
X149566047Y-93109819D01*
X149280333Y-93109819D02*
X149280333Y-92109819D01*
X149280333Y-92109819D02*
X149375571Y-92252676D01*
X149375571Y-92252676D02*
X149470809Y-92347914D01*
X149470809Y-92347914D02*
X149566047Y-92395533D01*
X148375571Y-92109819D02*
X148280333Y-92109819D01*
X148280333Y-92109819D02*
X148185095Y-92157438D01*
X148185095Y-92157438D02*
X148137476Y-92205057D01*
X148137476Y-92205057D02*
X148089857Y-92300295D01*
X148089857Y-92300295D02*
X148042238Y-92490771D01*
X148042238Y-92490771D02*
X148042238Y-92728866D01*
X148042238Y-92728866D02*
X148089857Y-92919342D01*
X148089857Y-92919342D02*
X148137476Y-93014580D01*
X148137476Y-93014580D02*
X148185095Y-93062200D01*
X148185095Y-93062200D02*
X148280333Y-93109819D01*
X148280333Y-93109819D02*
X148375571Y-93109819D01*
X148375571Y-93109819D02*
X148470809Y-93062200D01*
X148470809Y-93062200D02*
X148518428Y-93014580D01*
X148518428Y-93014580D02*
X148566047Y-92919342D01*
X148566047Y-92919342D02*
X148613666Y-92728866D01*
X148613666Y-92728866D02*
X148613666Y-92490771D01*
X148613666Y-92490771D02*
X148566047Y-92300295D01*
X148566047Y-92300295D02*
X148518428Y-92205057D01*
X148518428Y-92205057D02*
X148470809Y-92157438D01*
X148470809Y-92157438D02*
X148375571Y-92109819D01*
X147423190Y-92109819D02*
X147327952Y-92109819D01*
X147327952Y-92109819D02*
X147232714Y-92157438D01*
X147232714Y-92157438D02*
X147185095Y-92205057D01*
X147185095Y-92205057D02*
X147137476Y-92300295D01*
X147137476Y-92300295D02*
X147089857Y-92490771D01*
X147089857Y-92490771D02*
X147089857Y-92728866D01*
X147089857Y-92728866D02*
X147137476Y-92919342D01*
X147137476Y-92919342D02*
X147185095Y-93014580D01*
X147185095Y-93014580D02*
X147232714Y-93062200D01*
X147232714Y-93062200D02*
X147327952Y-93109819D01*
X147327952Y-93109819D02*
X147423190Y-93109819D01*
X147423190Y-93109819D02*
X147518428Y-93062200D01*
X147518428Y-93062200D02*
X147566047Y-93014580D01*
X147566047Y-93014580D02*
X147613666Y-92919342D01*
X147613666Y-92919342D02*
X147661285Y-92728866D01*
X147661285Y-92728866D02*
X147661285Y-92490771D01*
X147661285Y-92490771D02*
X147613666Y-92300295D01*
X147613666Y-92300295D02*
X147566047Y-92205057D01*
X147566047Y-92205057D02*
X147518428Y-92157438D01*
X147518428Y-92157438D02*
X147423190Y-92109819D01*
X146661285Y-92443152D02*
X146661285Y-93109819D01*
X146661285Y-92538390D02*
X146613666Y-92490771D01*
X146613666Y-92490771D02*
X146518428Y-92443152D01*
X146518428Y-92443152D02*
X146375571Y-92443152D01*
X146375571Y-92443152D02*
X146280333Y-92490771D01*
X146280333Y-92490771D02*
X146232714Y-92586009D01*
X146232714Y-92586009D02*
X146232714Y-93109819D01*
X145423190Y-92586009D02*
X145756523Y-92586009D01*
X145756523Y-93109819D02*
X145756523Y-92109819D01*
X145756523Y-92109819D02*
X145280333Y-92109819D01*
X175348666Y-89314580D02*
X175396285Y-89362200D01*
X175396285Y-89362200D02*
X175539142Y-89409819D01*
X175539142Y-89409819D02*
X175634380Y-89409819D01*
X175634380Y-89409819D02*
X175777237Y-89362200D01*
X175777237Y-89362200D02*
X175872475Y-89266961D01*
X175872475Y-89266961D02*
X175920094Y-89171723D01*
X175920094Y-89171723D02*
X175967713Y-88981247D01*
X175967713Y-88981247D02*
X175967713Y-88838390D01*
X175967713Y-88838390D02*
X175920094Y-88647914D01*
X175920094Y-88647914D02*
X175872475Y-88552676D01*
X175872475Y-88552676D02*
X175777237Y-88457438D01*
X175777237Y-88457438D02*
X175634380Y-88409819D01*
X175634380Y-88409819D02*
X175539142Y-88409819D01*
X175539142Y-88409819D02*
X175396285Y-88457438D01*
X175396285Y-88457438D02*
X175348666Y-88505057D01*
X174491523Y-88409819D02*
X174681999Y-88409819D01*
X174681999Y-88409819D02*
X174777237Y-88457438D01*
X174777237Y-88457438D02*
X174824856Y-88505057D01*
X174824856Y-88505057D02*
X174920094Y-88647914D01*
X174920094Y-88647914D02*
X174967713Y-88838390D01*
X174967713Y-88838390D02*
X174967713Y-89219342D01*
X174967713Y-89219342D02*
X174920094Y-89314580D01*
X174920094Y-89314580D02*
X174872475Y-89362200D01*
X174872475Y-89362200D02*
X174777237Y-89409819D01*
X174777237Y-89409819D02*
X174586761Y-89409819D01*
X174586761Y-89409819D02*
X174491523Y-89362200D01*
X174491523Y-89362200D02*
X174443904Y-89314580D01*
X174443904Y-89314580D02*
X174396285Y-89219342D01*
X174396285Y-89219342D02*
X174396285Y-88981247D01*
X174396285Y-88981247D02*
X174443904Y-88886009D01*
X174443904Y-88886009D02*
X174491523Y-88838390D01*
X174491523Y-88838390D02*
X174586761Y-88790771D01*
X174586761Y-88790771D02*
X174777237Y-88790771D01*
X174777237Y-88790771D02*
X174872475Y-88838390D01*
X174872475Y-88838390D02*
X174920094Y-88886009D01*
X174920094Y-88886009D02*
X174967713Y-88981247D01*
X176729619Y-93109819D02*
X177301047Y-93109819D01*
X177015333Y-93109819D02*
X177015333Y-92109819D01*
X177015333Y-92109819D02*
X177110571Y-92252676D01*
X177110571Y-92252676D02*
X177205809Y-92347914D01*
X177205809Y-92347914D02*
X177301047Y-92395533D01*
X176110571Y-92109819D02*
X176015333Y-92109819D01*
X176015333Y-92109819D02*
X175920095Y-92157438D01*
X175920095Y-92157438D02*
X175872476Y-92205057D01*
X175872476Y-92205057D02*
X175824857Y-92300295D01*
X175824857Y-92300295D02*
X175777238Y-92490771D01*
X175777238Y-92490771D02*
X175777238Y-92728866D01*
X175777238Y-92728866D02*
X175824857Y-92919342D01*
X175824857Y-92919342D02*
X175872476Y-93014580D01*
X175872476Y-93014580D02*
X175920095Y-93062200D01*
X175920095Y-93062200D02*
X176015333Y-93109819D01*
X176015333Y-93109819D02*
X176110571Y-93109819D01*
X176110571Y-93109819D02*
X176205809Y-93062200D01*
X176205809Y-93062200D02*
X176253428Y-93014580D01*
X176253428Y-93014580D02*
X176301047Y-92919342D01*
X176301047Y-92919342D02*
X176348666Y-92728866D01*
X176348666Y-92728866D02*
X176348666Y-92490771D01*
X176348666Y-92490771D02*
X176301047Y-92300295D01*
X176301047Y-92300295D02*
X176253428Y-92205057D01*
X176253428Y-92205057D02*
X176205809Y-92157438D01*
X176205809Y-92157438D02*
X176110571Y-92109819D01*
X175158190Y-92109819D02*
X175062952Y-92109819D01*
X175062952Y-92109819D02*
X174967714Y-92157438D01*
X174967714Y-92157438D02*
X174920095Y-92205057D01*
X174920095Y-92205057D02*
X174872476Y-92300295D01*
X174872476Y-92300295D02*
X174824857Y-92490771D01*
X174824857Y-92490771D02*
X174824857Y-92728866D01*
X174824857Y-92728866D02*
X174872476Y-92919342D01*
X174872476Y-92919342D02*
X174920095Y-93014580D01*
X174920095Y-93014580D02*
X174967714Y-93062200D01*
X174967714Y-93062200D02*
X175062952Y-93109819D01*
X175062952Y-93109819D02*
X175158190Y-93109819D01*
X175158190Y-93109819D02*
X175253428Y-93062200D01*
X175253428Y-93062200D02*
X175301047Y-93014580D01*
X175301047Y-93014580D02*
X175348666Y-92919342D01*
X175348666Y-92919342D02*
X175396285Y-92728866D01*
X175396285Y-92728866D02*
X175396285Y-92490771D01*
X175396285Y-92490771D02*
X175348666Y-92300295D01*
X175348666Y-92300295D02*
X175301047Y-92205057D01*
X175301047Y-92205057D02*
X175253428Y-92157438D01*
X175253428Y-92157438D02*
X175158190Y-92109819D01*
X174396285Y-92443152D02*
X174396285Y-93109819D01*
X174396285Y-92538390D02*
X174348666Y-92490771D01*
X174348666Y-92490771D02*
X174253428Y-92443152D01*
X174253428Y-92443152D02*
X174110571Y-92443152D01*
X174110571Y-92443152D02*
X174015333Y-92490771D01*
X174015333Y-92490771D02*
X173967714Y-92586009D01*
X173967714Y-92586009D02*
X173967714Y-93109819D01*
X173158190Y-92586009D02*
X173491523Y-92586009D01*
X173491523Y-93109819D02*
X173491523Y-92109819D01*
X173491523Y-92109819D02*
X173015333Y-92109819D01*
D11*
X114052748Y-103272000D02*
X115475252Y-103272000D01*
X114052748Y-101452000D02*
X115475252Y-101452000D01*
X146686748Y-103272000D02*
X148109252Y-103272000D01*
X146686748Y-101452000D02*
X148109252Y-101452000D01*
X174372748Y-103272000D02*
X175795252Y-103272000D01*
X174372748Y-101452000D02*
X175795252Y-101452000D01*
X126752748Y-91715000D02*
X128175252Y-91715000D01*
X126752748Y-89895000D02*
X128175252Y-89895000D01*
X146735748Y-91715000D02*
X148158252Y-91715000D01*
X146735748Y-89895000D02*
X148158252Y-89895000D01*
X174372748Y-91715000D02*
X175795252Y-91715000D01*
X174372748Y-89895000D02*
X175795252Y-89895000D01*
%LPC*%
D12*
X113289000Y-102362000D03*
X116239000Y-102362000D03*
X145923000Y-102362000D03*
X148873000Y-102362000D03*
X173609000Y-102362000D03*
X176559000Y-102362000D03*
X125989000Y-90805000D03*
X128939000Y-90805000D03*
X145972000Y-90805000D03*
X148922000Y-90805000D03*
X173609000Y-90805000D03*
X176559000Y-90805000D03*
D13*
X112776000Y-106162000D03*
D14*
X115316000Y-106162000D03*
X117856000Y-106162000D03*
X120396000Y-106162000D03*
X122936000Y-106162000D03*
X125476000Y-106162000D03*
X128016000Y-106162000D03*
X130556000Y-106162000D03*
X133096000Y-106162000D03*
X135636000Y-106162000D03*
X138176000Y-106162000D03*
X140716000Y-106162000D03*
X140716000Y-98542000D03*
X138176000Y-98542000D03*
X135636000Y-98542000D03*
X133096000Y-98542000D03*
X130556000Y-98542000D03*
X128016000Y-98542000D03*
X125476000Y-98542000D03*
X122936000Y-98542000D03*
X120396000Y-98542000D03*
X117856000Y-98542000D03*
X115316000Y-98542000D03*
X112776000Y-98542000D03*
D13*
X145288000Y-106172000D03*
D14*
X147828000Y-106172000D03*
X150368000Y-106172000D03*
X152908000Y-106172000D03*
X155448000Y-106172000D03*
X157988000Y-106172000D03*
X160528000Y-106172000D03*
X163068000Y-106172000D03*
X165608000Y-106172000D03*
X168148000Y-106172000D03*
X168148000Y-98552000D03*
X165608000Y-98552000D03*
X163068000Y-98552000D03*
X160528000Y-98552000D03*
X157988000Y-98552000D03*
X155448000Y-98552000D03*
X152908000Y-98552000D03*
X150368000Y-98552000D03*
X147828000Y-98552000D03*
X145288000Y-98552000D03*
D13*
X172974000Y-106172000D03*
D14*
X175514000Y-106172000D03*
X178054000Y-106172000D03*
X180594000Y-106172000D03*
X183134000Y-106172000D03*
X185674000Y-106172000D03*
X188214000Y-106172000D03*
X190754000Y-106172000D03*
X193294000Y-106172000D03*
X195834000Y-106172000D03*
X195834000Y-98552000D03*
X193294000Y-98552000D03*
X190754000Y-98552000D03*
X188214000Y-98552000D03*
X185674000Y-98552000D03*
X183134000Y-98552000D03*
X180594000Y-98552000D03*
X178054000Y-98552000D03*
X175514000Y-98552000D03*
X172974000Y-98552000D03*
D13*
X125476000Y-94615000D03*
D14*
X128016000Y-94615000D03*
X130556000Y-94615000D03*
X133096000Y-94615000D03*
X135636000Y-94615000D03*
X138176000Y-94615000D03*
X140716000Y-94615000D03*
X140716000Y-86995000D03*
X138176000Y-86995000D03*
X135636000Y-86995000D03*
X133096000Y-86995000D03*
X130556000Y-86995000D03*
X128016000Y-86995000D03*
X125476000Y-86995000D03*
D13*
X145288000Y-94615000D03*
D14*
X147828000Y-94615000D03*
X150368000Y-94615000D03*
X152908000Y-94615000D03*
X155448000Y-94615000D03*
X157988000Y-94615000D03*
X160528000Y-94615000D03*
X163068000Y-94615000D03*
X165608000Y-94615000D03*
X168148000Y-94615000D03*
X168148000Y-86995000D03*
X165608000Y-86995000D03*
X163068000Y-86995000D03*
X160528000Y-86995000D03*
X157988000Y-86995000D03*
X155448000Y-86995000D03*
X152908000Y-86995000D03*
X150368000Y-86995000D03*
X147828000Y-86995000D03*
X145288000Y-86995000D03*
D13*
X172974000Y-94615000D03*
D14*
X175514000Y-94615000D03*
X178054000Y-94615000D03*
X180594000Y-94615000D03*
X183134000Y-94615000D03*
X185674000Y-94615000D03*
X188214000Y-94615000D03*
X190754000Y-94615000D03*
X193294000Y-94615000D03*
X195834000Y-94615000D03*
X195834000Y-86995000D03*
X193294000Y-86995000D03*
X190754000Y-86995000D03*
X188214000Y-86995000D03*
X185674000Y-86995000D03*
X183134000Y-86995000D03*
X180594000Y-86995000D03*
X178054000Y-86995000D03*
X175514000Y-86995000D03*
X172974000Y-86995000D03*
D15*
X192786000Y-80137000D03*
D16*
X190246000Y-80137000D03*
X187706000Y-80137000D03*
X185166000Y-80137000D03*
X182626000Y-80137000D03*
X180086000Y-80137000D03*
X177546000Y-80137000D03*
X175006000Y-80137000D03*
X172466000Y-80137000D03*
X169926000Y-80137000D03*
X167386000Y-80137000D03*
X164846000Y-80137000D03*
X162306000Y-80137000D03*
X159766000Y-80137000D03*
X157226000Y-80137000D03*
X154686000Y-80137000D03*
X152146000Y-80137000D03*
X149606000Y-80137000D03*
X147066000Y-80137000D03*
X144526000Y-80137000D03*
X141986000Y-80137000D03*
X139446000Y-80137000D03*
X136906000Y-80137000D03*
X134366000Y-80137000D03*
X131826000Y-80137000D03*
X129286000Y-80137000D03*
X126746000Y-80137000D03*
X124206000Y-80137000D03*
X121666000Y-80137000D03*
X119126000Y-80137000D03*
X192786000Y-75057000D03*
X190246000Y-75057000D03*
X187706000Y-75057000D03*
X185166000Y-75057000D03*
X182626000Y-75057000D03*
X180086000Y-75057000D03*
X177546000Y-75057000D03*
X175006000Y-75057000D03*
X172466000Y-75057000D03*
X169926000Y-75057000D03*
X167386000Y-75057000D03*
X164846000Y-75057000D03*
X162306000Y-75057000D03*
X159766000Y-75057000D03*
X157226000Y-75057000D03*
X154686000Y-75057000D03*
X152146000Y-75057000D03*
X149606000Y-75057000D03*
X147066000Y-75057000D03*
X144526000Y-75057000D03*
X141986000Y-75057000D03*
X139446000Y-75057000D03*
X136906000Y-75057000D03*
X134366000Y-75057000D03*
X131826000Y-75057000D03*
X129286000Y-75057000D03*
X126746000Y-75057000D03*
X124206000Y-75057000D03*
X121666000Y-75057000D03*
X119126000Y-75057000D03*
D15*
X192786000Y-114935000D03*
D16*
X190246000Y-114935000D03*
X187706000Y-114935000D03*
X185166000Y-114935000D03*
X182626000Y-114935000D03*
X180086000Y-114935000D03*
X177546000Y-114935000D03*
X175006000Y-114935000D03*
X172466000Y-114935000D03*
X169926000Y-114935000D03*
X167386000Y-114935000D03*
X164846000Y-114935000D03*
X162306000Y-114935000D03*
X159766000Y-114935000D03*
X157226000Y-114935000D03*
X154686000Y-114935000D03*
X152146000Y-114935000D03*
X149606000Y-114935000D03*
X147066000Y-114935000D03*
X144526000Y-114935000D03*
X141986000Y-114935000D03*
X139446000Y-114935000D03*
X136906000Y-114935000D03*
X134366000Y-114935000D03*
X131826000Y-114935000D03*
X129286000Y-114935000D03*
X126746000Y-114935000D03*
X124206000Y-114935000D03*
X121666000Y-114935000D03*
X119126000Y-114935000D03*
X192786000Y-109855000D03*
X190246000Y-109855000D03*
X187706000Y-109855000D03*
X185166000Y-109855000D03*
X182626000Y-109855000D03*
X180086000Y-109855000D03*
X177546000Y-109855000D03*
X175006000Y-109855000D03*
X172466000Y-109855000D03*
X169926000Y-109855000D03*
X167386000Y-109855000D03*
X164846000Y-109855000D03*
X162306000Y-109855000D03*
X159766000Y-109855000D03*
X157226000Y-109855000D03*
X154686000Y-109855000D03*
X152146000Y-109855000D03*
X149606000Y-109855000D03*
X147066000Y-109855000D03*
X144526000Y-109855000D03*
X141986000Y-109855000D03*
X139446000Y-109855000D03*
X136906000Y-109855000D03*
X134366000Y-109855000D03*
X131826000Y-109855000D03*
X129286000Y-109855000D03*
X126746000Y-109855000D03*
X124206000Y-109855000D03*
X121666000Y-109855000D03*
X119126000Y-109855000D03*
D15*
X118364000Y-89794000D03*
D17*
X118364000Y-87254000D03*
D18*
X145415000Y-83693000D03*
D19*
X147955000Y-83693000D03*
X150495000Y-83693000D03*
X153035000Y-83693000D03*
X155575000Y-83693000D03*
X158115000Y-83693000D03*
X160655000Y-83693000D03*
X163195000Y-83693000D03*
X165735000Y-83693000D03*
D18*
X173101000Y-83693000D03*
D19*
X175641000Y-83693000D03*
X178181000Y-83693000D03*
X180721000Y-83693000D03*
X183261000Y-83693000D03*
X185801000Y-83693000D03*
X188341000Y-83693000D03*
X190881000Y-83693000D03*
X193421000Y-83693000D03*
%LPD*%
M02*
