G04 #@! TF.GenerationSoftware,KiCad,Pcbnew,7.0.1-0*
G04 #@! TF.CreationDate,2023-05-14T20:02:35+01:00*
G04 #@! TF.ProjectId,MegaCD-Connect BD Remake,4d656761-4344-42d4-936f-6e6e65637420,rev?*
G04 #@! TF.SameCoordinates,Original*
G04 #@! TF.FileFunction,Profile,NP*
%FSLAX46Y46*%
G04 Gerber Fmt 4.6, Leading zero omitted, Abs format (unit mm)*
G04 Created by KiCad (PCBNEW 7.0.1-0) date 2023-05-14 20:02:35*
%MOMM*%
%LPD*%
G01*
G04 APERTURE LIST*
G04 #@! TA.AperFunction,Profile*
%ADD10C,0.100000*%
G04 #@! TD*
G04 APERTURE END LIST*
D10*
X111125000Y-103904200D02*
X111125000Y-105707600D01*
X112391600Y-77691400D02*
G75*
G03*
X112391600Y-77691400I-1752600J0D01*
G01*
X107083000Y-117094000D02*
X205083000Y-117094000D01*
X200453400Y-105860000D02*
X205076200Y-105860000D01*
X200453400Y-101084800D02*
X200453400Y-105860000D01*
X111125000Y-105707600D02*
X107083000Y-105707600D01*
X107083000Y-103904200D02*
X111125000Y-103904200D01*
X107083000Y-83787400D02*
X111020000Y-83787400D01*
X112340800Y-112641800D02*
G75*
G03*
X112340800Y-112641800I-1752600J0D01*
G01*
X107083000Y-73094000D02*
X107083000Y-83787400D01*
X200453400Y-85743200D02*
X205076200Y-85743200D01*
X111020000Y-85743200D02*
X107083000Y-85743200D01*
X203222000Y-112641800D02*
G75*
G03*
X203222000Y-112641800I-1752600J0D01*
G01*
X200453400Y-83787400D02*
X200453400Y-85743200D01*
X107083000Y-85743200D02*
X107083000Y-103904200D01*
X205083000Y-73094000D02*
X205076200Y-83787400D01*
X107083000Y-105707600D02*
X107083000Y-117094000D01*
X114372800Y-95166600D02*
G75*
G03*
X114372800Y-95166600I-1752600J0D01*
G01*
X203196600Y-77691400D02*
G75*
G03*
X203196600Y-77691400I-1752600J0D01*
G01*
X107083000Y-73094000D02*
X205083000Y-73094000D01*
X201190000Y-95166600D02*
G75*
G03*
X201190000Y-95166600I-1752600J0D01*
G01*
X205076200Y-101084800D02*
X200453400Y-101084800D01*
X205076200Y-85743200D02*
X205076200Y-101084800D01*
X205076200Y-83787400D02*
X200453400Y-83787400D01*
X111020000Y-83787400D02*
X111020000Y-85743200D01*
X205076200Y-105860000D02*
X205083000Y-117094000D01*
M02*
