M48
; DRILL file {KiCad 7.0.2-0} date 2023 June 13, Tuesday 20:44:17
; FORMAT={-:-/ absolute / metric / decimal}
; #@! TF.CreationDate,2023-06-13T20:44:17+01:00
; #@! TF.GenerationSoftware,Kicad,Pcbnew,7.0.2-0
; #@! TF.FileFunction,Plated,1,2,PTH
FMAT,2
METRIC
; #@! TA.AperFunction,Plated,PTH,ViaDrill
T1C0.200
; #@! TA.AperFunction,Plated,PTH,ComponentDrill
T2C0.800
; #@! TA.AperFunction,Plated,PTH,ComponentDrill
T3C1.000
%
G90
G05
T1
X109.347Y-81.28
X109.347Y-108.458
X111.633Y-90.932
X117.348Y-94.742
X117.983Y-101.727
X118.291Y-96.534
X119.126Y-107.823
X119.761Y-84.328
X119.888Y-100.203
X120.65Y-102.743
X121.412Y-89.789
X122.047Y-111.76
X122.936Y-102.743
X123.35Y-101.345
X123.444Y-83.82
X123.444Y-89.789
X123.444Y-92.964
X124.968Y-113.157
X125.641Y-96.534
X125.73Y-102.743
X126.238Y-111.76
X127.835Y-104.188
X128.016Y-102.743
X130.556Y-101.981
X130.683Y-89.789
X131.38Y-85.132
X131.533Y-102.78
X132.461Y-92.202
X133.34Y-96.534
X133.735Y-92.813
X134.012Y-95.759
X134.179Y-89.998
X135.382Y-89.789
X136.246Y-100.779
X137.16Y-92.202
X138.848Y-101.632
X139.389Y-91.608
X139.866Y-92.649
X140.081Y-89.789
X140.589Y-102.743
X141.478Y-89.789
X141.478Y-91.821
X142.179Y-94.53
X142.78Y-93.229
X143.237Y-91.528
X143.317Y-85.484
X143.51Y-104.648
X145.875Y-100.77
X146.431Y-92.456
X146.709Y-84.158
X147.447Y-90.932
X148.971Y-104.14
X149.098Y-95.093
X150.553Y-90.692
X150.696Y-89.86
X151.173Y-88.724
X151.208Y-90.758
X152.511Y-88.637
X152.997Y-100.949
X153.035Y-102.616
X153.137Y-90.699
X153.45Y-85.273
X155.101Y-89.885
X155.321Y-102.616
X155.633Y-90.782
X157.058Y-107.303
X157.988Y-102.616
X158.378Y-79.087
X158.389Y-89.991
X158.566Y-96.286
X158.844Y-104.3
X159.029Y-89.849
X159.258Y-87.406
X160.218Y-90.161
X160.528Y-102.616
X160.856Y-90.278
X161.224Y-96.305
X161.833Y-101.41
X162.369Y-89.814
X163.14Y-96.694
X165.227Y-101.346
X165.354Y-90.043
X165.735Y-92.583
X165.862Y-103.886
X166.243Y-81.661
X166.878Y-86.354
X166.885Y-89.885
X167.073Y-108.326
X167.473Y-100.949
X167.64Y-107.95
X168.148Y-103.886
X168.402Y-90.551
X169.899Y-106.19
X170.319Y-90.045
X170.431Y-97.015
X170.935Y-90.723
X171.025Y-88.724
X171.196Y-81.915
X172.673Y-111.542
X173.863Y-111.379
X175.133Y-92.583
X176.53Y-88.9
X178.308Y-102.362
X178.435Y-92.583
X178.943Y-112.268
X180.594Y-90.678
X180.594Y-102.362
X181.808Y-100.509
X181.864Y-96.745
X181.871Y-93.417
X182.88Y-111.887
X184.043Y-80.952
X184.277Y-88.138
X185.166Y-112.268
X185.547Y-90.551
X186.09Y-96.925
X186.09Y-100.949
X187.172Y-96.221
X187.579Y-112.522
X188.087Y-90.551
X188.721Y-101.434
X189.865Y-92.075
X190.881Y-101.981
X192.151Y-112.649
X192.601Y-108.121
X193.352Y-91.188
X201.422Y-108.585
X201.549Y-81.534
T2
X112.776Y-98.542
X112.776Y-106.162
X115.316Y-98.542
X115.316Y-106.162
X117.856Y-98.542
X117.856Y-106.162
X120.396Y-98.542
X120.396Y-106.162
X122.936Y-98.542
X122.936Y-106.162
X125.476Y-86.995
X125.476Y-94.615
X125.476Y-98.542
X125.476Y-106.162
X128.016Y-86.995
X128.016Y-94.615
X128.016Y-98.542
X128.016Y-106.162
X130.556Y-86.995
X130.556Y-94.615
X130.556Y-98.542
X130.556Y-106.162
X133.096Y-86.995
X133.096Y-94.615
X133.096Y-98.542
X133.096Y-106.162
X135.636Y-86.995
X135.636Y-94.615
X135.636Y-98.542
X135.636Y-106.162
X138.176Y-86.995
X138.176Y-94.615
X138.176Y-98.542
X138.176Y-106.162
X140.716Y-86.995
X140.716Y-94.615
X140.716Y-98.542
X140.716Y-106.162
X145.288Y-86.995
X145.288Y-94.615
X145.288Y-98.552
X145.288Y-106.172
X145.415Y-83.693
X147.828Y-86.995
X147.828Y-94.615
X147.828Y-98.552
X147.828Y-106.172
X147.955Y-83.693
X150.368Y-86.995
X150.368Y-94.615
X150.368Y-98.552
X150.368Y-106.172
X150.495Y-83.693
X152.908Y-86.995
X152.908Y-94.615
X152.908Y-98.552
X152.908Y-106.172
X153.035Y-83.693
X155.448Y-86.995
X155.448Y-94.615
X155.448Y-98.552
X155.448Y-106.172
X155.575Y-83.693
X157.988Y-86.995
X157.988Y-94.615
X157.988Y-98.552
X157.988Y-106.172
X158.115Y-83.693
X160.528Y-86.995
X160.528Y-94.615
X160.528Y-98.552
X160.528Y-106.172
X160.655Y-83.693
X163.068Y-86.995
X163.068Y-94.615
X163.068Y-98.552
X163.068Y-106.172
X163.195Y-83.693
X165.608Y-86.995
X165.608Y-94.615
X165.608Y-98.552
X165.608Y-106.172
X165.735Y-83.693
X168.148Y-86.995
X168.148Y-94.615
X168.148Y-98.552
X168.148Y-106.172
X172.974Y-86.995
X172.974Y-94.615
X172.974Y-98.552
X172.974Y-106.172
X173.101Y-83.693
X175.514Y-86.995
X175.514Y-94.615
X175.514Y-98.552
X175.514Y-106.172
X175.641Y-83.693
X178.054Y-86.995
X178.054Y-94.615
X178.054Y-98.552
X178.054Y-106.172
X178.181Y-83.693
X180.594Y-86.995
X180.594Y-94.615
X180.594Y-98.552
X180.594Y-106.172
X180.721Y-83.693
X183.134Y-86.995
X183.134Y-94.615
X183.134Y-98.552
X183.134Y-106.172
X183.261Y-83.693
X185.674Y-86.995
X185.674Y-94.615
X185.674Y-98.552
X185.674Y-106.172
X185.801Y-83.693
X188.214Y-86.995
X188.214Y-94.615
X188.214Y-98.552
X188.214Y-106.172
X188.341Y-83.693
X190.754Y-86.995
X190.754Y-94.615
X190.754Y-98.552
X190.754Y-106.172
X190.881Y-83.693
X193.294Y-86.995
X193.294Y-94.615
X193.294Y-98.552
X193.294Y-106.172
X193.421Y-83.693
X195.834Y-86.995
X195.834Y-94.615
X195.834Y-98.552
X195.834Y-106.172
T3
X118.364Y-87.254
X118.364Y-89.794
X119.126Y-75.057
X119.126Y-80.137
X119.126Y-109.855
X119.126Y-114.935
X121.666Y-75.057
X121.666Y-80.137
X121.666Y-109.855
X121.666Y-114.935
X124.206Y-75.057
X124.206Y-80.137
X124.206Y-109.855
X124.206Y-114.935
X126.746Y-75.057
X126.746Y-80.137
X126.746Y-109.855
X126.746Y-114.935
X129.286Y-75.057
X129.286Y-80.137
X129.286Y-109.855
X129.286Y-114.935
X131.826Y-75.057
X131.826Y-80.137
X131.826Y-109.855
X131.826Y-114.935
X134.366Y-75.057
X134.366Y-80.137
X134.366Y-109.855
X134.366Y-114.935
X136.906Y-75.057
X136.906Y-80.137
X136.906Y-109.855
X136.906Y-114.935
X139.446Y-75.057
X139.446Y-80.137
X139.446Y-109.855
X139.446Y-114.935
X141.986Y-75.057
X141.986Y-80.137
X141.986Y-109.855
X141.986Y-114.935
X144.526Y-75.057
X144.526Y-80.137
X144.526Y-109.855
X144.526Y-114.935
X147.066Y-75.057
X147.066Y-80.137
X147.066Y-109.855
X147.066Y-114.935
X149.606Y-75.057
X149.606Y-80.137
X149.606Y-109.855
X149.606Y-114.935
X152.146Y-75.057
X152.146Y-80.137
X152.146Y-109.855
X152.146Y-114.935
X154.686Y-75.057
X154.686Y-80.137
X154.686Y-109.855
X154.686Y-114.935
X157.226Y-75.057
X157.226Y-80.137
X157.226Y-109.855
X157.226Y-114.935
X159.766Y-75.057
X159.766Y-80.137
X159.766Y-109.855
X159.766Y-114.935
X162.306Y-75.057
X162.306Y-80.137
X162.306Y-109.855
X162.306Y-114.935
X164.846Y-75.057
X164.846Y-80.137
X164.846Y-109.855
X164.846Y-114.935
X167.386Y-75.057
X167.386Y-80.137
X167.386Y-109.855
X167.386Y-114.935
X169.926Y-75.057
X169.926Y-80.137
X169.926Y-109.855
X169.926Y-114.935
X172.466Y-75.057
X172.466Y-80.137
X172.466Y-109.855
X172.466Y-114.935
X175.006Y-75.057
X175.006Y-80.137
X175.006Y-109.855
X175.006Y-114.935
X177.546Y-75.057
X177.546Y-80.137
X177.546Y-109.855
X177.546Y-114.935
X180.086Y-75.057
X180.086Y-80.137
X180.086Y-109.855
X180.086Y-114.935
X182.626Y-75.057
X182.626Y-80.137
X182.626Y-109.855
X182.626Y-114.935
X185.166Y-75.057
X185.166Y-80.137
X185.166Y-109.855
X185.166Y-114.935
X187.706Y-75.057
X187.706Y-80.137
X187.706Y-109.855
X187.706Y-114.935
X190.246Y-75.057
X190.246Y-80.137
X190.246Y-109.855
X190.246Y-114.935
X192.786Y-75.057
X192.786Y-80.137
X192.786Y-109.855
X192.786Y-114.935
T0
M30
