G04 #@! TF.GenerationSoftware,KiCad,Pcbnew,7.0.2-0*
G04 #@! TF.CreationDate,2023-06-13T20:43:53+01:00*
G04 #@! TF.ProjectId,MegaCD-Connect BD Remake,4d656761-4344-42d4-936f-6e6e65637420,rev?*
G04 #@! TF.SameCoordinates,Original*
G04 #@! TF.FileFunction,Legend,Top*
G04 #@! TF.FilePolarity,Positive*
%FSLAX46Y46*%
G04 Gerber Fmt 4.6, Leading zero omitted, Abs format (unit mm)*
G04 Created by KiCad (PCBNEW 7.0.2-0) date 2023-06-13 20:43:53*
%MOMM*%
%LPD*%
G01*
G04 APERTURE LIST*
%ADD10C,0.150000*%
%ADD11C,0.120000*%
%ADD12O,1.600000X2.400000*%
%ADD13R,1.600000X2.400000*%
%ADD14R,1.700000X1.700000*%
%ADD15O,1.700000X1.700000*%
%ADD16R,1.600000X1.600000*%
%ADD17O,1.600000X1.600000*%
G04 APERTURE END LIST*
D10*
X113410904Y-85570238D02*
X113315666Y-85522619D01*
X113315666Y-85522619D02*
X113172809Y-85522619D01*
X113172809Y-85522619D02*
X113029952Y-85570238D01*
X113029952Y-85570238D02*
X112934714Y-85665476D01*
X112934714Y-85665476D02*
X112887095Y-85760714D01*
X112887095Y-85760714D02*
X112839476Y-85951190D01*
X112839476Y-85951190D02*
X112839476Y-86094047D01*
X112839476Y-86094047D02*
X112887095Y-86284523D01*
X112887095Y-86284523D02*
X112934714Y-86379761D01*
X112934714Y-86379761D02*
X113029952Y-86475000D01*
X113029952Y-86475000D02*
X113172809Y-86522619D01*
X113172809Y-86522619D02*
X113268047Y-86522619D01*
X113268047Y-86522619D02*
X113410904Y-86475000D01*
X113410904Y-86475000D02*
X113458523Y-86427380D01*
X113458523Y-86427380D02*
X113458523Y-86094047D01*
X113458523Y-86094047D02*
X113268047Y-86094047D01*
X113887095Y-86522619D02*
X113887095Y-85855952D01*
X113887095Y-86046428D02*
X113934714Y-85951190D01*
X113934714Y-85951190D02*
X113982333Y-85903571D01*
X113982333Y-85903571D02*
X114077571Y-85855952D01*
X114077571Y-85855952D02*
X114172809Y-85855952D01*
X114887095Y-86475000D02*
X114791857Y-86522619D01*
X114791857Y-86522619D02*
X114601381Y-86522619D01*
X114601381Y-86522619D02*
X114506143Y-86475000D01*
X114506143Y-86475000D02*
X114458524Y-86379761D01*
X114458524Y-86379761D02*
X114458524Y-85998809D01*
X114458524Y-85998809D02*
X114506143Y-85903571D01*
X114506143Y-85903571D02*
X114601381Y-85855952D01*
X114601381Y-85855952D02*
X114791857Y-85855952D01*
X114791857Y-85855952D02*
X114887095Y-85903571D01*
X114887095Y-85903571D02*
X114934714Y-85998809D01*
X114934714Y-85998809D02*
X114934714Y-86094047D01*
X114934714Y-86094047D02*
X114458524Y-86189285D01*
X115268048Y-85855952D02*
X115506143Y-86522619D01*
X115744238Y-85855952D02*
X115506143Y-86522619D01*
X115506143Y-86522619D02*
X115410905Y-86760714D01*
X115410905Y-86760714D02*
X115363286Y-86808333D01*
X115363286Y-86808333D02*
X115268048Y-86855952D01*
X112744238Y-87142619D02*
X113315666Y-87142619D01*
X113029952Y-88142619D02*
X113029952Y-87142619D01*
X113649000Y-88142619D02*
X113649000Y-87142619D01*
X113649000Y-87618809D02*
X114220428Y-87618809D01*
X114220428Y-88142619D02*
X114220428Y-87142619D01*
X114649000Y-87237857D02*
X114696619Y-87190238D01*
X114696619Y-87190238D02*
X114791857Y-87142619D01*
X114791857Y-87142619D02*
X115029952Y-87142619D01*
X115029952Y-87142619D02*
X115125190Y-87190238D01*
X115125190Y-87190238D02*
X115172809Y-87237857D01*
X115172809Y-87237857D02*
X115220428Y-87333095D01*
X115220428Y-87333095D02*
X115220428Y-87428333D01*
X115220428Y-87428333D02*
X115172809Y-87571190D01*
X115172809Y-87571190D02*
X114601381Y-88142619D01*
X114601381Y-88142619D02*
X115220428Y-88142619D01*
X203799380Y-88725952D02*
X204799380Y-88725952D01*
X204799380Y-88725952D02*
X204085095Y-89059285D01*
X204085095Y-89059285D02*
X204799380Y-89392618D01*
X204799380Y-89392618D02*
X203799380Y-89392618D01*
X203847000Y-90249761D02*
X203799380Y-90154523D01*
X203799380Y-90154523D02*
X203799380Y-89964047D01*
X203799380Y-89964047D02*
X203847000Y-89868809D01*
X203847000Y-89868809D02*
X203942238Y-89821190D01*
X203942238Y-89821190D02*
X204323190Y-89821190D01*
X204323190Y-89821190D02*
X204418428Y-89868809D01*
X204418428Y-89868809D02*
X204466047Y-89964047D01*
X204466047Y-89964047D02*
X204466047Y-90154523D01*
X204466047Y-90154523D02*
X204418428Y-90249761D01*
X204418428Y-90249761D02*
X204323190Y-90297380D01*
X204323190Y-90297380D02*
X204227952Y-90297380D01*
X204227952Y-90297380D02*
X204132714Y-89821190D01*
X204466047Y-91154523D02*
X203656523Y-91154523D01*
X203656523Y-91154523D02*
X203561285Y-91106904D01*
X203561285Y-91106904D02*
X203513666Y-91059285D01*
X203513666Y-91059285D02*
X203466047Y-90964047D01*
X203466047Y-90964047D02*
X203466047Y-90821190D01*
X203466047Y-90821190D02*
X203513666Y-90725952D01*
X203847000Y-91154523D02*
X203799380Y-91059285D01*
X203799380Y-91059285D02*
X203799380Y-90868809D01*
X203799380Y-90868809D02*
X203847000Y-90773571D01*
X203847000Y-90773571D02*
X203894619Y-90725952D01*
X203894619Y-90725952D02*
X203989857Y-90678333D01*
X203989857Y-90678333D02*
X204275571Y-90678333D01*
X204275571Y-90678333D02*
X204370809Y-90725952D01*
X204370809Y-90725952D02*
X204418428Y-90773571D01*
X204418428Y-90773571D02*
X204466047Y-90868809D01*
X204466047Y-90868809D02*
X204466047Y-91059285D01*
X204466047Y-91059285D02*
X204418428Y-91154523D01*
X203799380Y-92059285D02*
X204323190Y-92059285D01*
X204323190Y-92059285D02*
X204418428Y-92011666D01*
X204418428Y-92011666D02*
X204466047Y-91916428D01*
X204466047Y-91916428D02*
X204466047Y-91725952D01*
X204466047Y-91725952D02*
X204418428Y-91630714D01*
X203847000Y-92059285D02*
X203799380Y-91964047D01*
X203799380Y-91964047D02*
X203799380Y-91725952D01*
X203799380Y-91725952D02*
X203847000Y-91630714D01*
X203847000Y-91630714D02*
X203942238Y-91583095D01*
X203942238Y-91583095D02*
X204037476Y-91583095D01*
X204037476Y-91583095D02*
X204132714Y-91630714D01*
X204132714Y-91630714D02*
X204180333Y-91725952D01*
X204180333Y-91725952D02*
X204180333Y-91964047D01*
X204180333Y-91964047D02*
X204227952Y-92059285D01*
X203894619Y-93106904D02*
X203847000Y-93059285D01*
X203847000Y-93059285D02*
X203799380Y-92916428D01*
X203799380Y-92916428D02*
X203799380Y-92821190D01*
X203799380Y-92821190D02*
X203847000Y-92678333D01*
X203847000Y-92678333D02*
X203942238Y-92583095D01*
X203942238Y-92583095D02*
X204037476Y-92535476D01*
X204037476Y-92535476D02*
X204227952Y-92487857D01*
X204227952Y-92487857D02*
X204370809Y-92487857D01*
X204370809Y-92487857D02*
X204561285Y-92535476D01*
X204561285Y-92535476D02*
X204656523Y-92583095D01*
X204656523Y-92583095D02*
X204751761Y-92678333D01*
X204751761Y-92678333D02*
X204799380Y-92821190D01*
X204799380Y-92821190D02*
X204799380Y-92916428D01*
X204799380Y-92916428D02*
X204751761Y-93059285D01*
X204751761Y-93059285D02*
X204704142Y-93106904D01*
X203799380Y-93535476D02*
X204799380Y-93535476D01*
X204799380Y-93535476D02*
X204799380Y-93773571D01*
X204799380Y-93773571D02*
X204751761Y-93916428D01*
X204751761Y-93916428D02*
X204656523Y-94011666D01*
X204656523Y-94011666D02*
X204561285Y-94059285D01*
X204561285Y-94059285D02*
X204370809Y-94106904D01*
X204370809Y-94106904D02*
X204227952Y-94106904D01*
X204227952Y-94106904D02*
X204037476Y-94059285D01*
X204037476Y-94059285D02*
X203942238Y-94011666D01*
X203942238Y-94011666D02*
X203847000Y-93916428D01*
X203847000Y-93916428D02*
X203799380Y-93773571D01*
X203799380Y-93773571D02*
X203799380Y-93535476D01*
X204466047Y-95202143D02*
X203799380Y-95440238D01*
X203799380Y-95440238D02*
X204466047Y-95678333D01*
X204704142Y-96011667D02*
X204751761Y-96059286D01*
X204751761Y-96059286D02*
X204799380Y-96154524D01*
X204799380Y-96154524D02*
X204799380Y-96392619D01*
X204799380Y-96392619D02*
X204751761Y-96487857D01*
X204751761Y-96487857D02*
X204704142Y-96535476D01*
X204704142Y-96535476D02*
X204608904Y-96583095D01*
X204608904Y-96583095D02*
X204513666Y-96583095D01*
X204513666Y-96583095D02*
X204370809Y-96535476D01*
X204370809Y-96535476D02*
X203799380Y-95964048D01*
X203799380Y-95964048D02*
X203799380Y-96583095D01*
X203894619Y-97011667D02*
X203847000Y-97059286D01*
X203847000Y-97059286D02*
X203799380Y-97011667D01*
X203799380Y-97011667D02*
X203847000Y-96964048D01*
X203847000Y-96964048D02*
X203894619Y-97011667D01*
X203894619Y-97011667D02*
X203799380Y-97011667D01*
X204704142Y-97440238D02*
X204751761Y-97487857D01*
X204751761Y-97487857D02*
X204799380Y-97583095D01*
X204799380Y-97583095D02*
X204799380Y-97821190D01*
X204799380Y-97821190D02*
X204751761Y-97916428D01*
X204751761Y-97916428D02*
X204704142Y-97964047D01*
X204704142Y-97964047D02*
X204608904Y-98011666D01*
X204608904Y-98011666D02*
X204513666Y-98011666D01*
X204513666Y-98011666D02*
X204370809Y-97964047D01*
X204370809Y-97964047D02*
X203799380Y-97392619D01*
X203799380Y-97392619D02*
X203799380Y-98011666D01*
X202274619Y-86511665D02*
X202227000Y-86464046D01*
X202227000Y-86464046D02*
X202179380Y-86321189D01*
X202179380Y-86321189D02*
X202179380Y-86225951D01*
X202179380Y-86225951D02*
X202227000Y-86083094D01*
X202227000Y-86083094D02*
X202322238Y-85987856D01*
X202322238Y-85987856D02*
X202417476Y-85940237D01*
X202417476Y-85940237D02*
X202607952Y-85892618D01*
X202607952Y-85892618D02*
X202750809Y-85892618D01*
X202750809Y-85892618D02*
X202941285Y-85940237D01*
X202941285Y-85940237D02*
X203036523Y-85987856D01*
X203036523Y-85987856D02*
X203131761Y-86083094D01*
X203131761Y-86083094D02*
X203179380Y-86225951D01*
X203179380Y-86225951D02*
X203179380Y-86321189D01*
X203179380Y-86321189D02*
X203131761Y-86464046D01*
X203131761Y-86464046D02*
X203084142Y-86511665D01*
X202179380Y-87083094D02*
X202227000Y-86987856D01*
X202227000Y-86987856D02*
X202274619Y-86940237D01*
X202274619Y-86940237D02*
X202369857Y-86892618D01*
X202369857Y-86892618D02*
X202655571Y-86892618D01*
X202655571Y-86892618D02*
X202750809Y-86940237D01*
X202750809Y-86940237D02*
X202798428Y-86987856D01*
X202798428Y-86987856D02*
X202846047Y-87083094D01*
X202846047Y-87083094D02*
X202846047Y-87225951D01*
X202846047Y-87225951D02*
X202798428Y-87321189D01*
X202798428Y-87321189D02*
X202750809Y-87368808D01*
X202750809Y-87368808D02*
X202655571Y-87416427D01*
X202655571Y-87416427D02*
X202369857Y-87416427D01*
X202369857Y-87416427D02*
X202274619Y-87368808D01*
X202274619Y-87368808D02*
X202227000Y-87321189D01*
X202227000Y-87321189D02*
X202179380Y-87225951D01*
X202179380Y-87225951D02*
X202179380Y-87083094D01*
X202846047Y-87844999D02*
X202179380Y-87844999D01*
X202750809Y-87844999D02*
X202798428Y-87892618D01*
X202798428Y-87892618D02*
X202846047Y-87987856D01*
X202846047Y-87987856D02*
X202846047Y-88130713D01*
X202846047Y-88130713D02*
X202798428Y-88225951D01*
X202798428Y-88225951D02*
X202703190Y-88273570D01*
X202703190Y-88273570D02*
X202179380Y-88273570D01*
X202846047Y-88749761D02*
X202179380Y-88749761D01*
X202750809Y-88749761D02*
X202798428Y-88797380D01*
X202798428Y-88797380D02*
X202846047Y-88892618D01*
X202846047Y-88892618D02*
X202846047Y-89035475D01*
X202846047Y-89035475D02*
X202798428Y-89130713D01*
X202798428Y-89130713D02*
X202703190Y-89178332D01*
X202703190Y-89178332D02*
X202179380Y-89178332D01*
X202227000Y-90035475D02*
X202179380Y-89940237D01*
X202179380Y-89940237D02*
X202179380Y-89749761D01*
X202179380Y-89749761D02*
X202227000Y-89654523D01*
X202227000Y-89654523D02*
X202322238Y-89606904D01*
X202322238Y-89606904D02*
X202703190Y-89606904D01*
X202703190Y-89606904D02*
X202798428Y-89654523D01*
X202798428Y-89654523D02*
X202846047Y-89749761D01*
X202846047Y-89749761D02*
X202846047Y-89940237D01*
X202846047Y-89940237D02*
X202798428Y-90035475D01*
X202798428Y-90035475D02*
X202703190Y-90083094D01*
X202703190Y-90083094D02*
X202607952Y-90083094D01*
X202607952Y-90083094D02*
X202512714Y-89606904D01*
X202227000Y-90940237D02*
X202179380Y-90844999D01*
X202179380Y-90844999D02*
X202179380Y-90654523D01*
X202179380Y-90654523D02*
X202227000Y-90559285D01*
X202227000Y-90559285D02*
X202274619Y-90511666D01*
X202274619Y-90511666D02*
X202369857Y-90464047D01*
X202369857Y-90464047D02*
X202655571Y-90464047D01*
X202655571Y-90464047D02*
X202750809Y-90511666D01*
X202750809Y-90511666D02*
X202798428Y-90559285D01*
X202798428Y-90559285D02*
X202846047Y-90654523D01*
X202846047Y-90654523D02*
X202846047Y-90844999D01*
X202846047Y-90844999D02*
X202798428Y-90940237D01*
X202846047Y-91225952D02*
X202846047Y-91606904D01*
X203179380Y-91368809D02*
X202322238Y-91368809D01*
X202322238Y-91368809D02*
X202227000Y-91416428D01*
X202227000Y-91416428D02*
X202179380Y-91511666D01*
X202179380Y-91511666D02*
X202179380Y-91606904D01*
X202703190Y-93035476D02*
X202655571Y-93178333D01*
X202655571Y-93178333D02*
X202607952Y-93225952D01*
X202607952Y-93225952D02*
X202512714Y-93273571D01*
X202512714Y-93273571D02*
X202369857Y-93273571D01*
X202369857Y-93273571D02*
X202274619Y-93225952D01*
X202274619Y-93225952D02*
X202227000Y-93178333D01*
X202227000Y-93178333D02*
X202179380Y-93083095D01*
X202179380Y-93083095D02*
X202179380Y-92702143D01*
X202179380Y-92702143D02*
X203179380Y-92702143D01*
X203179380Y-92702143D02*
X203179380Y-93035476D01*
X203179380Y-93035476D02*
X203131761Y-93130714D01*
X203131761Y-93130714D02*
X203084142Y-93178333D01*
X203084142Y-93178333D02*
X202988904Y-93225952D01*
X202988904Y-93225952D02*
X202893666Y-93225952D01*
X202893666Y-93225952D02*
X202798428Y-93178333D01*
X202798428Y-93178333D02*
X202750809Y-93130714D01*
X202750809Y-93130714D02*
X202703190Y-93035476D01*
X202703190Y-93035476D02*
X202703190Y-92702143D01*
X202179380Y-93702143D02*
X203179380Y-93702143D01*
X203179380Y-93702143D02*
X203179380Y-93940238D01*
X203179380Y-93940238D02*
X203131761Y-94083095D01*
X203131761Y-94083095D02*
X203036523Y-94178333D01*
X203036523Y-94178333D02*
X202941285Y-94225952D01*
X202941285Y-94225952D02*
X202750809Y-94273571D01*
X202750809Y-94273571D02*
X202607952Y-94273571D01*
X202607952Y-94273571D02*
X202417476Y-94225952D01*
X202417476Y-94225952D02*
X202322238Y-94178333D01*
X202322238Y-94178333D02*
X202227000Y-94083095D01*
X202227000Y-94083095D02*
X202179380Y-93940238D01*
X202179380Y-93940238D02*
X202179380Y-93702143D01*
X202179380Y-96035476D02*
X202655571Y-95702143D01*
X202179380Y-95464048D02*
X203179380Y-95464048D01*
X203179380Y-95464048D02*
X203179380Y-95845000D01*
X203179380Y-95845000D02*
X203131761Y-95940238D01*
X203131761Y-95940238D02*
X203084142Y-95987857D01*
X203084142Y-95987857D02*
X202988904Y-96035476D01*
X202988904Y-96035476D02*
X202846047Y-96035476D01*
X202846047Y-96035476D02*
X202750809Y-95987857D01*
X202750809Y-95987857D02*
X202703190Y-95940238D01*
X202703190Y-95940238D02*
X202655571Y-95845000D01*
X202655571Y-95845000D02*
X202655571Y-95464048D01*
X202227000Y-96845000D02*
X202179380Y-96749762D01*
X202179380Y-96749762D02*
X202179380Y-96559286D01*
X202179380Y-96559286D02*
X202227000Y-96464048D01*
X202227000Y-96464048D02*
X202322238Y-96416429D01*
X202322238Y-96416429D02*
X202703190Y-96416429D01*
X202703190Y-96416429D02*
X202798428Y-96464048D01*
X202798428Y-96464048D02*
X202846047Y-96559286D01*
X202846047Y-96559286D02*
X202846047Y-96749762D01*
X202846047Y-96749762D02*
X202798428Y-96845000D01*
X202798428Y-96845000D02*
X202703190Y-96892619D01*
X202703190Y-96892619D02*
X202607952Y-96892619D01*
X202607952Y-96892619D02*
X202512714Y-96416429D01*
X202179380Y-97321191D02*
X202846047Y-97321191D01*
X202750809Y-97321191D02*
X202798428Y-97368810D01*
X202798428Y-97368810D02*
X202846047Y-97464048D01*
X202846047Y-97464048D02*
X202846047Y-97606905D01*
X202846047Y-97606905D02*
X202798428Y-97702143D01*
X202798428Y-97702143D02*
X202703190Y-97749762D01*
X202703190Y-97749762D02*
X202179380Y-97749762D01*
X202703190Y-97749762D02*
X202798428Y-97797381D01*
X202798428Y-97797381D02*
X202846047Y-97892619D01*
X202846047Y-97892619D02*
X202846047Y-98035476D01*
X202846047Y-98035476D02*
X202798428Y-98130715D01*
X202798428Y-98130715D02*
X202703190Y-98178334D01*
X202703190Y-98178334D02*
X202179380Y-98178334D01*
X202179380Y-99083095D02*
X202703190Y-99083095D01*
X202703190Y-99083095D02*
X202798428Y-99035476D01*
X202798428Y-99035476D02*
X202846047Y-98940238D01*
X202846047Y-98940238D02*
X202846047Y-98749762D01*
X202846047Y-98749762D02*
X202798428Y-98654524D01*
X202227000Y-99083095D02*
X202179380Y-98987857D01*
X202179380Y-98987857D02*
X202179380Y-98749762D01*
X202179380Y-98749762D02*
X202227000Y-98654524D01*
X202227000Y-98654524D02*
X202322238Y-98606905D01*
X202322238Y-98606905D02*
X202417476Y-98606905D01*
X202417476Y-98606905D02*
X202512714Y-98654524D01*
X202512714Y-98654524D02*
X202560333Y-98749762D01*
X202560333Y-98749762D02*
X202560333Y-98987857D01*
X202560333Y-98987857D02*
X202607952Y-99083095D01*
X202179380Y-99559286D02*
X203179380Y-99559286D01*
X202560333Y-99654524D02*
X202179380Y-99940238D01*
X202846047Y-99940238D02*
X202465095Y-99559286D01*
X202227000Y-100749762D02*
X202179380Y-100654524D01*
X202179380Y-100654524D02*
X202179380Y-100464048D01*
X202179380Y-100464048D02*
X202227000Y-100368810D01*
X202227000Y-100368810D02*
X202322238Y-100321191D01*
X202322238Y-100321191D02*
X202703190Y-100321191D01*
X202703190Y-100321191D02*
X202798428Y-100368810D01*
X202798428Y-100368810D02*
X202846047Y-100464048D01*
X202846047Y-100464048D02*
X202846047Y-100654524D01*
X202846047Y-100654524D02*
X202798428Y-100749762D01*
X202798428Y-100749762D02*
X202703190Y-100797381D01*
X202703190Y-100797381D02*
X202607952Y-100797381D01*
X202607952Y-100797381D02*
X202512714Y-100321191D01*
X113220428Y-89427809D02*
X113363285Y-89475428D01*
X113363285Y-89475428D02*
X113410904Y-89523047D01*
X113410904Y-89523047D02*
X113458523Y-89618285D01*
X113458523Y-89618285D02*
X113458523Y-89761142D01*
X113458523Y-89761142D02*
X113410904Y-89856380D01*
X113410904Y-89856380D02*
X113363285Y-89904000D01*
X113363285Y-89904000D02*
X113268047Y-89951619D01*
X113268047Y-89951619D02*
X112887095Y-89951619D01*
X112887095Y-89951619D02*
X112887095Y-88951619D01*
X112887095Y-88951619D02*
X113220428Y-88951619D01*
X113220428Y-88951619D02*
X113315666Y-88999238D01*
X113315666Y-88999238D02*
X113363285Y-89046857D01*
X113363285Y-89046857D02*
X113410904Y-89142095D01*
X113410904Y-89142095D02*
X113410904Y-89237333D01*
X113410904Y-89237333D02*
X113363285Y-89332571D01*
X113363285Y-89332571D02*
X113315666Y-89380190D01*
X113315666Y-89380190D02*
X113220428Y-89427809D01*
X113220428Y-89427809D02*
X112887095Y-89427809D01*
X114029952Y-89951619D02*
X113934714Y-89904000D01*
X113934714Y-89904000D02*
X113887095Y-89808761D01*
X113887095Y-89808761D02*
X113887095Y-88951619D01*
X114839476Y-89951619D02*
X114839476Y-89427809D01*
X114839476Y-89427809D02*
X114791857Y-89332571D01*
X114791857Y-89332571D02*
X114696619Y-89284952D01*
X114696619Y-89284952D02*
X114506143Y-89284952D01*
X114506143Y-89284952D02*
X114410905Y-89332571D01*
X114839476Y-89904000D02*
X114744238Y-89951619D01*
X114744238Y-89951619D02*
X114506143Y-89951619D01*
X114506143Y-89951619D02*
X114410905Y-89904000D01*
X114410905Y-89904000D02*
X114363286Y-89808761D01*
X114363286Y-89808761D02*
X114363286Y-89713523D01*
X114363286Y-89713523D02*
X114410905Y-89618285D01*
X114410905Y-89618285D02*
X114506143Y-89570666D01*
X114506143Y-89570666D02*
X114744238Y-89570666D01*
X114744238Y-89570666D02*
X114839476Y-89523047D01*
X115744238Y-89904000D02*
X115649000Y-89951619D01*
X115649000Y-89951619D02*
X115458524Y-89951619D01*
X115458524Y-89951619D02*
X115363286Y-89904000D01*
X115363286Y-89904000D02*
X115315667Y-89856380D01*
X115315667Y-89856380D02*
X115268048Y-89761142D01*
X115268048Y-89761142D02*
X115268048Y-89475428D01*
X115268048Y-89475428D02*
X115315667Y-89380190D01*
X115315667Y-89380190D02*
X115363286Y-89332571D01*
X115363286Y-89332571D02*
X115458524Y-89284952D01*
X115458524Y-89284952D02*
X115649000Y-89284952D01*
X115649000Y-89284952D02*
X115744238Y-89332571D01*
X116172810Y-89951619D02*
X116172810Y-88951619D01*
X116268048Y-89570666D02*
X116553762Y-89951619D01*
X116553762Y-89284952D02*
X116172810Y-89665904D01*
X112744238Y-90571619D02*
X113315666Y-90571619D01*
X113029952Y-91571619D02*
X113029952Y-90571619D01*
X113649000Y-91571619D02*
X113649000Y-90571619D01*
X113649000Y-91047809D02*
X114220428Y-91047809D01*
X114220428Y-91571619D02*
X114220428Y-90571619D01*
X115220428Y-91571619D02*
X114649000Y-91571619D01*
X114934714Y-91571619D02*
X114934714Y-90571619D01*
X114934714Y-90571619D02*
X114839476Y-90714476D01*
X114839476Y-90714476D02*
X114744238Y-90809714D01*
X114744238Y-90809714D02*
X114649000Y-90857333D01*
X143464619Y-96099189D02*
X142464619Y-96099189D01*
X143369380Y-95051571D02*
X143417000Y-95099190D01*
X143417000Y-95099190D02*
X143464619Y-95242047D01*
X143464619Y-95242047D02*
X143464619Y-95337285D01*
X143464619Y-95337285D02*
X143417000Y-95480142D01*
X143417000Y-95480142D02*
X143321761Y-95575380D01*
X143321761Y-95575380D02*
X143226523Y-95622999D01*
X143226523Y-95622999D02*
X143036047Y-95670618D01*
X143036047Y-95670618D02*
X142893190Y-95670618D01*
X142893190Y-95670618D02*
X142702714Y-95622999D01*
X142702714Y-95622999D02*
X142607476Y-95575380D01*
X142607476Y-95575380D02*
X142512238Y-95480142D01*
X142512238Y-95480142D02*
X142464619Y-95337285D01*
X142464619Y-95337285D02*
X142464619Y-95242047D01*
X142464619Y-95242047D02*
X142512238Y-95099190D01*
X142512238Y-95099190D02*
X142559857Y-95051571D01*
X142464619Y-94146809D02*
X142464619Y-94622999D01*
X142464619Y-94622999D02*
X142940809Y-94670618D01*
X142940809Y-94670618D02*
X142893190Y-94622999D01*
X142893190Y-94622999D02*
X142845571Y-94527761D01*
X142845571Y-94527761D02*
X142845571Y-94289666D01*
X142845571Y-94289666D02*
X142893190Y-94194428D01*
X142893190Y-94194428D02*
X142940809Y-94146809D01*
X142940809Y-94146809D02*
X143036047Y-94099190D01*
X143036047Y-94099190D02*
X143274142Y-94099190D01*
X143274142Y-94099190D02*
X143369380Y-94146809D01*
X143369380Y-94146809D02*
X143417000Y-94194428D01*
X143417000Y-94194428D02*
X143464619Y-94289666D01*
X143464619Y-94289666D02*
X143464619Y-94527761D01*
X143464619Y-94527761D02*
X143417000Y-94622999D01*
X143417000Y-94622999D02*
X143369380Y-94670618D01*
X142464619Y-91907904D02*
X142464619Y-91241238D01*
X142464619Y-91241238D02*
X143464619Y-91669809D01*
X142797952Y-90431714D02*
X143464619Y-90431714D01*
X142417000Y-90669809D02*
X143131285Y-90907904D01*
X143131285Y-90907904D02*
X143131285Y-90288857D01*
X143464619Y-89907904D02*
X142464619Y-89907904D01*
X142940809Y-89907904D02*
X142940809Y-89336476D01*
X143464619Y-89336476D02*
X142464619Y-89336476D01*
X143369380Y-88288857D02*
X143417000Y-88336476D01*
X143417000Y-88336476D02*
X143464619Y-88479333D01*
X143464619Y-88479333D02*
X143464619Y-88574571D01*
X143464619Y-88574571D02*
X143417000Y-88717428D01*
X143417000Y-88717428D02*
X143321761Y-88812666D01*
X143321761Y-88812666D02*
X143226523Y-88860285D01*
X143226523Y-88860285D02*
X143036047Y-88907904D01*
X143036047Y-88907904D02*
X142893190Y-88907904D01*
X142893190Y-88907904D02*
X142702714Y-88860285D01*
X142702714Y-88860285D02*
X142607476Y-88812666D01*
X142607476Y-88812666D02*
X142512238Y-88717428D01*
X142512238Y-88717428D02*
X142464619Y-88574571D01*
X142464619Y-88574571D02*
X142464619Y-88479333D01*
X142464619Y-88479333D02*
X142512238Y-88336476D01*
X142512238Y-88336476D02*
X142559857Y-88288857D01*
X142559857Y-87907904D02*
X142512238Y-87860285D01*
X142512238Y-87860285D02*
X142464619Y-87765047D01*
X142464619Y-87765047D02*
X142464619Y-87526952D01*
X142464619Y-87526952D02*
X142512238Y-87431714D01*
X142512238Y-87431714D02*
X142559857Y-87384095D01*
X142559857Y-87384095D02*
X142655095Y-87336476D01*
X142655095Y-87336476D02*
X142750333Y-87336476D01*
X142750333Y-87336476D02*
X142893190Y-87384095D01*
X142893190Y-87384095D02*
X143464619Y-87955523D01*
X143464619Y-87955523D02*
X143464619Y-87336476D01*
X142797952Y-86479333D02*
X143464619Y-86479333D01*
X142417000Y-86717428D02*
X143131285Y-86955523D01*
X143131285Y-86955523D02*
X143131285Y-86336476D01*
X142464619Y-85479333D02*
X142464619Y-85955523D01*
X142464619Y-85955523D02*
X142940809Y-86003142D01*
X142940809Y-86003142D02*
X142893190Y-85955523D01*
X142893190Y-85955523D02*
X142845571Y-85860285D01*
X142845571Y-85860285D02*
X142845571Y-85622190D01*
X142845571Y-85622190D02*
X142893190Y-85526952D01*
X142893190Y-85526952D02*
X142940809Y-85479333D01*
X142940809Y-85479333D02*
X143036047Y-85431714D01*
X143036047Y-85431714D02*
X143274142Y-85431714D01*
X143274142Y-85431714D02*
X143369380Y-85479333D01*
X143369380Y-85479333D02*
X143417000Y-85526952D01*
X143417000Y-85526952D02*
X143464619Y-85622190D01*
X143464619Y-85622190D02*
X143464619Y-85860285D01*
X143464619Y-85860285D02*
X143417000Y-85955523D01*
X143417000Y-85955523D02*
X143369380Y-86003142D01*
X123608619Y-96099189D02*
X122608619Y-96099189D01*
X123513380Y-95051571D02*
X123561000Y-95099190D01*
X123561000Y-95099190D02*
X123608619Y-95242047D01*
X123608619Y-95242047D02*
X123608619Y-95337285D01*
X123608619Y-95337285D02*
X123561000Y-95480142D01*
X123561000Y-95480142D02*
X123465761Y-95575380D01*
X123465761Y-95575380D02*
X123370523Y-95622999D01*
X123370523Y-95622999D02*
X123180047Y-95670618D01*
X123180047Y-95670618D02*
X123037190Y-95670618D01*
X123037190Y-95670618D02*
X122846714Y-95622999D01*
X122846714Y-95622999D02*
X122751476Y-95575380D01*
X122751476Y-95575380D02*
X122656238Y-95480142D01*
X122656238Y-95480142D02*
X122608619Y-95337285D01*
X122608619Y-95337285D02*
X122608619Y-95242047D01*
X122608619Y-95242047D02*
X122656238Y-95099190D01*
X122656238Y-95099190D02*
X122703857Y-95051571D01*
X122941952Y-94194428D02*
X123608619Y-94194428D01*
X122561000Y-94432523D02*
X123275285Y-94670618D01*
X123275285Y-94670618D02*
X123275285Y-94051571D01*
X122608619Y-91071428D02*
X122608619Y-90404762D01*
X122608619Y-90404762D02*
X123608619Y-90833333D01*
X122941952Y-89595238D02*
X123608619Y-89595238D01*
X122561000Y-89833333D02*
X123275285Y-90071428D01*
X123275285Y-90071428D02*
X123275285Y-89452381D01*
X123322904Y-89119047D02*
X123322904Y-88642857D01*
X123608619Y-89214285D02*
X122608619Y-88880952D01*
X122608619Y-88880952D02*
X123608619Y-88547619D01*
X123513380Y-87642857D02*
X123561000Y-87690476D01*
X123561000Y-87690476D02*
X123608619Y-87833333D01*
X123608619Y-87833333D02*
X123608619Y-87928571D01*
X123608619Y-87928571D02*
X123561000Y-88071428D01*
X123561000Y-88071428D02*
X123465761Y-88166666D01*
X123465761Y-88166666D02*
X123370523Y-88214285D01*
X123370523Y-88214285D02*
X123180047Y-88261904D01*
X123180047Y-88261904D02*
X123037190Y-88261904D01*
X123037190Y-88261904D02*
X122846714Y-88214285D01*
X122846714Y-88214285D02*
X122751476Y-88166666D01*
X122751476Y-88166666D02*
X122656238Y-88071428D01*
X122656238Y-88071428D02*
X122608619Y-87928571D01*
X122608619Y-87928571D02*
X122608619Y-87833333D01*
X122608619Y-87833333D02*
X122656238Y-87690476D01*
X122656238Y-87690476D02*
X122703857Y-87642857D01*
X122608619Y-87357142D02*
X122608619Y-86785714D01*
X123608619Y-87071428D02*
X122608619Y-87071428D01*
X123608619Y-85928571D02*
X123608619Y-86499999D01*
X123608619Y-86214285D02*
X122608619Y-86214285D01*
X122608619Y-86214285D02*
X122751476Y-86309523D01*
X122751476Y-86309523D02*
X122846714Y-86404761D01*
X122846714Y-86404761D02*
X122894333Y-86499999D01*
X122608619Y-85309523D02*
X122608619Y-85214285D01*
X122608619Y-85214285D02*
X122656238Y-85119047D01*
X122656238Y-85119047D02*
X122703857Y-85071428D01*
X122703857Y-85071428D02*
X122799095Y-85023809D01*
X122799095Y-85023809D02*
X122989571Y-84976190D01*
X122989571Y-84976190D02*
X123227666Y-84976190D01*
X123227666Y-84976190D02*
X123418142Y-85023809D01*
X123418142Y-85023809D02*
X123513380Y-85071428D01*
X123513380Y-85071428D02*
X123561000Y-85119047D01*
X123561000Y-85119047D02*
X123608619Y-85214285D01*
X123608619Y-85214285D02*
X123608619Y-85309523D01*
X123608619Y-85309523D02*
X123561000Y-85404761D01*
X123561000Y-85404761D02*
X123513380Y-85452380D01*
X123513380Y-85452380D02*
X123418142Y-85499999D01*
X123418142Y-85499999D02*
X123227666Y-85547618D01*
X123227666Y-85547618D02*
X122989571Y-85547618D01*
X122989571Y-85547618D02*
X122799095Y-85499999D01*
X122799095Y-85499999D02*
X122703857Y-85452380D01*
X122703857Y-85452380D02*
X122656238Y-85404761D01*
X122656238Y-85404761D02*
X122608619Y-85309523D01*
X171150619Y-107656189D02*
X170150619Y-107656189D01*
X171055380Y-106608571D02*
X171103000Y-106656190D01*
X171103000Y-106656190D02*
X171150619Y-106799047D01*
X171150619Y-106799047D02*
X171150619Y-106894285D01*
X171150619Y-106894285D02*
X171103000Y-107037142D01*
X171103000Y-107037142D02*
X171007761Y-107132380D01*
X171007761Y-107132380D02*
X170912523Y-107179999D01*
X170912523Y-107179999D02*
X170722047Y-107227618D01*
X170722047Y-107227618D02*
X170579190Y-107227618D01*
X170579190Y-107227618D02*
X170388714Y-107179999D01*
X170388714Y-107179999D02*
X170293476Y-107132380D01*
X170293476Y-107132380D02*
X170198238Y-107037142D01*
X170198238Y-107037142D02*
X170150619Y-106894285D01*
X170150619Y-106894285D02*
X170150619Y-106799047D01*
X170150619Y-106799047D02*
X170198238Y-106656190D01*
X170198238Y-106656190D02*
X170245857Y-106608571D01*
X170150619Y-106275237D02*
X170150619Y-105656190D01*
X170150619Y-105656190D02*
X170531571Y-105989523D01*
X170531571Y-105989523D02*
X170531571Y-105846666D01*
X170531571Y-105846666D02*
X170579190Y-105751428D01*
X170579190Y-105751428D02*
X170626809Y-105703809D01*
X170626809Y-105703809D02*
X170722047Y-105656190D01*
X170722047Y-105656190D02*
X170960142Y-105656190D01*
X170960142Y-105656190D02*
X171055380Y-105703809D01*
X171055380Y-105703809D02*
X171103000Y-105751428D01*
X171103000Y-105751428D02*
X171150619Y-105846666D01*
X171150619Y-105846666D02*
X171150619Y-106132380D01*
X171150619Y-106132380D02*
X171103000Y-106227618D01*
X171103000Y-106227618D02*
X171055380Y-106275237D01*
X170150619Y-103591904D02*
X170150619Y-102925238D01*
X170150619Y-102925238D02*
X171150619Y-103353809D01*
X170483952Y-102115714D02*
X171150619Y-102115714D01*
X170103000Y-102353809D02*
X170817285Y-102591904D01*
X170817285Y-102591904D02*
X170817285Y-101972857D01*
X171150619Y-101591904D02*
X170150619Y-101591904D01*
X170626809Y-101591904D02*
X170626809Y-101020476D01*
X171150619Y-101020476D02*
X170150619Y-101020476D01*
X171055380Y-99972857D02*
X171103000Y-100020476D01*
X171103000Y-100020476D02*
X171150619Y-100163333D01*
X171150619Y-100163333D02*
X171150619Y-100258571D01*
X171150619Y-100258571D02*
X171103000Y-100401428D01*
X171103000Y-100401428D02*
X171007761Y-100496666D01*
X171007761Y-100496666D02*
X170912523Y-100544285D01*
X170912523Y-100544285D02*
X170722047Y-100591904D01*
X170722047Y-100591904D02*
X170579190Y-100591904D01*
X170579190Y-100591904D02*
X170388714Y-100544285D01*
X170388714Y-100544285D02*
X170293476Y-100496666D01*
X170293476Y-100496666D02*
X170198238Y-100401428D01*
X170198238Y-100401428D02*
X170150619Y-100258571D01*
X170150619Y-100258571D02*
X170150619Y-100163333D01*
X170150619Y-100163333D02*
X170198238Y-100020476D01*
X170198238Y-100020476D02*
X170245857Y-99972857D01*
X170150619Y-99639523D02*
X170150619Y-99020476D01*
X170150619Y-99020476D02*
X170531571Y-99353809D01*
X170531571Y-99353809D02*
X170531571Y-99210952D01*
X170531571Y-99210952D02*
X170579190Y-99115714D01*
X170579190Y-99115714D02*
X170626809Y-99068095D01*
X170626809Y-99068095D02*
X170722047Y-99020476D01*
X170722047Y-99020476D02*
X170960142Y-99020476D01*
X170960142Y-99020476D02*
X171055380Y-99068095D01*
X171055380Y-99068095D02*
X171103000Y-99115714D01*
X171103000Y-99115714D02*
X171150619Y-99210952D01*
X171150619Y-99210952D02*
X171150619Y-99496666D01*
X171150619Y-99496666D02*
X171103000Y-99591904D01*
X171103000Y-99591904D02*
X171055380Y-99639523D01*
X170150619Y-98687142D02*
X170150619Y-98020476D01*
X170150619Y-98020476D02*
X171150619Y-98449047D01*
X170483952Y-97210952D02*
X171150619Y-97210952D01*
X170103000Y-97449047D02*
X170817285Y-97687142D01*
X170817285Y-97687142D02*
X170817285Y-97068095D01*
X118030666Y-91918619D02*
X118030666Y-92632904D01*
X118030666Y-92632904D02*
X117983047Y-92775761D01*
X117983047Y-92775761D02*
X117887809Y-92871000D01*
X117887809Y-92871000D02*
X117744952Y-92918619D01*
X117744952Y-92918619D02*
X117649714Y-92918619D01*
X118411619Y-91918619D02*
X119030666Y-91918619D01*
X119030666Y-91918619D02*
X118697333Y-92299571D01*
X118697333Y-92299571D02*
X118840190Y-92299571D01*
X118840190Y-92299571D02*
X118935428Y-92347190D01*
X118935428Y-92347190D02*
X118983047Y-92394809D01*
X118983047Y-92394809D02*
X119030666Y-92490047D01*
X119030666Y-92490047D02*
X119030666Y-92728142D01*
X119030666Y-92728142D02*
X118983047Y-92823380D01*
X118983047Y-92823380D02*
X118935428Y-92871000D01*
X118935428Y-92871000D02*
X118840190Y-92918619D01*
X118840190Y-92918619D02*
X118554476Y-92918619D01*
X118554476Y-92918619D02*
X118459238Y-92871000D01*
X118459238Y-92871000D02*
X118411619Y-92823380D01*
X113919571Y-83790619D02*
X114490999Y-83790619D01*
X114205285Y-84790619D02*
X114205285Y-83790619D01*
X115395761Y-84790619D02*
X115062428Y-84314428D01*
X114824333Y-84790619D02*
X114824333Y-83790619D01*
X114824333Y-83790619D02*
X115205285Y-83790619D01*
X115205285Y-83790619D02*
X115300523Y-83838238D01*
X115300523Y-83838238D02*
X115348142Y-83885857D01*
X115348142Y-83885857D02*
X115395761Y-83981095D01*
X115395761Y-83981095D02*
X115395761Y-84123952D01*
X115395761Y-84123952D02*
X115348142Y-84219190D01*
X115348142Y-84219190D02*
X115300523Y-84266809D01*
X115300523Y-84266809D02*
X115205285Y-84314428D01*
X115205285Y-84314428D02*
X114824333Y-84314428D01*
X115824333Y-84266809D02*
X116157666Y-84266809D01*
X116300523Y-84790619D02*
X115824333Y-84790619D01*
X115824333Y-84790619D02*
X115824333Y-83790619D01*
X115824333Y-83790619D02*
X116300523Y-83790619D01*
X116729095Y-84266809D02*
X117062428Y-84266809D01*
X117205285Y-84790619D02*
X116729095Y-84790619D01*
X116729095Y-84790619D02*
X116729095Y-83790619D01*
X116729095Y-83790619D02*
X117205285Y-83790619D01*
X118395762Y-84790619D02*
X118395762Y-83790619D01*
X118395762Y-84266809D02*
X118967190Y-84266809D01*
X118967190Y-84790619D02*
X118967190Y-83790619D01*
X119633857Y-83790619D02*
X119824333Y-83790619D01*
X119824333Y-83790619D02*
X119919571Y-83838238D01*
X119919571Y-83838238D02*
X120014809Y-83933476D01*
X120014809Y-83933476D02*
X120062428Y-84123952D01*
X120062428Y-84123952D02*
X120062428Y-84457285D01*
X120062428Y-84457285D02*
X120014809Y-84647761D01*
X120014809Y-84647761D02*
X119919571Y-84743000D01*
X119919571Y-84743000D02*
X119824333Y-84790619D01*
X119824333Y-84790619D02*
X119633857Y-84790619D01*
X119633857Y-84790619D02*
X119538619Y-84743000D01*
X119538619Y-84743000D02*
X119443381Y-84647761D01*
X119443381Y-84647761D02*
X119395762Y-84457285D01*
X119395762Y-84457285D02*
X119395762Y-84123952D01*
X119395762Y-84123952D02*
X119443381Y-83933476D01*
X119443381Y-83933476D02*
X119538619Y-83838238D01*
X119538619Y-83838238D02*
X119633857Y-83790619D01*
X120491000Y-83790619D02*
X120491000Y-84600142D01*
X120491000Y-84600142D02*
X120538619Y-84695380D01*
X120538619Y-84695380D02*
X120586238Y-84743000D01*
X120586238Y-84743000D02*
X120681476Y-84790619D01*
X120681476Y-84790619D02*
X120871952Y-84790619D01*
X120871952Y-84790619D02*
X120967190Y-84743000D01*
X120967190Y-84743000D02*
X121014809Y-84695380D01*
X121014809Y-84695380D02*
X121062428Y-84600142D01*
X121062428Y-84600142D02*
X121062428Y-83790619D01*
X121491000Y-84743000D02*
X121633857Y-84790619D01*
X121633857Y-84790619D02*
X121871952Y-84790619D01*
X121871952Y-84790619D02*
X121967190Y-84743000D01*
X121967190Y-84743000D02*
X122014809Y-84695380D01*
X122014809Y-84695380D02*
X122062428Y-84600142D01*
X122062428Y-84600142D02*
X122062428Y-84504904D01*
X122062428Y-84504904D02*
X122014809Y-84409666D01*
X122014809Y-84409666D02*
X121967190Y-84362047D01*
X121967190Y-84362047D02*
X121871952Y-84314428D01*
X121871952Y-84314428D02*
X121681476Y-84266809D01*
X121681476Y-84266809D02*
X121586238Y-84219190D01*
X121586238Y-84219190D02*
X121538619Y-84171571D01*
X121538619Y-84171571D02*
X121491000Y-84076333D01*
X121491000Y-84076333D02*
X121491000Y-83981095D01*
X121491000Y-83981095D02*
X121538619Y-83885857D01*
X121538619Y-83885857D02*
X121586238Y-83838238D01*
X121586238Y-83838238D02*
X121681476Y-83790619D01*
X121681476Y-83790619D02*
X121919571Y-83790619D01*
X121919571Y-83790619D02*
X122062428Y-83838238D01*
X122491000Y-84266809D02*
X122824333Y-84266809D01*
X122967190Y-84790619D02*
X122491000Y-84790619D01*
X122491000Y-84790619D02*
X122491000Y-83790619D01*
X122491000Y-83790619D02*
X122967190Y-83790619D01*
X143464619Y-106976189D02*
X142464619Y-106976189D01*
X143369380Y-105928571D02*
X143417000Y-105976190D01*
X143417000Y-105976190D02*
X143464619Y-106119047D01*
X143464619Y-106119047D02*
X143464619Y-106214285D01*
X143464619Y-106214285D02*
X143417000Y-106357142D01*
X143417000Y-106357142D02*
X143321761Y-106452380D01*
X143321761Y-106452380D02*
X143226523Y-106499999D01*
X143226523Y-106499999D02*
X143036047Y-106547618D01*
X143036047Y-106547618D02*
X142893190Y-106547618D01*
X142893190Y-106547618D02*
X142702714Y-106499999D01*
X142702714Y-106499999D02*
X142607476Y-106452380D01*
X142607476Y-106452380D02*
X142512238Y-106357142D01*
X142512238Y-106357142D02*
X142464619Y-106214285D01*
X142464619Y-106214285D02*
X142464619Y-106119047D01*
X142464619Y-106119047D02*
X142512238Y-105976190D01*
X142512238Y-105976190D02*
X142559857Y-105928571D01*
X142559857Y-105547618D02*
X142512238Y-105499999D01*
X142512238Y-105499999D02*
X142464619Y-105404761D01*
X142464619Y-105404761D02*
X142464619Y-105166666D01*
X142464619Y-105166666D02*
X142512238Y-105071428D01*
X142512238Y-105071428D02*
X142559857Y-105023809D01*
X142559857Y-105023809D02*
X142655095Y-104976190D01*
X142655095Y-104976190D02*
X142750333Y-104976190D01*
X142750333Y-104976190D02*
X142893190Y-105023809D01*
X142893190Y-105023809D02*
X143464619Y-105595237D01*
X143464619Y-105595237D02*
X143464619Y-104976190D01*
X142464619Y-103464904D02*
X142464619Y-102798238D01*
X142464619Y-102798238D02*
X143464619Y-103226809D01*
X142797952Y-101988714D02*
X143464619Y-101988714D01*
X142417000Y-102226809D02*
X143131285Y-102464904D01*
X143131285Y-102464904D02*
X143131285Y-101845857D01*
X143464619Y-101464904D02*
X142464619Y-101464904D01*
X142940809Y-101464904D02*
X142940809Y-100893476D01*
X143464619Y-100893476D02*
X142464619Y-100893476D01*
X143369380Y-99845857D02*
X143417000Y-99893476D01*
X143417000Y-99893476D02*
X143464619Y-100036333D01*
X143464619Y-100036333D02*
X143464619Y-100131571D01*
X143464619Y-100131571D02*
X143417000Y-100274428D01*
X143417000Y-100274428D02*
X143321761Y-100369666D01*
X143321761Y-100369666D02*
X143226523Y-100417285D01*
X143226523Y-100417285D02*
X143036047Y-100464904D01*
X143036047Y-100464904D02*
X142893190Y-100464904D01*
X142893190Y-100464904D02*
X142702714Y-100417285D01*
X142702714Y-100417285D02*
X142607476Y-100369666D01*
X142607476Y-100369666D02*
X142512238Y-100274428D01*
X142512238Y-100274428D02*
X142464619Y-100131571D01*
X142464619Y-100131571D02*
X142464619Y-100036333D01*
X142464619Y-100036333D02*
X142512238Y-99893476D01*
X142512238Y-99893476D02*
X142559857Y-99845857D01*
X142464619Y-99512523D02*
X142464619Y-98893476D01*
X142464619Y-98893476D02*
X142845571Y-99226809D01*
X142845571Y-99226809D02*
X142845571Y-99083952D01*
X142845571Y-99083952D02*
X142893190Y-98988714D01*
X142893190Y-98988714D02*
X142940809Y-98941095D01*
X142940809Y-98941095D02*
X143036047Y-98893476D01*
X143036047Y-98893476D02*
X143274142Y-98893476D01*
X143274142Y-98893476D02*
X143369380Y-98941095D01*
X143369380Y-98941095D02*
X143417000Y-98988714D01*
X143417000Y-98988714D02*
X143464619Y-99083952D01*
X143464619Y-99083952D02*
X143464619Y-99369666D01*
X143464619Y-99369666D02*
X143417000Y-99464904D01*
X143417000Y-99464904D02*
X143369380Y-99512523D01*
X142464619Y-98560142D02*
X142464619Y-97893476D01*
X142464619Y-97893476D02*
X143464619Y-98322047D01*
X142797952Y-97083952D02*
X143464619Y-97083952D01*
X142417000Y-97322047D02*
X143131285Y-97560142D01*
X143131285Y-97560142D02*
X143131285Y-96941095D01*
X168981523Y-83139619D02*
X168648190Y-82663428D01*
X168410095Y-83139619D02*
X168410095Y-82139619D01*
X168410095Y-82139619D02*
X168791047Y-82139619D01*
X168791047Y-82139619D02*
X168886285Y-82187238D01*
X168886285Y-82187238D02*
X168933904Y-82234857D01*
X168933904Y-82234857D02*
X168981523Y-82330095D01*
X168981523Y-82330095D02*
X168981523Y-82472952D01*
X168981523Y-82472952D02*
X168933904Y-82568190D01*
X168933904Y-82568190D02*
X168886285Y-82615809D01*
X168886285Y-82615809D02*
X168791047Y-82663428D01*
X168791047Y-82663428D02*
X168410095Y-82663428D01*
X169410095Y-83139619D02*
X169410095Y-82139619D01*
X169410095Y-82139619D02*
X169981523Y-83139619D01*
X169981523Y-83139619D02*
X169981523Y-82139619D01*
X170410095Y-82234857D02*
X170457714Y-82187238D01*
X170457714Y-82187238D02*
X170552952Y-82139619D01*
X170552952Y-82139619D02*
X170791047Y-82139619D01*
X170791047Y-82139619D02*
X170886285Y-82187238D01*
X170886285Y-82187238D02*
X170933904Y-82234857D01*
X170933904Y-82234857D02*
X170981523Y-82330095D01*
X170981523Y-82330095D02*
X170981523Y-82425333D01*
X170981523Y-82425333D02*
X170933904Y-82568190D01*
X170933904Y-82568190D02*
X170362476Y-83139619D01*
X170362476Y-83139619D02*
X170981523Y-83139619D01*
X194941866Y-77059619D02*
X194941866Y-77773904D01*
X194941866Y-77773904D02*
X194894247Y-77916761D01*
X194894247Y-77916761D02*
X194799009Y-78012000D01*
X194799009Y-78012000D02*
X194656152Y-78059619D01*
X194656152Y-78059619D02*
X194560914Y-78059619D01*
X195941866Y-78059619D02*
X195370438Y-78059619D01*
X195656152Y-78059619D02*
X195656152Y-77059619D01*
X195656152Y-77059619D02*
X195560914Y-77202476D01*
X195560914Y-77202476D02*
X195465676Y-77297714D01*
X195465676Y-77297714D02*
X195370438Y-77345333D01*
X108412619Y-83180428D02*
X107412619Y-83180428D01*
X107412619Y-83180428D02*
X108126904Y-82880428D01*
X108126904Y-82880428D02*
X107412619Y-82580428D01*
X107412619Y-82580428D02*
X108412619Y-82580428D01*
X108412619Y-82151857D02*
X107412619Y-82151857D01*
X107412619Y-82151857D02*
X107412619Y-81937571D01*
X107412619Y-81937571D02*
X107460238Y-81809000D01*
X107460238Y-81809000D02*
X107555476Y-81723285D01*
X107555476Y-81723285D02*
X107650714Y-81680428D01*
X107650714Y-81680428D02*
X107841190Y-81637571D01*
X107841190Y-81637571D02*
X107984047Y-81637571D01*
X107984047Y-81637571D02*
X108174523Y-81680428D01*
X108174523Y-81680428D02*
X108269761Y-81723285D01*
X108269761Y-81723285D02*
X108365000Y-81809000D01*
X108365000Y-81809000D02*
X108412619Y-81937571D01*
X108412619Y-81937571D02*
X108412619Y-82151857D01*
X107888809Y-80566143D02*
X107888809Y-80266143D01*
X108412619Y-80137571D02*
X108412619Y-80566143D01*
X108412619Y-80566143D02*
X107412619Y-80566143D01*
X107412619Y-80566143D02*
X107412619Y-80137571D01*
X107412619Y-79837571D02*
X108412619Y-79237571D01*
X107412619Y-79237571D02*
X108412619Y-79837571D01*
X108412619Y-78894714D02*
X107412619Y-78894714D01*
X107412619Y-78894714D02*
X107412619Y-78551857D01*
X107412619Y-78551857D02*
X107460238Y-78466142D01*
X107460238Y-78466142D02*
X107507857Y-78423285D01*
X107507857Y-78423285D02*
X107603095Y-78380428D01*
X107603095Y-78380428D02*
X107745952Y-78380428D01*
X107745952Y-78380428D02*
X107841190Y-78423285D01*
X107841190Y-78423285D02*
X107888809Y-78466142D01*
X107888809Y-78466142D02*
X107936428Y-78551857D01*
X107936428Y-78551857D02*
X107936428Y-78894714D01*
X108126904Y-78037571D02*
X108126904Y-77609000D01*
X108412619Y-78123285D02*
X107412619Y-77823285D01*
X107412619Y-77823285D02*
X108412619Y-77523285D01*
X108412619Y-77223285D02*
X107412619Y-77223285D01*
X107412619Y-77223285D02*
X108412619Y-76708999D01*
X108412619Y-76708999D02*
X107412619Y-76708999D01*
X108365000Y-76323285D02*
X108412619Y-76194714D01*
X108412619Y-76194714D02*
X108412619Y-75980428D01*
X108412619Y-75980428D02*
X108365000Y-75894714D01*
X108365000Y-75894714D02*
X108317380Y-75851856D01*
X108317380Y-75851856D02*
X108222142Y-75808999D01*
X108222142Y-75808999D02*
X108126904Y-75808999D01*
X108126904Y-75808999D02*
X108031666Y-75851856D01*
X108031666Y-75851856D02*
X107984047Y-75894714D01*
X107984047Y-75894714D02*
X107936428Y-75980428D01*
X107936428Y-75980428D02*
X107888809Y-76151856D01*
X107888809Y-76151856D02*
X107841190Y-76237571D01*
X107841190Y-76237571D02*
X107793571Y-76280428D01*
X107793571Y-76280428D02*
X107698333Y-76323285D01*
X107698333Y-76323285D02*
X107603095Y-76323285D01*
X107603095Y-76323285D02*
X107507857Y-76280428D01*
X107507857Y-76280428D02*
X107460238Y-76237571D01*
X107460238Y-76237571D02*
X107412619Y-76151856D01*
X107412619Y-76151856D02*
X107412619Y-75937571D01*
X107412619Y-75937571D02*
X107460238Y-75808999D01*
X108412619Y-75423285D02*
X107412619Y-75423285D01*
X107412619Y-74823285D02*
X107412619Y-74651857D01*
X107412619Y-74651857D02*
X107460238Y-74566142D01*
X107460238Y-74566142D02*
X107555476Y-74480428D01*
X107555476Y-74480428D02*
X107745952Y-74437571D01*
X107745952Y-74437571D02*
X108079285Y-74437571D01*
X108079285Y-74437571D02*
X108269761Y-74480428D01*
X108269761Y-74480428D02*
X108365000Y-74566142D01*
X108365000Y-74566142D02*
X108412619Y-74651857D01*
X108412619Y-74651857D02*
X108412619Y-74823285D01*
X108412619Y-74823285D02*
X108365000Y-74909000D01*
X108365000Y-74909000D02*
X108269761Y-74994714D01*
X108269761Y-74994714D02*
X108079285Y-75037571D01*
X108079285Y-75037571D02*
X107745952Y-75037571D01*
X107745952Y-75037571D02*
X107555476Y-74994714D01*
X107555476Y-74994714D02*
X107460238Y-74909000D01*
X107460238Y-74909000D02*
X107412619Y-74823285D01*
X108412619Y-74051857D02*
X107412619Y-74051857D01*
X107412619Y-74051857D02*
X108412619Y-73537571D01*
X108412619Y-73537571D02*
X107412619Y-73537571D01*
X141422523Y-83139619D02*
X141089190Y-82663428D01*
X140851095Y-83139619D02*
X140851095Y-82139619D01*
X140851095Y-82139619D02*
X141232047Y-82139619D01*
X141232047Y-82139619D02*
X141327285Y-82187238D01*
X141327285Y-82187238D02*
X141374904Y-82234857D01*
X141374904Y-82234857D02*
X141422523Y-82330095D01*
X141422523Y-82330095D02*
X141422523Y-82472952D01*
X141422523Y-82472952D02*
X141374904Y-82568190D01*
X141374904Y-82568190D02*
X141327285Y-82615809D01*
X141327285Y-82615809D02*
X141232047Y-82663428D01*
X141232047Y-82663428D02*
X140851095Y-82663428D01*
X141851095Y-83139619D02*
X141851095Y-82139619D01*
X141851095Y-82139619D02*
X142422523Y-83139619D01*
X142422523Y-83139619D02*
X142422523Y-82139619D01*
X143422523Y-83139619D02*
X142851095Y-83139619D01*
X143136809Y-83139619D02*
X143136809Y-82139619D01*
X143136809Y-82139619D02*
X143041571Y-82282476D01*
X143041571Y-82282476D02*
X142946333Y-82377714D01*
X142946333Y-82377714D02*
X142851095Y-82425333D01*
D11*
X131636238Y-84444095D02*
X131788619Y-84444095D01*
X131788619Y-84444095D02*
X131864809Y-84406000D01*
X131864809Y-84406000D02*
X131902905Y-84367904D01*
X131902905Y-84367904D02*
X131979095Y-84253619D01*
X131979095Y-84253619D02*
X132017190Y-84101238D01*
X132017190Y-84101238D02*
X132017190Y-83796476D01*
X132017190Y-83796476D02*
X131979095Y-83720285D01*
X131979095Y-83720285D02*
X131941000Y-83682190D01*
X131941000Y-83682190D02*
X131864809Y-83644095D01*
X131864809Y-83644095D02*
X131712428Y-83644095D01*
X131712428Y-83644095D02*
X131636238Y-83682190D01*
X131636238Y-83682190D02*
X131598143Y-83720285D01*
X131598143Y-83720285D02*
X131560047Y-83796476D01*
X131560047Y-83796476D02*
X131560047Y-83986952D01*
X131560047Y-83986952D02*
X131598143Y-84063142D01*
X131598143Y-84063142D02*
X131636238Y-84101238D01*
X131636238Y-84101238D02*
X131712428Y-84139333D01*
X131712428Y-84139333D02*
X131864809Y-84139333D01*
X131864809Y-84139333D02*
X131941000Y-84101238D01*
X131941000Y-84101238D02*
X131979095Y-84063142D01*
X131979095Y-84063142D02*
X132017190Y-83986952D01*
X132283857Y-83644095D02*
X132817191Y-84444095D01*
X132817191Y-83644095D02*
X132283857Y-84444095D01*
X133121953Y-84139333D02*
X133731477Y-84139333D01*
X134531476Y-84444095D02*
X134074333Y-84444095D01*
X134302905Y-84444095D02*
X134302905Y-83644095D01*
X134302905Y-83644095D02*
X134226714Y-83758380D01*
X134226714Y-83758380D02*
X134150524Y-83834571D01*
X134150524Y-83834571D02*
X134074333Y-83872666D01*
X134874334Y-84139333D02*
X135483858Y-84139333D01*
X136207667Y-83910761D02*
X136207667Y-84444095D01*
X136017191Y-83606000D02*
X135826714Y-84177428D01*
X135826714Y-84177428D02*
X136321953Y-84177428D01*
X136550524Y-83644095D02*
X137083858Y-83644095D01*
X137083858Y-83644095D02*
X136741000Y-84444095D01*
X137350524Y-83720285D02*
X137388620Y-83682190D01*
X137388620Y-83682190D02*
X137464810Y-83644095D01*
X137464810Y-83644095D02*
X137655286Y-83644095D01*
X137655286Y-83644095D02*
X137731477Y-83682190D01*
X137731477Y-83682190D02*
X137769572Y-83720285D01*
X137769572Y-83720285D02*
X137807667Y-83796476D01*
X137807667Y-83796476D02*
X137807667Y-83872666D01*
X137807667Y-83872666D02*
X137769572Y-83986952D01*
X137769572Y-83986952D02*
X137312429Y-84444095D01*
X137312429Y-84444095D02*
X137807667Y-84444095D01*
X138531477Y-84444095D02*
X138150525Y-84444095D01*
X138150525Y-84444095D02*
X138150525Y-83644095D01*
X139064810Y-84025047D02*
X138798144Y-84025047D01*
X138798144Y-84444095D02*
X138798144Y-83644095D01*
X138798144Y-83644095D02*
X139179096Y-83644095D01*
X140321953Y-84748857D02*
X140283858Y-84710761D01*
X140283858Y-84710761D02*
X140207667Y-84596476D01*
X140207667Y-84596476D02*
X140169572Y-84520285D01*
X140169572Y-84520285D02*
X140131477Y-84406000D01*
X140131477Y-84406000D02*
X140093382Y-84215523D01*
X140093382Y-84215523D02*
X140093382Y-84063142D01*
X140093382Y-84063142D02*
X140131477Y-83872666D01*
X140131477Y-83872666D02*
X140169572Y-83758380D01*
X140169572Y-83758380D02*
X140207667Y-83682190D01*
X140207667Y-83682190D02*
X140283858Y-83567904D01*
X140283858Y-83567904D02*
X140321953Y-83529809D01*
X140969572Y-83910761D02*
X140969572Y-84444095D01*
X140779096Y-83606000D02*
X140588619Y-84177428D01*
X140588619Y-84177428D02*
X141083858Y-84177428D01*
X141388620Y-84367904D02*
X141426715Y-84406000D01*
X141426715Y-84406000D02*
X141388620Y-84444095D01*
X141388620Y-84444095D02*
X141350524Y-84406000D01*
X141350524Y-84406000D02*
X141388620Y-84367904D01*
X141388620Y-84367904D02*
X141388620Y-84444095D01*
X141693381Y-83644095D02*
X142226715Y-83644095D01*
X142226715Y-83644095D02*
X141883857Y-84444095D01*
X142531477Y-84444095D02*
X142531477Y-83644095D01*
X142988620Y-84444095D02*
X142645762Y-83986952D01*
X142988620Y-83644095D02*
X142531477Y-84101238D01*
X143255286Y-84748857D02*
X143293381Y-84710761D01*
X143293381Y-84710761D02*
X143369572Y-84596476D01*
X143369572Y-84596476D02*
X143407667Y-84520285D01*
X143407667Y-84520285D02*
X143445762Y-84406000D01*
X143445762Y-84406000D02*
X143483858Y-84215523D01*
X143483858Y-84215523D02*
X143483858Y-84063142D01*
X143483858Y-84063142D02*
X143445762Y-83872666D01*
X143445762Y-83872666D02*
X143407667Y-83758380D01*
X143407667Y-83758380D02*
X143369572Y-83682190D01*
X143369572Y-83682190D02*
X143293381Y-83567904D01*
X143293381Y-83567904D02*
X143255286Y-83529809D01*
D10*
X109306619Y-103276189D02*
X108306619Y-103276189D01*
X109211380Y-102228571D02*
X109259000Y-102276190D01*
X109259000Y-102276190D02*
X109306619Y-102419047D01*
X109306619Y-102419047D02*
X109306619Y-102514285D01*
X109306619Y-102514285D02*
X109259000Y-102657142D01*
X109259000Y-102657142D02*
X109163761Y-102752380D01*
X109163761Y-102752380D02*
X109068523Y-102799999D01*
X109068523Y-102799999D02*
X108878047Y-102847618D01*
X108878047Y-102847618D02*
X108735190Y-102847618D01*
X108735190Y-102847618D02*
X108544714Y-102799999D01*
X108544714Y-102799999D02*
X108449476Y-102752380D01*
X108449476Y-102752380D02*
X108354238Y-102657142D01*
X108354238Y-102657142D02*
X108306619Y-102514285D01*
X108306619Y-102514285D02*
X108306619Y-102419047D01*
X108306619Y-102419047D02*
X108354238Y-102276190D01*
X108354238Y-102276190D02*
X108401857Y-102228571D01*
X109306619Y-101276190D02*
X109306619Y-101847618D01*
X109306619Y-101561904D02*
X108306619Y-101561904D01*
X108306619Y-101561904D02*
X108449476Y-101657142D01*
X108449476Y-101657142D02*
X108544714Y-101752380D01*
X108544714Y-101752380D02*
X108592333Y-101847618D01*
X109878238Y-102664762D02*
X109830619Y-102760000D01*
X109830619Y-102760000D02*
X109830619Y-102902857D01*
X109830619Y-102902857D02*
X109878238Y-103045714D01*
X109878238Y-103045714D02*
X109973476Y-103140952D01*
X109973476Y-103140952D02*
X110068714Y-103188571D01*
X110068714Y-103188571D02*
X110259190Y-103236190D01*
X110259190Y-103236190D02*
X110402047Y-103236190D01*
X110402047Y-103236190D02*
X110592523Y-103188571D01*
X110592523Y-103188571D02*
X110687761Y-103140952D01*
X110687761Y-103140952D02*
X110783000Y-103045714D01*
X110783000Y-103045714D02*
X110830619Y-102902857D01*
X110830619Y-102902857D02*
X110830619Y-102807619D01*
X110830619Y-102807619D02*
X110783000Y-102664762D01*
X110783000Y-102664762D02*
X110735380Y-102617143D01*
X110735380Y-102617143D02*
X110402047Y-102617143D01*
X110402047Y-102617143D02*
X110402047Y-102807619D01*
X110544904Y-102236190D02*
X110544904Y-101760000D01*
X110830619Y-102331428D02*
X109830619Y-101998095D01*
X109830619Y-101998095D02*
X110830619Y-101664762D01*
X110830619Y-100855238D02*
X110830619Y-101331428D01*
X110830619Y-101331428D02*
X109830619Y-101331428D01*
X109925857Y-100569523D02*
X109878238Y-100521904D01*
X109878238Y-100521904D02*
X109830619Y-100426666D01*
X109830619Y-100426666D02*
X109830619Y-100188571D01*
X109830619Y-100188571D02*
X109878238Y-100093333D01*
X109878238Y-100093333D02*
X109925857Y-100045714D01*
X109925857Y-100045714D02*
X110021095Y-99998095D01*
X110021095Y-99998095D02*
X110116333Y-99998095D01*
X110116333Y-99998095D02*
X110259190Y-100045714D01*
X110259190Y-100045714D02*
X110830619Y-100617142D01*
X110830619Y-100617142D02*
X110830619Y-99998095D01*
X109925857Y-99617142D02*
X109878238Y-99569523D01*
X109878238Y-99569523D02*
X109830619Y-99474285D01*
X109830619Y-99474285D02*
X109830619Y-99236190D01*
X109830619Y-99236190D02*
X109878238Y-99140952D01*
X109878238Y-99140952D02*
X109925857Y-99093333D01*
X109925857Y-99093333D02*
X110021095Y-99045714D01*
X110021095Y-99045714D02*
X110116333Y-99045714D01*
X110116333Y-99045714D02*
X110259190Y-99093333D01*
X110259190Y-99093333D02*
X110830619Y-99664761D01*
X110830619Y-99664761D02*
X110830619Y-99045714D01*
X109830619Y-98759999D02*
X110830619Y-98426666D01*
X110830619Y-98426666D02*
X109830619Y-98093333D01*
X110830619Y-97236190D02*
X110830619Y-97807618D01*
X110830619Y-97521904D02*
X109830619Y-97521904D01*
X109830619Y-97521904D02*
X109973476Y-97617142D01*
X109973476Y-97617142D02*
X110068714Y-97712380D01*
X110068714Y-97712380D02*
X110116333Y-97807618D01*
X109830619Y-96617142D02*
X109830619Y-96521904D01*
X109830619Y-96521904D02*
X109878238Y-96426666D01*
X109878238Y-96426666D02*
X109925857Y-96379047D01*
X109925857Y-96379047D02*
X110021095Y-96331428D01*
X110021095Y-96331428D02*
X110211571Y-96283809D01*
X110211571Y-96283809D02*
X110449666Y-96283809D01*
X110449666Y-96283809D02*
X110640142Y-96331428D01*
X110640142Y-96331428D02*
X110735380Y-96379047D01*
X110735380Y-96379047D02*
X110783000Y-96426666D01*
X110783000Y-96426666D02*
X110830619Y-96521904D01*
X110830619Y-96521904D02*
X110830619Y-96617142D01*
X110830619Y-96617142D02*
X110783000Y-96712380D01*
X110783000Y-96712380D02*
X110735380Y-96759999D01*
X110735380Y-96759999D02*
X110640142Y-96807618D01*
X110640142Y-96807618D02*
X110449666Y-96855237D01*
X110449666Y-96855237D02*
X110211571Y-96855237D01*
X110211571Y-96855237D02*
X110021095Y-96807618D01*
X110021095Y-96807618D02*
X109925857Y-96759999D01*
X109925857Y-96759999D02*
X109878238Y-96712380D01*
X109878238Y-96712380D02*
X109830619Y-96617142D01*
X171150619Y-96099189D02*
X170150619Y-96099189D01*
X171055380Y-95051571D02*
X171103000Y-95099190D01*
X171103000Y-95099190D02*
X171150619Y-95242047D01*
X171150619Y-95242047D02*
X171150619Y-95337285D01*
X171150619Y-95337285D02*
X171103000Y-95480142D01*
X171103000Y-95480142D02*
X171007761Y-95575380D01*
X171007761Y-95575380D02*
X170912523Y-95622999D01*
X170912523Y-95622999D02*
X170722047Y-95670618D01*
X170722047Y-95670618D02*
X170579190Y-95670618D01*
X170579190Y-95670618D02*
X170388714Y-95622999D01*
X170388714Y-95622999D02*
X170293476Y-95575380D01*
X170293476Y-95575380D02*
X170198238Y-95480142D01*
X170198238Y-95480142D02*
X170150619Y-95337285D01*
X170150619Y-95337285D02*
X170150619Y-95242047D01*
X170150619Y-95242047D02*
X170198238Y-95099190D01*
X170198238Y-95099190D02*
X170245857Y-95051571D01*
X170150619Y-94194428D02*
X170150619Y-94384904D01*
X170150619Y-94384904D02*
X170198238Y-94480142D01*
X170198238Y-94480142D02*
X170245857Y-94527761D01*
X170245857Y-94527761D02*
X170388714Y-94622999D01*
X170388714Y-94622999D02*
X170579190Y-94670618D01*
X170579190Y-94670618D02*
X170960142Y-94670618D01*
X170960142Y-94670618D02*
X171055380Y-94622999D01*
X171055380Y-94622999D02*
X171103000Y-94575380D01*
X171103000Y-94575380D02*
X171150619Y-94480142D01*
X171150619Y-94480142D02*
X171150619Y-94289666D01*
X171150619Y-94289666D02*
X171103000Y-94194428D01*
X171103000Y-94194428D02*
X171055380Y-94146809D01*
X171055380Y-94146809D02*
X170960142Y-94099190D01*
X170960142Y-94099190D02*
X170722047Y-94099190D01*
X170722047Y-94099190D02*
X170626809Y-94146809D01*
X170626809Y-94146809D02*
X170579190Y-94194428D01*
X170579190Y-94194428D02*
X170531571Y-94289666D01*
X170531571Y-94289666D02*
X170531571Y-94480142D01*
X170531571Y-94480142D02*
X170579190Y-94575380D01*
X170579190Y-94575380D02*
X170626809Y-94622999D01*
X170626809Y-94622999D02*
X170722047Y-94670618D01*
X170150619Y-92034904D02*
X170150619Y-91368238D01*
X170150619Y-91368238D02*
X171150619Y-91796809D01*
X170483952Y-90558714D02*
X171150619Y-90558714D01*
X170103000Y-90796809D02*
X170817285Y-91034904D01*
X170817285Y-91034904D02*
X170817285Y-90415857D01*
X171150619Y-90034904D02*
X170150619Y-90034904D01*
X170626809Y-90034904D02*
X170626809Y-89463476D01*
X171150619Y-89463476D02*
X170150619Y-89463476D01*
X171055380Y-88415857D02*
X171103000Y-88463476D01*
X171103000Y-88463476D02*
X171150619Y-88606333D01*
X171150619Y-88606333D02*
X171150619Y-88701571D01*
X171150619Y-88701571D02*
X171103000Y-88844428D01*
X171103000Y-88844428D02*
X171007761Y-88939666D01*
X171007761Y-88939666D02*
X170912523Y-88987285D01*
X170912523Y-88987285D02*
X170722047Y-89034904D01*
X170722047Y-89034904D02*
X170579190Y-89034904D01*
X170579190Y-89034904D02*
X170388714Y-88987285D01*
X170388714Y-88987285D02*
X170293476Y-88939666D01*
X170293476Y-88939666D02*
X170198238Y-88844428D01*
X170198238Y-88844428D02*
X170150619Y-88701571D01*
X170150619Y-88701571D02*
X170150619Y-88606333D01*
X170150619Y-88606333D02*
X170198238Y-88463476D01*
X170198238Y-88463476D02*
X170245857Y-88415857D01*
X170245857Y-88034904D02*
X170198238Y-87987285D01*
X170198238Y-87987285D02*
X170150619Y-87892047D01*
X170150619Y-87892047D02*
X170150619Y-87653952D01*
X170150619Y-87653952D02*
X170198238Y-87558714D01*
X170198238Y-87558714D02*
X170245857Y-87511095D01*
X170245857Y-87511095D02*
X170341095Y-87463476D01*
X170341095Y-87463476D02*
X170436333Y-87463476D01*
X170436333Y-87463476D02*
X170579190Y-87511095D01*
X170579190Y-87511095D02*
X171150619Y-88082523D01*
X171150619Y-88082523D02*
X171150619Y-87463476D01*
X170483952Y-86606333D02*
X171150619Y-86606333D01*
X170103000Y-86844428D02*
X170817285Y-87082523D01*
X170817285Y-87082523D02*
X170817285Y-86463476D01*
X170150619Y-85606333D02*
X170150619Y-86082523D01*
X170150619Y-86082523D02*
X170626809Y-86130142D01*
X170626809Y-86130142D02*
X170579190Y-86082523D01*
X170579190Y-86082523D02*
X170531571Y-85987285D01*
X170531571Y-85987285D02*
X170531571Y-85749190D01*
X170531571Y-85749190D02*
X170579190Y-85653952D01*
X170579190Y-85653952D02*
X170626809Y-85606333D01*
X170626809Y-85606333D02*
X170722047Y-85558714D01*
X170722047Y-85558714D02*
X170960142Y-85558714D01*
X170960142Y-85558714D02*
X171055380Y-85606333D01*
X171055380Y-85606333D02*
X171103000Y-85653952D01*
X171103000Y-85653952D02*
X171150619Y-85749190D01*
X171150619Y-85749190D02*
X171150619Y-85987285D01*
X171150619Y-85987285D02*
X171103000Y-86082523D01*
X171103000Y-86082523D02*
X171055380Y-86130142D01*
X194941866Y-111857619D02*
X194941866Y-112571904D01*
X194941866Y-112571904D02*
X194894247Y-112714761D01*
X194894247Y-112714761D02*
X194799009Y-112810000D01*
X194799009Y-112810000D02*
X194656152Y-112857619D01*
X194656152Y-112857619D02*
X194560914Y-112857619D01*
X195370438Y-111952857D02*
X195418057Y-111905238D01*
X195418057Y-111905238D02*
X195513295Y-111857619D01*
X195513295Y-111857619D02*
X195751390Y-111857619D01*
X195751390Y-111857619D02*
X195846628Y-111905238D01*
X195846628Y-111905238D02*
X195894247Y-111952857D01*
X195894247Y-111952857D02*
X195941866Y-112048095D01*
X195941866Y-112048095D02*
X195941866Y-112143333D01*
X195941866Y-112143333D02*
X195894247Y-112286190D01*
X195894247Y-112286190D02*
X195322819Y-112857619D01*
X195322819Y-112857619D02*
X195941866Y-112857619D01*
X108317380Y-115621856D02*
X108365000Y-115664713D01*
X108365000Y-115664713D02*
X108412619Y-115793285D01*
X108412619Y-115793285D02*
X108412619Y-115878999D01*
X108412619Y-115878999D02*
X108365000Y-116007570D01*
X108365000Y-116007570D02*
X108269761Y-116093285D01*
X108269761Y-116093285D02*
X108174523Y-116136142D01*
X108174523Y-116136142D02*
X107984047Y-116178999D01*
X107984047Y-116178999D02*
X107841190Y-116178999D01*
X107841190Y-116178999D02*
X107650714Y-116136142D01*
X107650714Y-116136142D02*
X107555476Y-116093285D01*
X107555476Y-116093285D02*
X107460238Y-116007570D01*
X107460238Y-116007570D02*
X107412619Y-115878999D01*
X107412619Y-115878999D02*
X107412619Y-115793285D01*
X107412619Y-115793285D02*
X107460238Y-115664713D01*
X107460238Y-115664713D02*
X107507857Y-115621856D01*
X108412619Y-115236142D02*
X107412619Y-115236142D01*
X107412619Y-115236142D02*
X107412619Y-115021856D01*
X107412619Y-115021856D02*
X107460238Y-114893285D01*
X107460238Y-114893285D02*
X107555476Y-114807570D01*
X107555476Y-114807570D02*
X107650714Y-114764713D01*
X107650714Y-114764713D02*
X107841190Y-114721856D01*
X107841190Y-114721856D02*
X107984047Y-114721856D01*
X107984047Y-114721856D02*
X108174523Y-114764713D01*
X108174523Y-114764713D02*
X108269761Y-114807570D01*
X108269761Y-114807570D02*
X108365000Y-114893285D01*
X108365000Y-114893285D02*
X108412619Y-115021856D01*
X108412619Y-115021856D02*
X108412619Y-115236142D01*
X107888809Y-113650428D02*
X107888809Y-113350428D01*
X108412619Y-113221856D02*
X108412619Y-113650428D01*
X108412619Y-113650428D02*
X107412619Y-113650428D01*
X107412619Y-113650428D02*
X107412619Y-113221856D01*
X107412619Y-112921856D02*
X108412619Y-112321856D01*
X107412619Y-112321856D02*
X108412619Y-112921856D01*
X108412619Y-111978999D02*
X107412619Y-111978999D01*
X107412619Y-111978999D02*
X107412619Y-111636142D01*
X107412619Y-111636142D02*
X107460238Y-111550427D01*
X107460238Y-111550427D02*
X107507857Y-111507570D01*
X107507857Y-111507570D02*
X107603095Y-111464713D01*
X107603095Y-111464713D02*
X107745952Y-111464713D01*
X107745952Y-111464713D02*
X107841190Y-111507570D01*
X107841190Y-111507570D02*
X107888809Y-111550427D01*
X107888809Y-111550427D02*
X107936428Y-111636142D01*
X107936428Y-111636142D02*
X107936428Y-111978999D01*
X108126904Y-111121856D02*
X108126904Y-110693285D01*
X108412619Y-111207570D02*
X107412619Y-110907570D01*
X107412619Y-110907570D02*
X108412619Y-110607570D01*
X108412619Y-110307570D02*
X107412619Y-110307570D01*
X107412619Y-110307570D02*
X108412619Y-109793284D01*
X108412619Y-109793284D02*
X107412619Y-109793284D01*
X108365000Y-109407570D02*
X108412619Y-109278999D01*
X108412619Y-109278999D02*
X108412619Y-109064713D01*
X108412619Y-109064713D02*
X108365000Y-108978999D01*
X108365000Y-108978999D02*
X108317380Y-108936141D01*
X108317380Y-108936141D02*
X108222142Y-108893284D01*
X108222142Y-108893284D02*
X108126904Y-108893284D01*
X108126904Y-108893284D02*
X108031666Y-108936141D01*
X108031666Y-108936141D02*
X107984047Y-108978999D01*
X107984047Y-108978999D02*
X107936428Y-109064713D01*
X107936428Y-109064713D02*
X107888809Y-109236141D01*
X107888809Y-109236141D02*
X107841190Y-109321856D01*
X107841190Y-109321856D02*
X107793571Y-109364713D01*
X107793571Y-109364713D02*
X107698333Y-109407570D01*
X107698333Y-109407570D02*
X107603095Y-109407570D01*
X107603095Y-109407570D02*
X107507857Y-109364713D01*
X107507857Y-109364713D02*
X107460238Y-109321856D01*
X107460238Y-109321856D02*
X107412619Y-109236141D01*
X107412619Y-109236141D02*
X107412619Y-109021856D01*
X107412619Y-109021856D02*
X107460238Y-108893284D01*
X108412619Y-108507570D02*
X107412619Y-108507570D01*
X107412619Y-107907570D02*
X107412619Y-107736142D01*
X107412619Y-107736142D02*
X107460238Y-107650427D01*
X107460238Y-107650427D02*
X107555476Y-107564713D01*
X107555476Y-107564713D02*
X107745952Y-107521856D01*
X107745952Y-107521856D02*
X108079285Y-107521856D01*
X108079285Y-107521856D02*
X108269761Y-107564713D01*
X108269761Y-107564713D02*
X108365000Y-107650427D01*
X108365000Y-107650427D02*
X108412619Y-107736142D01*
X108412619Y-107736142D02*
X108412619Y-107907570D01*
X108412619Y-107907570D02*
X108365000Y-107993285D01*
X108365000Y-107993285D02*
X108269761Y-108078999D01*
X108269761Y-108078999D02*
X108079285Y-108121856D01*
X108079285Y-108121856D02*
X107745952Y-108121856D01*
X107745952Y-108121856D02*
X107555476Y-108078999D01*
X107555476Y-108078999D02*
X107460238Y-107993285D01*
X107460238Y-107993285D02*
X107412619Y-107907570D01*
X108412619Y-107136142D02*
X107412619Y-107136142D01*
X107412619Y-107136142D02*
X108412619Y-106621856D01*
X108412619Y-106621856D02*
X107412619Y-106621856D01*
D11*
X143958000Y-91805000D02*
G75*
G03*
X143958000Y-89805000I0J1000000D01*
G01*
X169538000Y-85555000D02*
X143898000Y-85555000D01*
X143898000Y-85555000D02*
X143898000Y-96055000D01*
X169478000Y-88555000D02*
X143958000Y-88555000D01*
X143958000Y-88555000D02*
X143958000Y-89805000D01*
X143958000Y-91805000D02*
X143958000Y-93055000D01*
X169478000Y-93055000D02*
X169478000Y-88555000D01*
X143958000Y-93055000D02*
X169478000Y-93055000D01*
X169538000Y-96055000D02*
X169538000Y-85555000D01*
X143898000Y-96055000D02*
X169538000Y-96055000D01*
X124146000Y-91805000D02*
G75*
G03*
X124146000Y-89805000I0J1000000D01*
G01*
X142106000Y-85555000D02*
X124086000Y-85555000D01*
X124086000Y-85555000D02*
X124086000Y-96055000D01*
X142046000Y-88555000D02*
X124146000Y-88555000D01*
X124146000Y-88555000D02*
X124146000Y-89805000D01*
X124146000Y-91805000D02*
X124146000Y-93055000D01*
X142046000Y-93055000D02*
X142046000Y-88555000D01*
X124146000Y-93055000D02*
X142046000Y-93055000D01*
X142106000Y-96055000D02*
X142106000Y-85555000D01*
X124086000Y-96055000D02*
X142106000Y-96055000D01*
X171644000Y-103362000D02*
G75*
G03*
X171644000Y-101362000I0J1000000D01*
G01*
X197224000Y-97112000D02*
X171584000Y-97112000D01*
X171584000Y-97112000D02*
X171584000Y-107612000D01*
X197164000Y-100112000D02*
X171644000Y-100112000D01*
X171644000Y-100112000D02*
X171644000Y-101362000D01*
X171644000Y-103362000D02*
X171644000Y-104612000D01*
X197164000Y-104612000D02*
X197164000Y-100112000D01*
X171644000Y-104612000D02*
X197164000Y-104612000D01*
X197224000Y-107612000D02*
X197224000Y-97112000D01*
X171584000Y-107612000D02*
X197224000Y-107612000D01*
X119694000Y-91124000D02*
X118364000Y-91124000D01*
X119694000Y-89794000D02*
X119694000Y-91124000D01*
X119694000Y-88524000D02*
X119694000Y-85924000D01*
X119694000Y-88524000D02*
X117034000Y-88524000D01*
X119694000Y-85924000D02*
X117034000Y-85924000D01*
X117034000Y-88524000D02*
X117034000Y-85924000D01*
X143958000Y-103362000D02*
G75*
G03*
X143958000Y-101362000I0J1000000D01*
G01*
X169538000Y-97112000D02*
X143898000Y-97112000D01*
X143898000Y-97112000D02*
X143898000Y-107612000D01*
X169478000Y-100112000D02*
X143958000Y-100112000D01*
X143958000Y-100112000D02*
X143958000Y-101362000D01*
X143958000Y-103362000D02*
X143958000Y-104612000D01*
X169478000Y-104612000D02*
X169478000Y-100112000D01*
X143958000Y-104612000D02*
X169478000Y-104612000D01*
X169538000Y-107612000D02*
X169538000Y-97112000D01*
X143898000Y-107612000D02*
X169538000Y-107612000D01*
X171661000Y-82293000D02*
X171661000Y-85093000D01*
X171661000Y-85093000D02*
X194861000Y-85093000D01*
X174371000Y-82293000D02*
X174371000Y-85093000D01*
X194861000Y-82293000D02*
X171661000Y-82293000D01*
X194861000Y-85093000D02*
X194861000Y-82293000D01*
X117796000Y-73727000D02*
X117796000Y-81467000D01*
X194116000Y-73736200D02*
X117796000Y-73727000D01*
X194116000Y-73736200D02*
X194116000Y-78867000D01*
X191516000Y-78867000D02*
X194116000Y-78867000D01*
X191516000Y-78867000D02*
X191516000Y-81467000D01*
X194065200Y-80127800D02*
X194065200Y-81457800D01*
X194065200Y-81457800D02*
X192735200Y-81457800D01*
X191516000Y-81467000D02*
X117796000Y-81467000D01*
X143975000Y-82293000D02*
X143975000Y-85093000D01*
X143975000Y-85093000D02*
X167175000Y-85093000D01*
X146685000Y-82293000D02*
X146685000Y-85093000D01*
X167175000Y-82293000D02*
X143975000Y-82293000D01*
X167175000Y-85093000D02*
X167175000Y-82293000D01*
X111446000Y-103352000D02*
G75*
G03*
X111446000Y-101352000I0J1000000D01*
G01*
X142106000Y-97102000D02*
X111386000Y-97102000D01*
X111386000Y-97102000D02*
X111386000Y-107602000D01*
X142046000Y-100102000D02*
X111446000Y-100102000D01*
X111446000Y-100102000D02*
X111446000Y-101352000D01*
X111446000Y-103352000D02*
X111446000Y-104602000D01*
X142046000Y-104602000D02*
X142046000Y-100102000D01*
X111446000Y-104602000D02*
X142046000Y-104602000D01*
X142106000Y-107602000D02*
X142106000Y-97102000D01*
X111386000Y-107602000D02*
X142106000Y-107602000D01*
X171644000Y-91805000D02*
G75*
G03*
X171644000Y-89805000I0J1000000D01*
G01*
X197224000Y-85555000D02*
X171584000Y-85555000D01*
X171584000Y-85555000D02*
X171584000Y-96055000D01*
X197164000Y-88555000D02*
X171644000Y-88555000D01*
X171644000Y-88555000D02*
X171644000Y-89805000D01*
X171644000Y-91805000D02*
X171644000Y-93055000D01*
X197164000Y-93055000D02*
X197164000Y-88555000D01*
X171644000Y-93055000D02*
X197164000Y-93055000D01*
X197224000Y-96055000D02*
X197224000Y-85555000D01*
X171584000Y-96055000D02*
X197224000Y-96055000D01*
X117796000Y-108525000D02*
X117796000Y-116265000D01*
X194116000Y-108534200D02*
X117796000Y-108525000D01*
X194116000Y-108534200D02*
X194116000Y-113665000D01*
X191516000Y-113665000D02*
X194116000Y-113665000D01*
X191516000Y-113665000D02*
X191516000Y-116265000D01*
X194065200Y-114925800D02*
X194065200Y-116255800D01*
X194065200Y-116255800D02*
X192735200Y-116255800D01*
X191516000Y-116265000D02*
X117796000Y-116265000D01*
%LPC*%
D12*
X145288000Y-86995000D03*
X147828000Y-86995000D03*
X150368000Y-86995000D03*
X152908000Y-86995000D03*
X155448000Y-86995000D03*
X157988000Y-86995000D03*
X160528000Y-86995000D03*
X163068000Y-86995000D03*
X165608000Y-86995000D03*
X168148000Y-86995000D03*
X168148000Y-94615000D03*
X165608000Y-94615000D03*
X163068000Y-94615000D03*
X160528000Y-94615000D03*
X157988000Y-94615000D03*
X155448000Y-94615000D03*
X152908000Y-94615000D03*
X150368000Y-94615000D03*
X147828000Y-94615000D03*
D13*
X145288000Y-94615000D03*
D12*
X125476000Y-86995000D03*
X128016000Y-86995000D03*
X130556000Y-86995000D03*
X133096000Y-86995000D03*
X135636000Y-86995000D03*
X138176000Y-86995000D03*
X140716000Y-86995000D03*
X140716000Y-94615000D03*
X138176000Y-94615000D03*
X135636000Y-94615000D03*
X133096000Y-94615000D03*
X130556000Y-94615000D03*
X128016000Y-94615000D03*
D13*
X125476000Y-94615000D03*
D12*
X172974000Y-98552000D03*
X175514000Y-98552000D03*
X178054000Y-98552000D03*
X180594000Y-98552000D03*
X183134000Y-98552000D03*
X185674000Y-98552000D03*
X188214000Y-98552000D03*
X190754000Y-98552000D03*
X193294000Y-98552000D03*
X195834000Y-98552000D03*
X195834000Y-106172000D03*
X193294000Y-106172000D03*
X190754000Y-106172000D03*
X188214000Y-106172000D03*
X185674000Y-106172000D03*
X183134000Y-106172000D03*
X180594000Y-106172000D03*
X178054000Y-106172000D03*
X175514000Y-106172000D03*
D13*
X172974000Y-106172000D03*
D14*
X118364000Y-89794000D03*
D15*
X118364000Y-87254000D03*
D12*
X145288000Y-98552000D03*
X147828000Y-98552000D03*
X150368000Y-98552000D03*
X152908000Y-98552000D03*
X155448000Y-98552000D03*
X157988000Y-98552000D03*
X160528000Y-98552000D03*
X163068000Y-98552000D03*
X165608000Y-98552000D03*
X168148000Y-98552000D03*
X168148000Y-106172000D03*
X165608000Y-106172000D03*
X163068000Y-106172000D03*
X160528000Y-106172000D03*
X157988000Y-106172000D03*
X155448000Y-106172000D03*
X152908000Y-106172000D03*
X150368000Y-106172000D03*
X147828000Y-106172000D03*
D13*
X145288000Y-106172000D03*
D16*
X173101000Y-83693000D03*
D17*
X175641000Y-83693000D03*
X178181000Y-83693000D03*
X180721000Y-83693000D03*
X183261000Y-83693000D03*
X185801000Y-83693000D03*
X188341000Y-83693000D03*
X190881000Y-83693000D03*
X193421000Y-83693000D03*
D14*
X192786000Y-80137000D03*
D15*
X190246000Y-80137000D03*
X187706000Y-80137000D03*
X185166000Y-80137000D03*
X182626000Y-80137000D03*
X180086000Y-80137000D03*
X177546000Y-80137000D03*
X175006000Y-80137000D03*
X172466000Y-80137000D03*
X169926000Y-80137000D03*
X167386000Y-80137000D03*
X164846000Y-80137000D03*
X162306000Y-80137000D03*
X159766000Y-80137000D03*
X157226000Y-80137000D03*
X154686000Y-80137000D03*
X152146000Y-80137000D03*
X149606000Y-80137000D03*
X147066000Y-80137000D03*
X144526000Y-80137000D03*
X141986000Y-80137000D03*
X139446000Y-80137000D03*
X136906000Y-80137000D03*
X134366000Y-80137000D03*
X131826000Y-80137000D03*
X129286000Y-80137000D03*
X126746000Y-80137000D03*
X124206000Y-80137000D03*
X121666000Y-80137000D03*
X119126000Y-80137000D03*
X192786000Y-75057000D03*
X190246000Y-75057000D03*
X187706000Y-75057000D03*
X185166000Y-75057000D03*
X182626000Y-75057000D03*
X180086000Y-75057000D03*
X177546000Y-75057000D03*
X175006000Y-75057000D03*
X172466000Y-75057000D03*
X169926000Y-75057000D03*
X167386000Y-75057000D03*
X164846000Y-75057000D03*
X162306000Y-75057000D03*
X159766000Y-75057000D03*
X157226000Y-75057000D03*
X154686000Y-75057000D03*
X152146000Y-75057000D03*
X149606000Y-75057000D03*
X147066000Y-75057000D03*
X144526000Y-75057000D03*
X141986000Y-75057000D03*
X139446000Y-75057000D03*
X136906000Y-75057000D03*
X134366000Y-75057000D03*
X131826000Y-75057000D03*
X129286000Y-75057000D03*
X126746000Y-75057000D03*
X124206000Y-75057000D03*
X121666000Y-75057000D03*
X119126000Y-75057000D03*
D16*
X145415000Y-83693000D03*
D17*
X147955000Y-83693000D03*
X150495000Y-83693000D03*
X153035000Y-83693000D03*
X155575000Y-83693000D03*
X158115000Y-83693000D03*
X160655000Y-83693000D03*
X163195000Y-83693000D03*
X165735000Y-83693000D03*
D12*
X112776000Y-98542000D03*
X115316000Y-98542000D03*
X117856000Y-98542000D03*
X120396000Y-98542000D03*
X122936000Y-98542000D03*
X125476000Y-98542000D03*
X128016000Y-98542000D03*
X130556000Y-98542000D03*
X133096000Y-98542000D03*
X135636000Y-98542000D03*
X138176000Y-98542000D03*
X140716000Y-98542000D03*
X140716000Y-106162000D03*
X138176000Y-106162000D03*
X135636000Y-106162000D03*
X133096000Y-106162000D03*
X130556000Y-106162000D03*
X128016000Y-106162000D03*
X125476000Y-106162000D03*
X122936000Y-106162000D03*
X120396000Y-106162000D03*
X117856000Y-106162000D03*
X115316000Y-106162000D03*
D13*
X112776000Y-106162000D03*
D12*
X172974000Y-86995000D03*
X175514000Y-86995000D03*
X178054000Y-86995000D03*
X180594000Y-86995000D03*
X183134000Y-86995000D03*
X185674000Y-86995000D03*
X188214000Y-86995000D03*
X190754000Y-86995000D03*
X193294000Y-86995000D03*
X195834000Y-86995000D03*
X195834000Y-94615000D03*
X193294000Y-94615000D03*
X190754000Y-94615000D03*
X188214000Y-94615000D03*
X185674000Y-94615000D03*
X183134000Y-94615000D03*
X180594000Y-94615000D03*
X178054000Y-94615000D03*
X175514000Y-94615000D03*
D13*
X172974000Y-94615000D03*
D14*
X192786000Y-114935000D03*
D15*
X190246000Y-114935000D03*
X187706000Y-114935000D03*
X185166000Y-114935000D03*
X182626000Y-114935000D03*
X180086000Y-114935000D03*
X177546000Y-114935000D03*
X175006000Y-114935000D03*
X172466000Y-114935000D03*
X169926000Y-114935000D03*
X167386000Y-114935000D03*
X164846000Y-114935000D03*
X162306000Y-114935000D03*
X159766000Y-114935000D03*
X157226000Y-114935000D03*
X154686000Y-114935000D03*
X152146000Y-114935000D03*
X149606000Y-114935000D03*
X147066000Y-114935000D03*
X144526000Y-114935000D03*
X141986000Y-114935000D03*
X139446000Y-114935000D03*
X136906000Y-114935000D03*
X134366000Y-114935000D03*
X131826000Y-114935000D03*
X129286000Y-114935000D03*
X126746000Y-114935000D03*
X124206000Y-114935000D03*
X121666000Y-114935000D03*
X119126000Y-114935000D03*
X192786000Y-109855000D03*
X190246000Y-109855000D03*
X187706000Y-109855000D03*
X185166000Y-109855000D03*
X182626000Y-109855000D03*
X180086000Y-109855000D03*
X177546000Y-109855000D03*
X175006000Y-109855000D03*
X172466000Y-109855000D03*
X169926000Y-109855000D03*
X167386000Y-109855000D03*
X164846000Y-109855000D03*
X162306000Y-109855000D03*
X159766000Y-109855000D03*
X157226000Y-109855000D03*
X154686000Y-109855000D03*
X152146000Y-109855000D03*
X149606000Y-109855000D03*
X147066000Y-109855000D03*
X144526000Y-109855000D03*
X141986000Y-109855000D03*
X139446000Y-109855000D03*
X136906000Y-109855000D03*
X134366000Y-109855000D03*
X131826000Y-109855000D03*
X129286000Y-109855000D03*
X126746000Y-109855000D03*
X124206000Y-109855000D03*
X121666000Y-109855000D03*
X119126000Y-109855000D03*
%LPD*%
M02*
