G04 #@! TF.GenerationSoftware,KiCad,Pcbnew,9.0.2*
G04 #@! TF.CreationDate,2026-01-02T17:49:51+00:00*
G04 #@! TF.ProjectId,MegaCD-Connect BD Remake,4d656761-4344-42d4-936f-6e6e65637420,rev?*
G04 #@! TF.SameCoordinates,Original*
G04 #@! TF.FileFunction,Profile,NP*
%FSLAX46Y46*%
G04 Gerber Fmt 4.6, Leading zero omitted, Abs format (unit mm)*
G04 Created by KiCad (PCBNEW 9.0.2) date 2026-01-02 17:49:51*
%MOMM*%
%LPD*%
G01*
G04 APERTURE LIST*
G04 #@! TA.AperFunction,Profile*
%ADD10C,0.100000*%
G04 #@! TD*
G04 APERTURE END LIST*
D10*
X111125000Y-103904200D02*
X111125000Y-105707600D01*
X112391600Y-77691400D02*
G75*
G02*
X108886400Y-77691400I-1752600J0D01*
G01*
X108886400Y-77691400D02*
G75*
G02*
X112391600Y-77691400I1752600J0D01*
G01*
X107083000Y-117094000D02*
X205083000Y-117094000D01*
X200453400Y-105860000D02*
X205076200Y-105860000D01*
X200453400Y-101084800D02*
X200453400Y-105860000D01*
X111125000Y-105707600D02*
X107083000Y-105707600D01*
X107083000Y-103904200D02*
X111125000Y-103904200D01*
X107083000Y-83787400D02*
X111020000Y-83787400D01*
X112340800Y-112641800D02*
G75*
G02*
X108835600Y-112641800I-1752600J0D01*
G01*
X108835600Y-112641800D02*
G75*
G02*
X112340800Y-112641800I1752600J0D01*
G01*
X107083000Y-73094000D02*
X107083000Y-83787400D01*
X200453400Y-85743200D02*
X205076200Y-85743200D01*
X111020000Y-85743200D02*
X107083000Y-85743200D01*
X203222000Y-112641800D02*
G75*
G02*
X199716800Y-112641800I-1752600J0D01*
G01*
X199716800Y-112641800D02*
G75*
G02*
X203222000Y-112641800I1752600J0D01*
G01*
X200453400Y-83787400D02*
X200453400Y-85743200D01*
X107083000Y-85743200D02*
X107083000Y-103904200D01*
X205083000Y-73094000D02*
X205076200Y-83787400D01*
X107083000Y-105707600D02*
X107083000Y-117094000D01*
X114372800Y-95166600D02*
G75*
G02*
X110867600Y-95166600I-1752600J0D01*
G01*
X110867600Y-95166600D02*
G75*
G02*
X114372800Y-95166600I1752600J0D01*
G01*
X203196600Y-77691400D02*
G75*
G02*
X199691400Y-77691400I-1752600J0D01*
G01*
X199691400Y-77691400D02*
G75*
G02*
X203196600Y-77691400I1752600J0D01*
G01*
X107083000Y-73094000D02*
X205083000Y-73094000D01*
X201190000Y-95166600D02*
G75*
G02*
X197684800Y-95166600I-1752600J0D01*
G01*
X197684800Y-95166600D02*
G75*
G02*
X201190000Y-95166600I1752600J0D01*
G01*
X205076200Y-101084800D02*
X200453400Y-101084800D01*
X205076200Y-85743200D02*
X205076200Y-101084800D01*
X205076200Y-83787400D02*
X200453400Y-83787400D01*
X111020000Y-83787400D02*
X111020000Y-85743200D01*
X205076200Y-105860000D02*
X205083000Y-117094000D01*
M02*
