G04 #@! TF.GenerationSoftware,KiCad,Pcbnew,7.0.1-0*
G04 #@! TF.CreationDate,2023-05-14T20:02:35+01:00*
G04 #@! TF.ProjectId,MegaCD-Connect BD Remake,4d656761-4344-42d4-936f-6e6e65637420,rev?*
G04 #@! TF.SameCoordinates,Original*
G04 #@! TF.FileFunction,Soldermask,Bot*
G04 #@! TF.FilePolarity,Negative*
%FSLAX46Y46*%
G04 Gerber Fmt 4.6, Leading zero omitted, Abs format (unit mm)*
G04 Created by KiCad (PCBNEW 7.0.1-0) date 2023-05-14 20:02:35*
%MOMM*%
%LPD*%
G01*
G04 APERTURE LIST*
G04 Aperture macros list*
%AMRoundRect*
0 Rectangle with rounded corners*
0 $1 Rounding radius*
0 $2 $3 $4 $5 $6 $7 $8 $9 X,Y pos of 4 corners*
0 Add a 4 corners polygon primitive as box body*
4,1,4,$2,$3,$4,$5,$6,$7,$8,$9,$2,$3,0*
0 Add four circle primitives for the rounded corners*
1,1,$1+$1,$2,$3*
1,1,$1+$1,$4,$5*
1,1,$1+$1,$6,$7*
1,1,$1+$1,$8,$9*
0 Add four rect primitives between the rounded corners*
20,1,$1+$1,$2,$3,$4,$5,0*
20,1,$1+$1,$4,$5,$6,$7,0*
20,1,$1+$1,$6,$7,$8,$9,0*
20,1,$1+$1,$8,$9,$2,$3,0*%
G04 Aperture macros list end*
%ADD10R,1.600000X2.400000*%
%ADD11O,1.600000X2.400000*%
%ADD12R,1.700000X1.700000*%
%ADD13O,1.700000X1.700000*%
%ADD14R,1.600000X1.600000*%
%ADD15O,1.600000X1.600000*%
%ADD16RoundRect,0.250000X-0.325000X-0.650000X0.325000X-0.650000X0.325000X0.650000X-0.325000X0.650000X0*%
G04 APERTURE END LIST*
D10*
X145288000Y-94615000D03*
D11*
X147828000Y-94615000D03*
X150368000Y-94615000D03*
X152908000Y-94615000D03*
X155448000Y-94615000D03*
X157988000Y-94615000D03*
X160528000Y-94615000D03*
X163068000Y-94615000D03*
X165608000Y-94615000D03*
X168148000Y-94615000D03*
X168148000Y-86995000D03*
X165608000Y-86995000D03*
X163068000Y-86995000D03*
X160528000Y-86995000D03*
X157988000Y-86995000D03*
X155448000Y-86995000D03*
X152908000Y-86995000D03*
X150368000Y-86995000D03*
X147828000Y-86995000D03*
X145288000Y-86995000D03*
D10*
X125476000Y-94615000D03*
D11*
X128016000Y-94615000D03*
X130556000Y-94615000D03*
X133096000Y-94615000D03*
X135636000Y-94615000D03*
X138176000Y-94615000D03*
X140716000Y-94615000D03*
X140716000Y-86995000D03*
X138176000Y-86995000D03*
X135636000Y-86995000D03*
X133096000Y-86995000D03*
X130556000Y-86995000D03*
X128016000Y-86995000D03*
X125476000Y-86995000D03*
D10*
X172974000Y-106172000D03*
D11*
X175514000Y-106172000D03*
X178054000Y-106172000D03*
X180594000Y-106172000D03*
X183134000Y-106172000D03*
X185674000Y-106172000D03*
X188214000Y-106172000D03*
X190754000Y-106172000D03*
X193294000Y-106172000D03*
X195834000Y-106172000D03*
X195834000Y-98552000D03*
X193294000Y-98552000D03*
X190754000Y-98552000D03*
X188214000Y-98552000D03*
X185674000Y-98552000D03*
X183134000Y-98552000D03*
X180594000Y-98552000D03*
X178054000Y-98552000D03*
X175514000Y-98552000D03*
X172974000Y-98552000D03*
D12*
X118364000Y-89794000D03*
D13*
X118364000Y-87254000D03*
D10*
X145288000Y-106172000D03*
D11*
X147828000Y-106172000D03*
X150368000Y-106172000D03*
X152908000Y-106172000D03*
X155448000Y-106172000D03*
X157988000Y-106172000D03*
X160528000Y-106172000D03*
X163068000Y-106172000D03*
X165608000Y-106172000D03*
X168148000Y-106172000D03*
X168148000Y-98552000D03*
X165608000Y-98552000D03*
X163068000Y-98552000D03*
X160528000Y-98552000D03*
X157988000Y-98552000D03*
X155448000Y-98552000D03*
X152908000Y-98552000D03*
X150368000Y-98552000D03*
X147828000Y-98552000D03*
X145288000Y-98552000D03*
D14*
X173101000Y-83693000D03*
D15*
X175641000Y-83693000D03*
X178181000Y-83693000D03*
X180721000Y-83693000D03*
X183261000Y-83693000D03*
X185801000Y-83693000D03*
X188341000Y-83693000D03*
X190881000Y-83693000D03*
X193421000Y-83693000D03*
D12*
X192786000Y-80137000D03*
D13*
X190246000Y-80137000D03*
X187706000Y-80137000D03*
X185166000Y-80137000D03*
X182626000Y-80137000D03*
X180086000Y-80137000D03*
X177546000Y-80137000D03*
X175006000Y-80137000D03*
X172466000Y-80137000D03*
X169926000Y-80137000D03*
X167386000Y-80137000D03*
X164846000Y-80137000D03*
X162306000Y-80137000D03*
X159766000Y-80137000D03*
X157226000Y-80137000D03*
X154686000Y-80137000D03*
X152146000Y-80137000D03*
X149606000Y-80137000D03*
X147066000Y-80137000D03*
X144526000Y-80137000D03*
X141986000Y-80137000D03*
X139446000Y-80137000D03*
X136906000Y-80137000D03*
X134366000Y-80137000D03*
X131826000Y-80137000D03*
X129286000Y-80137000D03*
X126746000Y-80137000D03*
X124206000Y-80137000D03*
X121666000Y-80137000D03*
X119126000Y-80137000D03*
X192786000Y-75057000D03*
X190246000Y-75057000D03*
X187706000Y-75057000D03*
X185166000Y-75057000D03*
X182626000Y-75057000D03*
X180086000Y-75057000D03*
X177546000Y-75057000D03*
X175006000Y-75057000D03*
X172466000Y-75057000D03*
X169926000Y-75057000D03*
X167386000Y-75057000D03*
X164846000Y-75057000D03*
X162306000Y-75057000D03*
X159766000Y-75057000D03*
X157226000Y-75057000D03*
X154686000Y-75057000D03*
X152146000Y-75057000D03*
X149606000Y-75057000D03*
X147066000Y-75057000D03*
X144526000Y-75057000D03*
X141986000Y-75057000D03*
X139446000Y-75057000D03*
X136906000Y-75057000D03*
X134366000Y-75057000D03*
X131826000Y-75057000D03*
X129286000Y-75057000D03*
X126746000Y-75057000D03*
X124206000Y-75057000D03*
X121666000Y-75057000D03*
X119126000Y-75057000D03*
D14*
X145415000Y-83693000D03*
D15*
X147955000Y-83693000D03*
X150495000Y-83693000D03*
X153035000Y-83693000D03*
X155575000Y-83693000D03*
X158115000Y-83693000D03*
X160655000Y-83693000D03*
X163195000Y-83693000D03*
X165735000Y-83693000D03*
D10*
X112776000Y-106162000D03*
D11*
X115316000Y-106162000D03*
X117856000Y-106162000D03*
X120396000Y-106162000D03*
X122936000Y-106162000D03*
X125476000Y-106162000D03*
X128016000Y-106162000D03*
X130556000Y-106162000D03*
X133096000Y-106162000D03*
X135636000Y-106162000D03*
X138176000Y-106162000D03*
X140716000Y-106162000D03*
X140716000Y-98542000D03*
X138176000Y-98542000D03*
X135636000Y-98542000D03*
X133096000Y-98542000D03*
X130556000Y-98542000D03*
X128016000Y-98542000D03*
X125476000Y-98542000D03*
X122936000Y-98542000D03*
X120396000Y-98542000D03*
X117856000Y-98542000D03*
X115316000Y-98542000D03*
X112776000Y-98542000D03*
D10*
X172974000Y-94615000D03*
D11*
X175514000Y-94615000D03*
X178054000Y-94615000D03*
X180594000Y-94615000D03*
X183134000Y-94615000D03*
X185674000Y-94615000D03*
X188214000Y-94615000D03*
X190754000Y-94615000D03*
X193294000Y-94615000D03*
X195834000Y-94615000D03*
X195834000Y-86995000D03*
X193294000Y-86995000D03*
X190754000Y-86995000D03*
X188214000Y-86995000D03*
X185674000Y-86995000D03*
X183134000Y-86995000D03*
X180594000Y-86995000D03*
X178054000Y-86995000D03*
X175514000Y-86995000D03*
X172974000Y-86995000D03*
D12*
X192786000Y-114935000D03*
D13*
X190246000Y-114935000D03*
X187706000Y-114935000D03*
X185166000Y-114935000D03*
X182626000Y-114935000D03*
X180086000Y-114935000D03*
X177546000Y-114935000D03*
X175006000Y-114935000D03*
X172466000Y-114935000D03*
X169926000Y-114935000D03*
X167386000Y-114935000D03*
X164846000Y-114935000D03*
X162306000Y-114935000D03*
X159766000Y-114935000D03*
X157226000Y-114935000D03*
X154686000Y-114935000D03*
X152146000Y-114935000D03*
X149606000Y-114935000D03*
X147066000Y-114935000D03*
X144526000Y-114935000D03*
X141986000Y-114935000D03*
X139446000Y-114935000D03*
X136906000Y-114935000D03*
X134366000Y-114935000D03*
X131826000Y-114935000D03*
X129286000Y-114935000D03*
X126746000Y-114935000D03*
X124206000Y-114935000D03*
X121666000Y-114935000D03*
X119126000Y-114935000D03*
X192786000Y-109855000D03*
X190246000Y-109855000D03*
X187706000Y-109855000D03*
X185166000Y-109855000D03*
X182626000Y-109855000D03*
X180086000Y-109855000D03*
X177546000Y-109855000D03*
X175006000Y-109855000D03*
X172466000Y-109855000D03*
X169926000Y-109855000D03*
X167386000Y-109855000D03*
X164846000Y-109855000D03*
X162306000Y-109855000D03*
X159766000Y-109855000D03*
X157226000Y-109855000D03*
X154686000Y-109855000D03*
X152146000Y-109855000D03*
X149606000Y-109855000D03*
X147066000Y-109855000D03*
X144526000Y-109855000D03*
X141986000Y-109855000D03*
X139446000Y-109855000D03*
X136906000Y-109855000D03*
X134366000Y-109855000D03*
X131826000Y-109855000D03*
X129286000Y-109855000D03*
X126746000Y-109855000D03*
X124206000Y-109855000D03*
X121666000Y-109855000D03*
X119126000Y-109855000D03*
D16*
X173609000Y-90805000D03*
X176559000Y-90805000D03*
X125989000Y-90805000D03*
X128939000Y-90805000D03*
X145972000Y-90805000D03*
X148922000Y-90805000D03*
X145923000Y-102362000D03*
X148873000Y-102362000D03*
X113289000Y-102362000D03*
X116239000Y-102362000D03*
X173609000Y-102362000D03*
X176559000Y-102362000D03*
M02*
